<svg xmlns="http://www.w3.org/2000/svg" xmlns:xlink="http://www.w3.org/1999/xlink" width="1024" zoomAndPan="magnify" viewBox="0 0 768 767.999994" height="1024" preserveAspectRatio="xMidYMid meet" version="1.0"><defs><clipPath id="5fb54cf8af"><path d="M 36 68.179688 L 248 68.179688 L 248 280 L 36 280 Z M 36 68.179688 " clip-rule="nonzero"/></clipPath><clipPath id="b9ff1219a7"><path d="M 36 537 L 248 537 L 248 749.929688 L 36 749.929688 Z M 36 537 " clip-rule="nonzero"/></clipPath></defs><path fill="#8ecaef" d="M 300.765625 619.664062 C 284.515625 630.117188 263.214844 643.820312 263.214844 643.820312 L 300.765625 667.921875 L 300.765625 720.125 L 761.566406 720.125 L 761.566406 567.457031 L 300.765625 567.457031 Z M 300.765625 619.664062 " fill-opacity="1" fill-rule="nonzero"/><path fill="#8ecaef" d="M 300.765625 384.824219 L 263.214844 408.925781 C 263.214844 408.925781 284.515625 422.628906 300.765625 433.023438 L 300.765625 485.230469 L 761.566406 485.230469 L 761.566406 332.621094 L 300.765625 332.621094 Z M 300.765625 384.824219 " fill-opacity="1" fill-rule="nonzero"/><path fill="#8ecaef" d="M 300.765625 97.722656 L 300.765625 149.929688 L 263.214844 174.03125 C 263.214844 174.03125 284.515625 187.734375 300.765625 198.1875 L 300.765625 250.390625 L 761.566406 250.390625 L 761.566406 97.722656 Z M 300.765625 97.722656 " fill-opacity="1" fill-rule="nonzero"/><path fill="#8ecaef" d="M 141.84375 73.972656 C 86.648438 73.972656 41.839844 118.804688 41.839844 174.03125 C 41.839844 229.3125 86.648438 274.144531 141.84375 274.144531 C 197.101562 274.144531 241.851562 229.3125 241.851562 174.03125 C 241.851562 118.804688 197.101562 73.972656 141.84375 73.972656 Z M 141.84375 73.972656 " fill-opacity="1" fill-rule="nonzero"/><path fill="#8ecaef" d="M 212.558594 338.175781 C 213.71875 339.332031 214.847656 340.515625 215.945312 341.730469 C 217.042969 342.945312 218.113281 344.183594 219.152344 345.449219 C 220.191406 346.714844 221.195312 348.003906 222.171875 349.320312 C 223.144531 350.636719 224.089844 351.972656 224.996094 353.335938 C 225.90625 354.699219 226.78125 356.082031 227.625 357.484375 C 228.464844 358.890625 229.273438 360.3125 230.042969 361.757812 C 230.816406 363.203125 231.550781 364.664062 232.25 366.144531 C 232.949219 367.625 233.613281 369.121094 234.238281 370.632812 C 234.867188 372.148438 235.457031 373.675781 236.007812 375.214844 C 236.558594 376.757812 237.070312 378.3125 237.546875 379.878906 C 238.023438 381.445312 238.457031 383.023438 238.855469 384.613281 C 239.253906 386.199219 239.613281 387.796875 239.929688 389.402344 C 240.25 391.011719 240.53125 392.621094 240.769531 394.242188 C 241.011719 395.863281 241.210938 397.488281 241.371094 399.117188 C 241.53125 400.746094 241.652344 402.378906 241.734375 404.015625 C 241.8125 405.648438 241.851562 407.285156 241.851562 408.921875 C 241.851562 410.5625 241.8125 412.199219 241.734375 413.832031 C 241.652344 415.46875 241.53125 417.101562 241.371094 418.730469 C 241.210938 420.359375 241.011719 421.984375 240.769531 423.605469 C 240.53125 425.226562 240.25 426.835938 239.933594 428.445312 C 239.613281 430.050781 239.253906 431.648438 238.855469 433.234375 C 238.457031 434.824219 238.023438 436.402344 237.546875 437.96875 C 237.074219 439.535156 236.558594 441.089844 236.007812 442.632812 C 235.457031 444.171875 234.867188 445.699219 234.242188 447.214844 C 233.613281 448.726562 232.953125 450.222656 232.253906 451.703125 C 231.550781 453.183594 230.816406 454.644531 230.046875 456.089844 C 229.273438 457.535156 228.46875 458.957031 227.625 460.363281 C 226.785156 461.765625 225.910156 463.152344 225 464.511719 C 224.089844 465.875 223.148438 467.210938 222.171875 468.527344 C 221.199219 469.84375 220.191406 471.132812 219.152344 472.398438 C 218.117188 473.664062 217.046875 474.902344 215.949219 476.117188 C 214.847656 477.332031 213.71875 478.515625 212.5625 479.675781 C 211.40625 480.832031 210.21875 481.960938 209.007812 483.0625 C 207.796875 484.160156 206.554688 485.230469 205.292969 486.269531 C 204.027344 487.308594 202.734375 488.3125 201.421875 489.289062 C 200.105469 490.265625 198.769531 491.207031 197.410156 492.117188 C 196.046875 493.027344 194.664062 493.902344 193.261719 494.746094 C 191.859375 495.585938 190.433594 496.394531 188.992188 497.164062 C 187.546875 497.9375 186.085938 498.675781 184.605469 499.375 C 183.125 500.074219 181.628906 500.738281 180.117188 501.363281 C 178.605469 501.992188 177.078125 502.578125 175.539062 503.132812 C 173.996094 503.683594 172.445312 504.195312 170.878906 504.671875 C 169.3125 505.148438 167.734375 505.585938 166.148438 505.980469 C 164.558594 506.378906 162.964844 506.738281 161.359375 507.058594 C 159.753906 507.378906 158.140625 507.65625 156.523438 507.898438 C 154.902344 508.136719 153.277344 508.339844 151.648438 508.5 C 150.019531 508.660156 148.390625 508.78125 146.753906 508.859375 C 145.121094 508.941406 143.484375 508.980469 141.847656 508.980469 C 140.210938 508.980469 138.574219 508.941406 136.941406 508.859375 C 135.304688 508.78125 133.671875 508.660156 132.042969 508.5 C 130.417969 508.339844 128.792969 508.140625 127.171875 507.898438 C 125.554688 507.660156 123.941406 507.378906 122.335938 507.058594 C 120.730469 506.738281 119.136719 506.382812 117.546875 505.984375 C 115.960938 505.585938 114.382812 505.148438 112.816406 504.671875 C 111.25 504.199219 109.695312 503.683594 108.15625 503.132812 C 106.613281 502.582031 105.089844 501.992188 103.574219 501.367188 C 102.0625 500.738281 100.566406 500.074219 99.089844 499.375 C 97.609375 498.675781 96.148438 497.9375 94.703125 497.167969 C 93.261719 496.394531 91.835938 495.589844 90.433594 494.746094 C 89.027344 493.90625 87.648438 493.03125 86.285156 492.121094 C 84.925781 491.210938 83.585938 490.265625 82.273438 489.292969 C 80.957031 488.316406 79.667969 487.308594 78.402344 486.269531 C 77.136719 485.230469 75.898438 484.164062 74.6875 483.0625 C 73.472656 481.964844 72.289062 480.835938 71.128906 479.675781 C 69.972656 478.519531 68.84375 477.332031 67.746094 476.121094 C 66.648438 474.90625 65.578125 473.667969 64.539062 472.402344 C 63.5 471.136719 62.496094 469.84375 61.519531 468.53125 C 60.542969 467.214844 59.601562 465.875 58.691406 464.515625 C 57.785156 463.152344 56.910156 461.769531 56.066406 460.367188 C 55.226562 458.960938 54.417969 457.535156 53.648438 456.09375 C 52.875 454.648438 52.140625 453.1875 51.441406 451.707031 C 50.742188 450.226562 50.078125 448.730469 49.453125 447.214844 C 48.824219 445.703125 48.234375 444.175781 47.683594 442.636719 C 47.132812 441.09375 46.621094 439.539062 46.144531 437.972656 C 45.667969 436.40625 45.234375 434.828125 44.835938 433.238281 C 44.4375 431.648438 44.078125 430.054688 43.761719 428.445312 C 43.441406 426.839844 43.160156 425.226562 42.921875 423.609375 C 42.679688 421.988281 42.480469 420.363281 42.320312 418.734375 C 42.160156 417.105469 42.039062 415.472656 41.957031 413.835938 C 41.878906 412.199219 41.839844 410.566406 41.839844 408.925781 C 41.839844 407.289062 41.878906 405.652344 41.957031 404.019531 C 42.039062 402.382812 42.160156 400.75 42.320312 399.121094 C 42.480469 397.492188 42.679688 395.867188 42.921875 394.246094 C 43.160156 392.625 43.441406 391.011719 43.757812 389.40625 C 44.078125 387.800781 44.4375 386.203125 44.835938 384.617188 C 45.230469 383.027344 45.667969 381.449219 46.144531 379.882812 C 46.617188 378.316406 47.132812 376.761719 47.683594 375.21875 C 48.234375 373.675781 48.824219 372.148438 49.449219 370.636719 C 50.078125 369.125 50.738281 367.628906 51.4375 366.148438 C 52.140625 364.667969 52.875 363.207031 53.644531 361.761719 C 54.417969 360.316406 55.222656 358.890625 56.066406 357.488281 C 56.90625 356.082031 57.78125 354.699219 58.691406 353.339844 C 59.601562 351.976562 60.542969 350.640625 61.519531 349.324219 C 62.492188 348.007812 63.5 346.71875 64.539062 345.453125 C 65.574219 344.1875 66.644531 342.945312 67.742188 341.734375 C 68.84375 340.519531 69.972656 339.335938 71.128906 338.175781 C 72.285156 337.019531 73.46875 335.890625 74.683594 334.789062 C 75.894531 333.691406 77.136719 332.621094 78.398438 331.582031 C 79.664062 330.542969 80.957031 329.535156 82.269531 328.5625 C 83.585938 327.585938 84.921875 326.644531 86.28125 325.734375 C 87.644531 324.824219 89.027344 323.949219 90.429688 323.105469 C 91.832031 322.265625 93.257812 321.457031 94.699219 320.683594 C 96.144531 319.914062 97.605469 319.175781 99.085938 318.476562 C 100.566406 317.777344 102.0625 317.113281 103.574219 316.488281 C 105.085938 315.859375 106.613281 315.269531 108.152344 314.71875 C 109.695312 314.167969 111.246094 313.652344 112.8125 313.179688 C 114.378906 312.703125 115.957031 312.265625 117.542969 311.867188 C 119.132812 311.46875 120.726562 311.113281 122.332031 310.792969 C 123.9375 310.472656 125.550781 310.191406 127.167969 309.953125 C 128.789062 309.710938 130.414062 309.511719 132.042969 309.351562 C 133.671875 309.191406 135.300781 309.070312 136.9375 308.988281 C 138.570312 308.910156 140.207031 308.871094 141.84375 308.871094 C 143.480469 308.871094 145.117188 308.910156 146.75 308.988281 C 148.386719 309.070312 150.015625 309.191406 151.644531 309.351562 C 153.273438 309.511719 154.898438 309.710938 156.519531 309.953125 C 158.136719 310.191406 159.75 310.472656 161.355469 310.792969 C 162.960938 311.109375 164.554688 311.46875 166.144531 311.867188 C 167.730469 312.265625 169.308594 312.703125 170.875 313.175781 C 172.441406 313.652344 173.996094 314.167969 175.535156 314.71875 C 177.078125 315.269531 178.601562 315.859375 180.117188 316.484375 C 181.628906 317.113281 183.125 317.773438 184.601562 318.476562 C 186.082031 319.175781 187.542969 319.910156 188.988281 320.683594 C 190.429688 321.457031 191.855469 322.261719 193.257812 323.105469 C 194.664062 323.945312 196.042969 324.820312 197.40625 325.730469 C 198.765625 326.640625 200.105469 327.582031 201.417969 328.558594 C 202.734375 329.535156 204.023438 330.542969 205.289062 331.582031 C 206.554688 332.617188 207.792969 333.6875 209.003906 334.789062 C 210.21875 335.886719 211.402344 337.015625 212.558594 338.175781 Z M 212.558594 338.175781 " fill-opacity="1" fill-rule="nonzero"/><path fill="#8ecaef" d="M 141.84375 543.707031 C 86.648438 543.707031 41.839844 588.539062 41.839844 643.820312 C 41.839844 699.046875 86.648438 743.878906 141.84375 743.878906 C 197.101562 743.878906 241.851562 699.046875 241.851562 643.820312 C 241.851562 588.539062 197.101562 543.707031 141.84375 543.707031 Z M 141.84375 543.707031 " fill-opacity="1" fill-rule="nonzero"/><path fill="#ef9d26" d="M 91.753906 195.285156 L 191.9375 195.285156 C 191.9375 195.285156 182.996094 238.082031 141.84375 238.082031 C 100.75 238.082031 91.753906 195.285156 91.753906 195.285156 Z M 91.753906 195.285156 " fill-opacity="1" fill-rule="nonzero"/><path fill="#ffc05a" d="M 141.84375 73.972656 C 197.101562 73.972656 241.851562 118.804688 241.851562 174.03125 C 241.851562 229.3125 197.101562 274.144531 141.84375 274.144531 C 86.648438 274.144531 41.839844 229.3125 41.839844 174.03125 C 41.839844 118.804688 86.648438 73.972656 141.84375 73.972656 Z M 191.9375 195.285156 L 91.753906 195.285156 C 91.753906 195.285156 100.75 238.082031 141.84375 238.082031 C 182.996094 238.082031 191.9375 195.285156 191.9375 195.285156 Z M 191.9375 195.285156 " fill-opacity="1" fill-rule="nonzero"/><path fill="#ae2c36" d="M 241.851562 408.925781 C 241.851562 410.5625 241.8125 412.199219 241.734375 413.835938 C 241.652344 415.46875 241.53125 417.101562 241.371094 418.734375 C 241.210938 420.363281 241.011719 421.988281 240.769531 423.605469 C 240.53125 425.226562 240.25 426.839844 239.929688 428.445312 C 239.613281 430.050781 239.253906 431.648438 238.855469 433.238281 C 238.457031 434.824219 238.023438 436.402344 237.546875 437.96875 C 237.070312 439.535156 236.558594 441.089844 236.007812 442.632812 C 235.457031 444.175781 234.867188 445.703125 234.242188 447.214844 C 233.613281 448.726562 232.953125 450.222656 232.25 451.703125 C 231.550781 453.183594 230.816406 454.648438 230.042969 456.089844 C 229.273438 457.535156 228.464844 458.960938 227.625 460.363281 C 226.785156 461.769531 225.910156 463.152344 225 464.511719 C 224.089844 465.875 223.148438 467.214844 222.171875 468.527344 C 221.199219 469.84375 220.191406 471.132812 219.152344 472.398438 C 218.113281 473.664062 217.046875 474.90625 215.945312 476.117188 C 214.847656 477.332031 213.71875 478.519531 212.5625 479.675781 C 211.40625 480.832031 210.21875 481.960938 209.007812 483.0625 C 207.792969 484.160156 206.554688 485.230469 205.289062 486.269531 C 204.023438 487.308594 202.734375 488.316406 201.421875 489.289062 C 200.105469 490.265625 198.769531 491.210938 197.40625 492.117188 C 196.046875 493.027344 194.664062 493.902344 193.261719 494.746094 C 191.855469 495.589844 190.433594 496.394531 188.988281 497.167969 C 187.546875 497.9375 186.082031 498.675781 184.605469 499.375 C 183.125 500.074219 181.628906 500.738281 180.117188 501.363281 C 178.605469 501.992188 177.078125 502.582031 175.539062 503.132812 C 173.996094 503.683594 172.441406 504.199219 170.875 504.671875 C 169.308594 505.148438 167.734375 505.585938 166.144531 505.984375 C 164.558594 506.378906 162.960938 506.738281 161.355469 507.058594 C 159.75 507.378906 158.140625 507.65625 156.519531 507.898438 C 154.902344 508.136719 153.277344 508.339844 151.648438 508.5 C 150.019531 508.660156 148.386719 508.78125 146.753906 508.859375 C 145.117188 508.941406 143.480469 508.980469 141.84375 508.980469 C 140.207031 508.980469 138.574219 508.941406 136.9375 508.859375 C 135.304688 508.78125 133.671875 508.660156 132.042969 508.5 C 130.414062 508.339844 128.789062 508.136719 127.171875 507.898438 C 125.550781 507.65625 123.941406 507.378906 122.335938 507.058594 C 120.730469 506.738281 119.132812 506.378906 117.546875 505.984375 C 115.957031 505.585938 114.382812 505.148438 112.816406 504.671875 C 111.25 504.199219 109.695312 503.683594 108.152344 503.132812 C 106.613281 502.582031 105.085938 501.992188 103.574219 501.363281 C 102.0625 500.738281 100.566406 500.074219 99.085938 499.375 C 97.605469 498.675781 96.144531 497.9375 94.703125 497.167969 C 93.257812 496.394531 91.835938 495.589844 90.429688 494.746094 C 89.027344 493.902344 87.644531 493.027344 86.285156 492.117188 C 84.921875 491.210938 83.585938 490.265625 82.269531 489.289062 C 80.957031 488.316406 79.667969 487.308594 78.402344 486.269531 C 77.136719 485.230469 75.898438 484.160156 74.683594 483.0625 C 73.472656 481.960938 72.285156 480.832031 71.128906 479.675781 C 69.972656 478.519531 68.84375 477.332031 67.746094 476.117188 C 66.644531 474.90625 65.578125 473.664062 64.539062 472.398438 C 63.5 471.132812 62.492188 469.84375 61.519531 468.527344 C 60.542969 467.214844 59.601562 465.875 58.691406 464.511719 C 57.78125 463.152344 56.90625 461.769531 56.066406 460.363281 C 55.226562 458.960938 54.417969 457.535156 53.648438 456.089844 C 52.875 454.648438 52.140625 453.183594 51.441406 451.703125 C 50.738281 450.222656 50.078125 448.726562 49.449219 447.214844 C 48.824219 445.703125 48.234375 444.175781 47.683594 442.632812 C 47.132812 441.089844 46.621094 439.535156 46.144531 437.96875 C 45.667969 436.402344 45.234375 434.824219 44.835938 433.238281 C 44.4375 431.648438 44.078125 430.050781 43.757812 428.445312 C 43.441406 426.839844 43.160156 425.226562 42.921875 423.605469 C 42.679688 421.988281 42.480469 420.363281 42.320312 418.734375 C 42.160156 417.101562 42.039062 415.46875 41.957031 413.835938 C 41.878906 412.199219 41.839844 410.5625 41.839844 408.925781 C 41.839844 407.289062 41.878906 405.652344 41.957031 404.015625 C 42.039062 402.378906 42.160156 400.746094 42.320312 399.117188 C 42.480469 397.488281 42.679688 395.863281 42.921875 394.246094 C 43.160156 392.625 43.441406 391.011719 43.757812 389.40625 C 44.078125 387.800781 44.4375 386.203125 44.835938 384.613281 C 45.234375 383.023438 45.667969 381.449219 46.144531 379.878906 C 46.621094 378.3125 47.132812 376.757812 47.683594 375.21875 C 48.234375 373.675781 48.824219 372.148438 49.449219 370.636719 C 50.078125 369.121094 50.738281 367.625 51.441406 366.144531 C 52.140625 364.664062 52.875 363.203125 53.648438 361.757812 C 54.417969 360.316406 55.226562 358.890625 56.066406 357.488281 C 56.90625 356.082031 57.78125 354.699219 58.691406 353.335938 C 59.601562 351.976562 60.542969 350.636719 61.519531 349.320312 C 62.492188 348.007812 63.5 346.714844 64.539062 345.449219 C 65.578125 344.183594 66.644531 342.945312 67.746094 341.730469 C 68.84375 340.519531 69.972656 339.332031 71.128906 338.175781 C 72.285156 337.015625 73.472656 335.886719 74.683594 334.789062 C 75.898438 333.6875 77.136719 332.621094 78.402344 331.582031 C 79.667969 330.542969 80.957031 329.535156 82.269531 328.558594 C 83.585938 327.585938 84.921875 326.640625 86.285156 325.730469 C 87.644531 324.820312 89.027344 323.945312 90.429688 323.105469 C 91.835938 322.261719 93.257812 321.457031 94.703125 320.683594 C 96.144531 319.914062 97.605469 319.175781 99.085938 318.476562 C 100.566406 317.777344 102.0625 317.113281 103.574219 316.484375 C 105.085938 315.859375 106.613281 315.269531 108.152344 314.71875 C 109.695312 314.167969 111.25 313.652344 112.816406 313.179688 C 114.382812 312.703125 115.957031 312.265625 117.546875 311.867188 C 119.132812 311.46875 120.730469 311.113281 122.335938 310.792969 C 123.941406 310.472656 125.550781 310.191406 127.171875 309.953125 C 128.789062 309.710938 130.414062 309.511719 132.042969 309.351562 C 133.671875 309.191406 135.304688 309.070312 136.9375 308.988281 C 138.574219 308.910156 140.207031 308.871094 141.84375 308.871094 C 143.480469 308.871094 145.117188 308.910156 146.753906 308.988281 C 148.386719 309.070312 150.019531 309.191406 151.648438 309.351562 C 153.277344 309.511719 154.902344 309.710938 156.519531 309.953125 C 158.140625 310.191406 159.75 310.472656 161.355469 310.792969 C 162.960938 311.113281 164.558594 311.46875 166.144531 311.867188 C 167.734375 312.265625 169.308594 312.703125 170.875 313.179688 C 172.441406 313.652344 173.996094 314.167969 175.539062 314.71875 C 177.078125 315.269531 178.605469 315.859375 180.117188 316.484375 C 181.628906 317.113281 183.125 317.777344 184.605469 318.476562 C 186.082031 319.175781 187.546875 319.914062 188.988281 320.683594 C 190.433594 321.457031 191.855469 322.261719 193.261719 323.105469 C 194.664062 323.945312 196.046875 324.824219 197.40625 325.730469 C 198.769531 326.640625 200.105469 327.585938 201.421875 328.558594 C 202.734375 329.535156 204.023438 330.542969 205.289062 331.582031 C 206.554688 332.621094 207.792969 333.6875 209.007812 334.789062 C 210.21875 335.886719 211.40625 337.015625 212.5625 338.175781 C 213.71875 339.332031 214.847656 340.519531 215.945312 341.730469 C 217.046875 342.945312 218.113281 344.183594 219.152344 345.449219 C 220.191406 346.714844 221.199219 348.007812 222.171875 349.320312 C 223.148438 350.636719 224.089844 351.976562 225 353.335938 C 225.90625 354.699219 226.785156 356.082031 227.625 357.488281 C 228.464844 358.890625 229.273438 360.316406 230.042969 361.757812 C 230.816406 363.203125 231.550781 364.664062 232.25 366.144531 C 232.953125 367.625 233.613281 369.121094 234.242188 370.636719 C 234.867188 372.148438 235.457031 373.675781 236.007812 375.21875 C 236.558594 376.757812 237.070312 378.3125 237.546875 379.878906 C 238.023438 381.449219 238.457031 383.023438 238.855469 384.613281 C 239.253906 386.203125 239.613281 387.800781 239.929688 389.40625 C 240.25 391.011719 240.53125 392.625 240.769531 394.246094 C 241.011719 395.863281 241.210938 397.488281 241.371094 399.117188 C 241.53125 400.746094 241.652344 402.378906 241.734375 404.015625 C 241.8125 405.652344 241.851562 407.289062 241.851562 408.925781 Z M 241.851562 408.925781 " fill-opacity="1" fill-rule="nonzero"/><path fill="#8bcb8f" d="M 141.84375 543.707031 C 197.101562 543.707031 241.851562 588.539062 241.851562 643.820312 C 241.851562 699.046875 197.101562 743.878906 141.84375 743.878906 C 86.648438 743.878906 41.839844 699.046875 41.839844 643.820312 C 41.839844 588.539062 86.648438 543.707031 141.84375 543.707031 Z M 141.84375 543.707031 " fill-opacity="1" fill-rule="nonzero"/><path fill="#3a322b" d="M 141.855469 303.046875 C 83.507812 303.046875 36.035156 350.546875 36.035156 408.925781 C 36.035156 467.304688 83.507812 514.800781 141.855469 514.800781 C 200.207031 514.800781 247.679688 467.304688 247.679688 408.925781 C 247.6875 350.546875 200.214844 303.046875 141.855469 303.046875 Z M 141.855469 503.1875 C 89.910156 503.1875 47.640625 460.898438 47.640625 408.925781 C 47.640625 356.945312 89.910156 314.664062 141.855469 314.664062 C 193.804688 314.664062 236.070312 356.953125 236.070312 408.925781 C 236.078125 460.898438 193.8125 503.1875 141.855469 503.1875 Z M 141.855469 503.1875 " fill-opacity="1" fill-rule="nonzero"/><path fill="#3a322b" d="M 118.902344 408.554688 C 122.105469 408.554688 124.707031 405.953125 124.707031 402.746094 L 124.707031 360.097656 C 124.707031 356.894531 122.105469 354.292969 118.902344 354.292969 C 115.699219 354.292969 113.097656 356.894531 113.097656 360.097656 L 113.097656 402.746094 C 113.097656 405.957031 115.699219 408.554688 118.902344 408.554688 Z M 118.902344 408.554688 " fill-opacity="1" fill-rule="nonzero"/><path fill="#3a322b" d="M 164.8125 408.554688 C 168.015625 408.554688 170.617188 405.953125 170.617188 402.746094 L 170.617188 360.097656 C 170.617188 356.894531 168.015625 354.292969 164.8125 354.292969 C 161.609375 354.292969 159.007812 356.894531 159.007812 360.097656 L 159.007812 402.746094 C 159.007812 405.957031 161.609375 408.554688 164.8125 408.554688 Z M 164.8125 408.554688 " fill-opacity="1" fill-rule="nonzero"/><path fill="#3a322b" d="M 193.148438 412.734375 C 189.996094 412.0625 186.933594 414.082031 186.277344 417.222656 C 185.945312 418.785156 177.855469 455.386719 141.855469 455.386719 C 106.050781 455.386719 97.769531 418.761719 97.4375 417.222656 C 96.78125 414.082031 93.726562 412.074219 90.566406 412.734375 C 87.425781 413.390625 85.417969 416.476562 86.078125 419.609375 C 89.515625 436.003906 105.597656 467.007812 141.855469 467.007812 C 178.117188 467.007812 194.199219 436.003906 197.636719 419.609375 C 198.296875 416.476562 196.289062 413.390625 193.148438 412.734375 Z M 193.148438 412.734375 " fill-opacity="1" fill-rule="nonzero"/><path fill="#3a322b" d="M 761.566406 326.785156 L 300.761719 326.785156 C 297.558594 326.785156 294.957031 329.386719 294.957031 332.589844 L 294.957031 381.644531 L 260.054688 404.035156 C 258.390625 405.105469 257.386719 406.945312 257.386719 408.925781 C 257.386719 410.90625 258.390625 412.746094 260.054688 413.816406 L 294.957031 436.210938 L 294.957031 485.253906 C 294.957031 488.464844 297.558594 491.0625 300.761719 491.0625 L 761.566406 491.0625 C 764.773438 491.0625 767.371094 488.464844 767.371094 485.253906 L 767.371094 332.585938 C 767.371094 329.378906 764.773438 326.785156 761.566406 326.785156 Z M 755.765625 479.445312 L 306.566406 479.445312 L 306.566406 433.035156 C 306.566406 431.054688 305.5625 429.214844 303.894531 428.148438 L 273.9375 408.917969 L 303.894531 389.699219 C 305.5625 388.628906 306.566406 386.789062 306.566406 384.808594 L 306.566406 338.394531 L 755.765625 338.394531 Z M 755.765625 479.445312 " fill-opacity="1" fill-rule="nonzero"/><path fill="#3a322b" d="M 347.050781 414.734375 L 482.226562 414.734375 C 485.429688 414.734375 488.03125 412.132812 488.03125 408.925781 C 488.03125 405.71875 485.429688 403.117188 482.226562 403.117188 L 347.050781 403.117188 C 343.847656 403.117188 341.246094 405.71875 341.246094 408.925781 C 341.246094 412.132812 343.847656 414.734375 347.050781 414.734375 Z M 347.050781 414.734375 " fill-opacity="1" fill-rule="nonzero"/><g clip-path="url(#5fb54cf8af)"><path fill="#3a322b" d="M 141.855469 68.179688 C 83.507812 68.179688 36.035156 115.675781 36.035156 174.050781 C 36.035156 232.429688 83.507812 279.925781 141.855469 279.925781 C 200.207031 279.925781 247.679688 232.429688 247.679688 174.050781 C 247.679688 115.675781 200.214844 68.179688 141.855469 68.179688 Z M 141.855469 268.320312 C 89.910156 268.320312 47.640625 226.03125 47.640625 174.050781 C 47.640625 122.074219 89.910156 79.792969 141.855469 79.792969 C 193.804688 79.792969 236.070312 122.078125 236.070312 174.050781 C 236.070312 226.027344 193.8125 268.320312 141.855469 268.320312 Z M 141.855469 268.320312 " fill-opacity="1" fill-rule="nonzero"/></g><path fill="#3a322b" d="M 118.902344 173.6875 C 122.105469 173.6875 124.707031 171.085938 124.707031 167.878906 L 124.707031 125.234375 C 124.707031 122.027344 122.105469 119.425781 118.902344 119.425781 C 115.699219 119.425781 113.097656 122.027344 113.097656 125.234375 L 113.097656 167.878906 C 113.097656 171.085938 115.699219 173.6875 118.902344 173.6875 Z M 118.902344 173.6875 " fill-opacity="1" fill-rule="nonzero"/><path fill="#3a322b" d="M 164.8125 173.6875 C 168.015625 173.6875 170.617188 171.085938 170.617188 167.878906 L 170.617188 125.234375 C 170.617188 122.027344 168.015625 119.425781 164.8125 119.425781 C 161.609375 119.425781 159.007812 122.027344 159.007812 125.234375 L 159.007812 167.878906 C 159.007812 171.085938 161.609375 173.6875 164.8125 173.6875 Z M 164.8125 173.6875 " fill-opacity="1" fill-rule="nonzero"/><path fill="#3a322b" d="M 191.960938 189.488281 L 91.761719 189.488281 C 90.011719 189.488281 88.359375 190.277344 87.257812 191.636719 C 86.152344 192.996094 85.722656 194.777344 86.082031 196.492188 C 89.519531 212.882812 105.605469 243.894531 141.863281 243.894531 C 178.121094 243.894531 194.207031 212.890625 197.640625 196.492188 C 198.003906 194.777344 197.574219 192.996094 196.46875 191.636719 C 195.367188 190.277344 193.707031 189.488281 191.960938 189.488281 Z M 141.855469 232.273438 C 115.3125 232.273438 103.898438 212.148438 99.632812 201.101562 L 184.117188 201.101562 C 179.902344 212.148438 168.550781 232.273438 141.855469 232.273438 Z M 141.855469 232.273438 " fill-opacity="1" fill-rule="nonzero"/><path fill="#3a322b" d="M 761.566406 91.910156 L 300.761719 91.910156 C 297.558594 91.910156 294.957031 94.511719 294.957031 97.71875 L 294.957031 146.765625 L 260.054688 169.164062 C 258.390625 170.230469 257.386719 172.074219 257.386719 174.050781 C 257.386719 176.03125 258.390625 177.875 260.054688 178.941406 L 294.957031 201.335938 L 294.957031 250.378906 C 294.957031 253.585938 297.558594 256.1875 300.761719 256.1875 L 761.566406 256.1875 C 764.773438 256.1875 767.371094 253.585938 767.371094 250.378906 L 767.371094 97.71875 C 767.371094 94.511719 764.773438 91.910156 761.566406 91.910156 Z M 755.765625 244.578125 L 306.566406 244.578125 L 306.566406 198.164062 C 306.566406 196.183594 305.5625 194.34375 303.894531 193.273438 L 273.9375 174.050781 L 303.894531 154.824219 C 305.5625 153.757812 306.566406 151.917969 306.566406 149.9375 L 306.566406 103.527344 L 755.765625 103.527344 Z M 755.765625 244.578125 " fill-opacity="1" fill-rule="nonzero"/><path fill="#3a322b" d="M 347.050781 179.859375 L 383.554688 179.859375 C 386.757812 179.859375 389.355469 177.257812 389.355469 174.050781 C 389.355469 170.847656 386.757812 168.246094 383.554688 168.246094 L 347.050781 168.246094 C 343.847656 168.246094 341.246094 170.847656 341.246094 174.050781 C 341.246094 177.257812 343.847656 179.859375 347.050781 179.859375 Z M 347.050781 179.859375 " fill-opacity="1" fill-rule="nonzero"/><g clip-path="url(#b9ff1219a7)"><path fill="#3a322b" d="M 141.855469 537.917969 C 83.507812 537.917969 36.035156 585.40625 36.035156 643.792969 C 36.035156 702.175781 83.507812 749.667969 141.855469 749.667969 C 200.207031 749.667969 247.679688 702.171875 247.679688 643.792969 C 247.679688 585.414062 200.214844 537.917969 141.855469 537.917969 Z M 141.855469 738.054688 C 89.910156 738.054688 47.640625 695.765625 47.640625 643.792969 C 47.640625 591.820312 89.910156 549.53125 141.855469 549.53125 C 193.804688 549.53125 236.070312 591.820312 236.070312 643.792969 C 236.070312 695.765625 193.8125 738.054688 141.855469 738.054688 Z M 141.855469 738.054688 " fill-opacity="1" fill-rule="nonzero"/></g><path fill="#3a322b" d="M 164.8125 643.425781 C 168.015625 643.425781 170.617188 640.832031 170.617188 637.621094 L 170.617188 594.972656 C 170.617188 591.761719 168.015625 589.164062 164.8125 589.164062 C 161.609375 589.164062 159.007812 591.761719 159.007812 594.972656 L 159.007812 637.621094 C 159.007812 640.824219 161.609375 643.425781 164.8125 643.425781 Z M 164.8125 643.425781 " fill-opacity="1" fill-rule="nonzero"/><path fill="#3a322b" d="M 118.902344 643.425781 C 122.105469 643.425781 124.707031 640.832031 124.707031 637.621094 L 124.707031 594.972656 C 124.707031 591.761719 122.105469 589.164062 118.902344 589.164062 C 115.699219 589.164062 113.097656 591.761719 113.097656 594.972656 L 113.097656 637.621094 C 113.097656 640.824219 115.699219 643.425781 118.902344 643.425781 Z M 118.902344 643.425781 " fill-opacity="1" fill-rule="nonzero"/><path fill="#3a322b" d="M 761.566406 561.65625 L 300.761719 561.65625 C 297.558594 561.65625 294.957031 564.253906 294.957031 567.464844 L 294.957031 616.503906 L 260.054688 638.902344 C 258.390625 639.972656 257.386719 641.8125 257.386719 643.792969 C 257.386719 645.773438 258.390625 647.613281 260.054688 648.683594 L 294.957031 671.078125 L 294.957031 720.121094 C 294.957031 723.332031 297.558594 725.925781 300.761719 725.925781 L 761.566406 725.925781 C 764.773438 725.925781 767.371094 723.332031 767.371094 720.121094 L 767.371094 567.464844 C 767.371094 564.253906 764.773438 561.65625 761.566406 561.65625 Z M 755.765625 714.320312 L 306.566406 714.320312 L 306.566406 667.910156 C 306.566406 665.929688 305.5625 664.089844 303.894531 663.019531 L 273.9375 643.792969 L 303.894531 624.566406 C 305.5625 623.496094 306.566406 621.65625 306.566406 619.675781 L 306.566406 573.265625 L 755.765625 573.265625 Z M 755.765625 714.320312 " fill-opacity="1" fill-rule="nonzero"/><path fill="#3a322b" d="M 512.378906 414.734375 L 575.914062 414.734375 C 579.117188 414.734375 581.714844 412.132812 581.714844 408.925781 C 581.714844 405.71875 579.117188 403.117188 575.914062 403.117188 L 512.378906 403.117188 C 509.175781 403.117188 506.574219 405.71875 506.574219 408.925781 C 506.574219 412.132812 509.175781 414.734375 512.378906 414.734375 Z M 512.378906 414.734375 " fill-opacity="1" fill-rule="nonzero"/><path fill="#3a322b" d="M 193.171875 659.6875 L 88.679688 676.757812 C 85.515625 677.28125 83.367188 680.265625 83.882812 683.425781 C 84.347656 686.269531 86.808594 688.296875 89.605469 688.296875 C 89.914062 688.296875 90.226562 688.273438 90.546875 688.222656 L 195.042969 671.148438 C 198.207031 670.625 200.351562 667.640625 199.835938 664.484375 C 199.320312 661.324219 196.375 659.191406 193.171875 659.6875 Z M 193.171875 659.6875 " fill-opacity="1" fill-rule="nonzero"/><path fill="#3a322b" d="M 339.183594 631.988281 L 575.914062 631.988281 C 579.117188 631.988281 581.714844 629.390625 581.714844 626.179688 C 581.714844 622.96875 579.117188 620.371094 575.914062 620.371094 L 339.183594 620.371094 C 335.980469 620.371094 333.382812 622.96875 333.382812 626.179688 C 333.382812 629.390625 335.980469 631.988281 339.183594 631.988281 Z M 339.183594 631.988281 " fill-opacity="1" fill-rule="nonzero"/><path fill="#3a322b" d="M 611.128906 631.988281 L 671.933594 631.988281 C 675.136719 631.988281 677.738281 629.390625 677.738281 626.179688 C 677.738281 622.96875 675.136719 620.371094 671.933594 620.371094 L 611.128906 620.371094 C 607.921875 620.371094 605.324219 622.96875 605.324219 626.179688 C 605.324219 629.390625 607.917969 631.988281 611.128906 631.988281 Z M 611.128906 631.988281 " fill-opacity="1" fill-rule="nonzero"/><path fill="#3a322b" d="M 339.183594 677.03125 L 605.796875 677.03125 C 609.003906 677.03125 611.601562 674.4375 611.601562 671.226562 C 611.601562 668.011719 609.003906 665.417969 605.796875 665.417969 L 339.183594 665.417969 C 335.980469 665.417969 333.382812 668.011719 333.382812 671.226562 C 333.382812 674.4375 335.980469 677.03125 339.183594 677.03125 Z M 339.183594 677.03125 " fill-opacity="1" fill-rule="nonzero"/><path fill="#3a322b" d="M 416.613281 179.859375 L 686.703125 179.859375 C 689.910156 179.859375 692.507812 177.257812 692.507812 174.050781 C 692.507812 170.847656 689.910156 168.246094 686.703125 168.246094 L 416.613281 168.246094 C 413.410156 168.246094 410.808594 170.847656 410.808594 174.050781 C 410.808594 177.257812 413.410156 179.859375 416.613281 179.859375 Z M 416.613281 179.859375 " fill-opacity="1" fill-rule="nonzero"/></svg>