<?xml version="1.0" encoding="UTF-8"?>
<svg version="1.1" xmlns="http://www.w3.org/2000/svg" width="2160" height="1333">
<path d="M0 0 C6.00012219 0.00877788 12.00024118 0.0057044 18.000368 0.00419545 C29.022488 0.00308827 40.04457938 0.01076687 51.06669219 0.02287721 C61.23418372 0.03395203 71.40166679 0.04035088 81.56916416 0.04237676 C82.24745454 0.04251424 82.92574492 0.04265172 83.62458956 0.04279336 C87.07043805 0.04347019 90.51628655 0.0440729 93.96213505 0.04464711 C118.256533 0.04882813 142.55091769 0.06224696 166.84530818 0.08125234 C190.42082831 0.09967382 213.99634479 0.11381512 237.57187068 0.12226796 C238.30084872 0.12253101 239.02982676 0.12279407 239.78089504 0.12306509 C247.10277768 0.12570253 254.42466036 0.1282541 261.74654305 0.13074281 C276.65697248 0.13581281 291.56740168 0.14145531 306.47783077 0.14744496 C307.50576564 0.14785683 307.50576564 0.14785683 308.55446687 0.14827702 C354.17868193 0.16662312 399.80288933 0.19834891 445.42709529 0.23213124 C442.84946644 1.95055048 441.22412914 2.72922015 438.34897029 3.60713124 C437.12065486 3.9931249 437.12065486 3.9931249 435.86752498 4.3869164 C434.53576229 4.80529775 434.53576229 4.80529775 433.17709529 5.23213124 C406.9035256 13.7885359 380.84373224 25.98621287 358.42709529 42.23213124 C357.39971248 42.96818593 356.37232967 43.70424062 355.31381404 44.46259999 C340.36162064 55.41978452 325.16511098 67.82746696 313.42709529 82.23213124 C312.44189773 83.40571104 311.45616625 84.57884272 310.47006404 85.75166249 C299.13410908 99.3427275 289.78099339 113.64719156 281.42709529 129.23213124 C281.09500057 129.84040761 280.76290584 130.44868398 280.42074764 131.07539296 C242.84534613 200.30307201 238.41918977 292.67572847 260.2967242 367.49189687 C274.28726123 413.45206805 298.0024962 454.66688601 330.92904842 489.6369164 C332.60857291 491.42538006 334.27605385 493.22464979 335.94272029 495.02509999 C347.53674319 507.5389598 347.53674319 507.5389598 360.04037654 519.12666249 C362.54691742 521.33783358 364.98410846 523.61134275 367.42025936 525.89936757 C372.95537437 531.09503712 378.54611679 536.12734844 384.47787654 540.87275624 C386.68102398 542.63527419 388.8620416 544.41464883 391.03256404 546.21650624 C427.54474544 576.43459128 468.93561091 601.10819358 510.59604061 623.45649648 C517.45142659 627.13886649 524.23212199 630.93592452 530.98959529 634.79463124 C539.52432339 639.65903309 548.15993844 644.28078268 556.88583553 648.7919457 C566.13052085 653.57605664 575.26918269 658.54116163 584.38803279 663.56025624 C587.6802126 665.3713783 590.97554725 667.17668955 594.27084529 668.98213124 C620.27543257 683.2462845 645.98746251 697.98145882 671.42709529 713.23213124 C672.47365291 713.85926015 673.52021053 714.48638906 674.59848201 715.13252187 C686.40086838 722.22026215 698.10244349 729.39964952 709.42709529 737.23213124 C710.08838436 737.6876537 710.74967342 738.14317616 711.43100154 738.61250234 C722.35245072 746.15799888 732.95302425 754.0794096 743.42709529 762.23213124 C744.0630865 762.72632558 744.69907772 763.22051991 745.35434139 763.72968984 C755.76519032 771.83004416 766.1040107 779.99106267 775.84506404 788.89619374 C777.93746961 790.78917185 780.05573798 792.63650612 782.19272029 794.47822499 C786.64187253 798.36362013 790.82540566 802.48283062 794.98959529 806.66963124 C795.70566951 807.38183827 796.42174373 808.09404531 797.15951717 808.82783437 C801.78811393 813.46485441 806.1735603 818.25016612 810.42709529 823.23213124 C810.88866024 823.76668935 811.35022518 824.30124745 811.82577693 824.85200429 C818.47792054 832.56739525 824.85993222 840.46770968 831.09506404 848.52217031 C832.38084115 850.17275367 833.68256914 851.80928605 834.98959529 853.44306874 C878.1628394 907.79569877 891.75803439 981.51880904 884.42709529 1049.23213124 C881.0862619 1075.80349109 874.86776585 1101.54579133 864.42709529 1126.23213124 C864.12223201 1126.9562621 863.81736873 1127.68039296 863.50326717 1128.42646718 C855.36344735 1147.42231019 844.4073729 1165.17991379 831.42709529 1181.23213124 C830.97656795 1181.79158437 830.52604061 1182.35103749 830.06186092 1182.92744374 C820.44643342 1194.77477339 810.19868801 1206.49381363 798.42709529 1216.23213124 C796.96143123 1217.52957265 796.96143123 1217.52957265 795.46615779 1218.85322499 C730.09557397 1276.64892401 641.26095478 1302.81250764 556.43124568 1314.81269765 C555.46543827 1314.9499677 554.49963085 1315.08723775 553.50455654 1315.2286675 C551.14550153 1315.56385771 548.7863472 1315.89833029 546.42709529 1316.23213124 C602.3977024 1316.3376337 658.36455151 1316.35256334 714.33321941 1315.82641149 C717.69617882 1315.7950363 721.05914765 1315.76493837 724.42212093 1315.73509145 C745.17391415 1315.5482491 765.92326576 1315.31450313 786.66928279 1314.77509999 C787.39461523 1314.75747672 788.11994766 1314.73985345 788.86725986 1314.72169614 C852.22233638 1313.14405203 911.74491718 1289.16682406 957.42709529 1245.23213124 C957.91838924 1244.76275136 958.40968318 1244.29337148 958.91586483 1243.80976796 C965.64243286 1237.35452368 971.6872008 1230.57199633 977.42709529 1223.23213124 C978.62979061 1221.72006093 978.62979061 1221.72006093 979.85678279 1220.17744374 C1000.66054635 1193.81542275 1016.13896033 1164.16807557 1026.42709529 1132.23213124 C1026.65735408 1131.53909902 1026.88761287 1130.84606679 1027.1248492 1130.13203359 C1050.51240864 1059.3859532 1042.05126434 972.46362553 1009.42709529 906.23213124 C1009.05004451 905.45498769 1008.67299373 904.67784413 1008.28451717 903.87715077 C999.19595093 885.29633832 987.65674243 868.11437502 974.42709529 852.23213124 C973.96657772 851.67541738 973.50606014 851.11870351 973.03158748 850.54511952 C959.98970576 834.84390963 945.98671769 819.23577231 930.44272029 805.96650624 C928.12594908 803.97300543 925.87289545 801.91658736 923.61459529 799.85713124 C918.36510675 795.12699849 912.94340923 790.64664174 907.42709529 786.23213124 C906.91727108 785.82269277 906.40744686 785.41325429 905.88217342 784.99140859 C901.76562099 781.69237223 897.60876737 778.44815825 893.42709529 775.23213124 C892.7843365 774.73680898 892.14157772 774.24148671 891.47934139 773.73115468 C860.10961587 749.71787755 826.15254428 729.0257868 791.59408748 709.98115468 C788.31663784 708.1711293 785.0468639 706.34785185 781.77865779 704.52119374 C769.5534713 697.6940614 757.27637176 690.97705087 744.93100154 684.36982656 C736.7562279 679.98160409 728.67764194 675.43954716 720.61752498 670.84492421 C714.77629306 667.52664189 708.88924393 664.32739042 702.92709529 661.23213124 C693.97391535 656.58014631 685.20213292 651.63421149 676.43490779 646.64228749 C672.4207395 644.35736995 668.39514392 642.09510453 664.35678279 639.85322499 C648.87708263 631.25858083 633.60139275 622.35480604 618.42709529 613.23213124 C617.84641292 612.883037 617.26573055 612.53394277 616.66745174 612.17426991 C600.77260195 602.61215621 584.96553307 592.91340955 569.27231014 583.02314687 C566.46947129 581.25880623 563.66140355 579.50302378 560.85287654 577.74775624 C532.30963764 559.83703205 504.87323832 540.24014341 479.94711483 517.51728749 C478.40903963 516.12255936 476.86307353 514.73639125 475.30356014 513.36567616 C467.99701094 506.91980419 461.11631031 500.07369501 454.23983943 493.17524648 C452.23632543 491.1663526 450.22749378 489.16288735 448.21811092 487.15986562 C442.07283869 481.01778383 436.05126767 474.86051294 430.42709529 468.23213124 C428.65344369 466.27738793 426.85123474 464.35113981 425.05209529 462.41963124 C419.94091433 456.87179914 415.08755174 451.16711119 410.42709529 445.23213124 C409.97221736 444.65511464 409.51733943 444.07809804 409.04867733 443.48359609 C400.99896368 433.21234436 393.94805754 422.53185344 387.42709529 411.23213124 C387.05600643 410.5945287 386.68491756 409.95692616 386.30258358 409.30000234 C351.85217475 349.53195789 350.30237054 274.15431217 367.70443904 208.82197499 C378.41220156 170.44766934 397.82673493 135.9328382 425.42709529 107.23213124 C425.94562068 106.69169179 426.46414608 106.15125234 426.99838436 105.59443593 C434.07170475 98.26591456 441.32529392 91.433376 449.42709529 85.23213124 C450.23388729 84.61072255 450.23388729 84.61072255 451.05697811 83.97676015 C522.2055663 29.47524662 614.43937507 10.17431662 791 0 C797.00012219 0.00877788 803.00024118 0.0057044 809.000368 0.00419545 C820.022488 0.00308827 831.04457938 0.01076687 842.06669219 0.02287721 C852.23418372 0.03395203 862.40166679 0.04035088 872.56916416 0.04237676 C873.24745454 0.04251424 873.92574492 0.04265172 874.62458956 0.04279336 C878.07043805 0.04347019 881.51628655 0.0440729 884.96213505 0.04464711 C909.256533 0.04882813 933.55091769 0.06224696 957.84530818 0.08125234 C981.42082831 0.09967382 1004.99634479 0.11381512 1028.57187068 0.12226796 C1029.30084872 0.12253101 1030.02982676 0.12279407 1030.78089504 0.12306509 C1038.10277768 0.12570253 1045.42466036 0.1282541 1052.74654305 0.13074281 C1067.65697248 0.13581281 1082.56740168 0.14145531 1097.47783077 0.14744496 C1098.50576564 0.14785683 1098.50576564 0.14785683 1099.55446687 0.14827702 C1145.17868193 0.16662312 1190.80288933 0.19834891 1236.42709529 0.23213124 C1233.84946644 1.95055048 1232.22412914 2.72922015 1229.34897029 3.60713124 C1228.12065486 3.9931249 1228.12065486 3.9931249 1226.86752498 4.3869164 C1225.97968318 4.6658373 1225.09184139 4.9447582 1224.17709529 5.23213124 C1197.90870485 13.7868492 1171.83339681 25.97871447 1149.42709529 42.23213124 C1147.85121639 43.37101796 1147.85121639 43.37101796 1146.24350154 44.53291249 C1143.27082262 46.72549988 1140.3407863 48.96188033 1137.42709529 51.23213124 C1136.12772029 52.23953359 1136.12772029 52.23953359 1134.80209529 53.26728749 C1129.02709633 57.86494292 1123.57872664 62.76711196 1118.17709529 67.79463124 C1117.51548397 68.40774159 1116.85387264 69.02085195 1116.17221248 69.6525414 C1071.36038468 111.82507608 1049.10835175 172.44315127 1041.42709529 232.23213124 C1041.30850154 233.10788808 1041.18990779 233.98364491 1041.06772029 234.88593984 C1030.36075605 316.92486675 1051.69273473 400.14512975 1101.54037654 466.02509999 C1103.46247674 468.46453565 1105.42805994 470.85529654 1107.42709529 473.23213124 C1108.11569637 474.05390859 1108.11569637 474.05390859 1108.81820858 474.89228749 C1113.97112221 481.02741835 1119.10327405 487.11888832 1124.87631404 492.68525624 C1126.53371609 494.33848347 1128.0369538 496.07287702 1129.55209529 497.85713124 C1136.48102869 505.88092996 1144.13216634 513.44640036 1152.21615779 520.30244374 C1154.66866456 522.44297085 1157.03730142 524.65993261 1159.40951717 526.88862538 C1165.87296368 532.95802239 1172.48486405 538.71032942 1179.42709529 544.23213124 C1180.55564072 545.15155002 1181.68319068 546.0721916 1182.80990779 546.99384999 C1219.29272055 576.71711932 1260.21932332 601.26038815 1301.59604061 623.45649648 C1308.45142659 627.13886649 1315.23212199 630.93592452 1321.98959529 634.79463124 C1330.52432339 639.65903309 1339.15993844 644.28078268 1347.88583553 648.7919457 C1357.13052085 653.57605664 1366.26918269 658.54116163 1375.38803279 663.56025624 C1378.6802126 665.3713783 1381.97554725 667.17668955 1385.27084529 668.98213124 C1465.35702953 712.91136547 1465.35702953 712.91136547 1497.42709529 735.23213124 C1498.04681209 735.66171132 1498.66652889 736.0912914 1499.30502498 736.53388906 C1509.85911152 743.86297628 1520.21932237 751.42857001 1530.42709529 759.23213124 C1531.53601131 760.0797704 1531.53601131 760.0797704 1532.66732967 760.94453359 C1541.85419483 767.98637075 1550.86894444 775.16572866 1559.63412654 782.72627187 C1561.02661447 783.8957797 1562.43971504 785.04076419 1563.86068904 786.17549062 C1570.84852269 791.76873531 1577.25214681 797.75401864 1583.55209529 804.10713124 C1584.93848201 805.4819164 1584.93848201 805.4819164 1586.35287654 806.88447499 C1591.71518351 812.26190835 1596.69138162 817.79847047 1601.41342342 823.74702382 C1603.45710369 826.26916512 1605.59893939 828.6613186 1607.80209529 831.04463124 C1612.87673494 836.62232213 1617.47681011 842.52664867 1622.07602108 848.49580312 C1623.32856822 850.10550954 1624.60914335 851.69329999 1625.89193904 853.27900624 C1658.72818562 894.36422886 1675.71125837 950.05996482 1677.42709529 1002.23213124 C1677.46834529 1003.45545156 1677.50959529 1004.67877187 1677.55209529 1005.93916249 C1678.06495668 1038.08916033 1674.09786332 1070.53485898 1664.42709529 1101.23213124 C1664.03699275 1102.47881581 1664.03699275 1102.47881581 1663.63900936 1103.75068593 C1652.34841474 1139.19790159 1633.43914386 1169.85575968 1608.42709529 1197.23213124 C1607.59822811 1198.16541249 1606.76936092 1199.09869374 1605.91537654 1200.06025624 C1601.02496664 1205.54230838 1596.05335166 1210.5228878 1590.42709529 1215.23213124 C1589.39799222 1216.13246801 1588.37081097 1217.03500395 1587.34506404 1217.93916249 C1579.05164948 1225.21535928 1570.4601928 1231.90021136 1561.42709529 1238.23213124 C1560.8387994 1238.64672597 1560.2505035 1239.0613207 1559.64438045 1239.4884789 C1549.43852989 1246.63115878 1538.72716864 1252.83212065 1527.84701717 1258.88496327 C1525.76903539 1260.04177355 1523.69901489 1261.21137187 1521.63022029 1262.38447499 C1445.51745539 1304.48757684 1353.17755233 1318.2508778 1191.80592344 1323.47666363 C1185.62717668 1323.46964739 1179.44843575 1323.47456422 1173.26968741 1323.47781861 C1162.49258034 1323.48192245 1151.71550135 1323.47882141 1140.93839824 1323.47054219 C1129.40213204 1323.46171936 1117.86587656 1323.45740463 1106.32960689 1323.45834661 C1105.59513816 1323.45840399 1104.86066943 1323.45846137 1104.10394407 1323.4585205 C1100.35747644 1323.45883333 1096.61100881 1323.45921723 1092.86454119 1323.45962617 C1065.89569446 1323.4624255 1038.92685723 1323.45563435 1011.95801342 1323.44359136 C985.28533176 1323.4317093 958.61265418 1323.42403378 931.9399699 1323.42188573 C931.10879896 1323.42181691 930.27762802 1323.42174808 929.42127009 1323.42167717 C921.82877954 1323.42105069 914.23628898 1323.42047532 906.64379842 1323.41996122 C887.77746544 1323.41868313 868.91113256 1323.41676492 850.04479969 1323.41441083 C849.18607351 1323.41430419 848.32734733 1323.41419756 847.44259914 1323.41408769 C805.76408982 1323.40885627 764.08558318 1323.39624596 722.40707576 1323.38301015 C707.96037982 1323.37842645 693.51368387 1323.37387554 679.06698787 1323.36946034 C677.72284074 1323.3690495 677.72284074 1323.3690495 676.35153912 1323.36863035 C634.62201543 1323.35592045 592.89249128 1323.34848401 551.16296617 1323.34239075 C548.45077511 1323.34199463 545.73858405 1323.34159624 543.02639299 1323.3411974 C525.0511688 1323.33855762 507.0759446 1323.33600836 489.10072039 1323.33351968 C453.34056457 1323.32856786 417.58040884 1323.32308455 381.82025316 1323.31723558 C380.11761635 1323.3169571 378.41497953 1323.31667899 376.71234272 1323.31640126 C300.15388002 1323.30390988 223.59541927 1323.28523861 147.03695858 1323.26386952 C146.32074492 1323.26366965 145.60453126 1323.26346978 144.86661416 1323.26326386 C109.05344109 1323.25326484 73.24026813 1323.2429121 37.42709529 1323.23213124 C38.42709529 1321.23213124 38.42709529 1321.23213124 40.91708553 1320.21406484 C42.01222469 1319.85651113 43.10736385 1319.49895741 44.23568904 1319.13056874 C46.05580501 1318.5251122 46.05580501 1318.5251122 47.912691 1317.90742421 C48.8805302 1317.58955953 48.8805302 1317.58955953 49.86792171 1317.26527333 C62.04765521 1313.25059846 73.87318598 1308.82126373 85.42709529 1303.23213124 C86.09418514 1302.9156664 86.76127498 1302.59920156 87.44857967 1302.27314687 C111.85166158 1290.6716817 133.89512141 1275.8060198 153.84506404 1257.56806874 C155.29963873 1256.25212977 156.76218622 1254.94450667 158.25058162 1253.6669457 C163.02317045 1249.56684491 167.45266133 1245.27360901 171.73959529 1240.66963124 C172.38912166 1239.97273183 173.03864803 1239.27583241 173.70785701 1238.55781484 C179.15425911 1232.64691801 184.22822621 1226.53484823 189.03500545 1220.09541249 C189.99408645 1218.81170393 190.96035349 1217.53334334 191.93246639 1216.25947499 C239.76204589 1153.49896855 255.43351094 1075.78975844 245.61459529 998.44306874 C241.1636627 966.45154084 232.72676305 935.26239901 218.42709529 906.23213124 C218.05004451 905.45498769 217.67299373 904.67784413 217.28451717 903.87715077 C208.19677403 885.29802109 196.66014846 868.10989578 183.42709529 852.23213124 C182.72834285 851.38908437 182.72834285 851.38908437 182.0154742 850.52900624 C168.63908072 834.46104898 154.33027443 818.43430814 138.36068904 804.88838124 C136.12372594 802.97227547 133.96905952 800.97700268 131.80209529 798.98213124 C126.76377249 794.43610258 121.48242861 790.26901372 116.12240779 786.11494374 C113.65521537 784.20094518 111.21483635 782.25945921 108.79428279 780.28681874 C99.62916151 772.81980369 90.19512772 765.88944796 80.42709529 759.23213124 C79.36039608 758.50461659 78.29369686 757.77710195 77.19467342 757.0275414 C52.34441583 740.12073907 26.92459502 724.49149096 0.59408748 709.98115468 C-2.68336216 708.1711293 -5.9531361 706.34785185 -9.22134221 704.52119374 C-21.4465287 697.6940614 -33.72362824 690.97705087 -46.06899846 684.36982656 C-54.2437721 679.98160409 -62.32235806 675.43954716 -70.38247502 670.84492421 C-76.22370694 667.52664189 -82.11075607 664.32739042 -88.07290471 661.23213124 C-97.02608465 656.58014631 -105.79786708 651.63421149 -114.56509221 646.64228749 C-118.5792605 644.35736995 -122.60485608 642.09510453 -126.64321721 639.85322499 C-142.12291737 631.25858083 -157.39860725 622.35480604 -172.57290471 613.23213124 C-173.15358708 612.883037 -173.73426945 612.53394277 -174.33254826 612.17426991 C-191.18790449 602.03432931 -207.94142316 591.7359412 -224.57290471 581.23213124 C-226.1536176 580.23584706 -226.1536176 580.23584706 -227.76626408 579.21943593 C-240.95695993 570.89325374 -253.95959286 562.41080469 -266.57290471 553.23213124 C-267.70454045 552.41712148 -267.70454045 552.41712148 -268.85903752 551.58564687 C-283.83998191 540.79444504 -298.28787723 529.46519564 -311.76431096 516.82978749 C-313.80347361 514.94377475 -315.85598751 513.14362082 -317.97134221 511.34931874 C-324.13565685 505.97763156 -329.83979898 500.11381937 -335.60928166 494.32612538 C-337.63054738 492.29950144 -339.65710044 490.27827577 -341.68423283 488.25752187 C-353.1562442 476.79142773 -353.1562442 476.79142773 -358.1732465 470.87690663 C-360.04675025 468.6753028 -362.01961691 466.57551047 -363.99673283 464.46723866 C-369.80639598 458.27150268 -375.332071 451.92143657 -380.57290471 445.23213124 C-381.24507023 444.38473378 -381.24507023 444.38473378 -381.93081486 443.52021718 C-424.30557264 389.85986401 -439.46893389 322.87848174 -431.97524846 255.50898671 C-426.80483152 213.39895264 -414.99565523 170.90897091 -389.57290471 136.23213124 C-388.89099064 135.27951406 -388.20907658 134.32689687 -387.50649846 133.34541249 C-374.46472345 115.49754508 -359.23752679 98.59729732 -341.57290471 85.23213124 C-341.03939396 84.82220937 -340.50588322 84.41228749 -339.95620549 83.98994374 C-268.81002604 29.47612418 -176.56512262 10.17468988 0 0 Z " fill="#8451A8" transform="translate(443.5729047060013,-0.2321312427520752)"/>
<path d="M0 0 C0.56428711 0.44714355 1.12857422 0.89428711 1.70996094 1.35498047 C9.89377997 7.91602101 17.37270716 15.1773589 24.8125 22.5625 C25.68414795 23.42480225 26.5557959 24.28710449 27.45385742 25.17553711 C33.39137849 31.14243786 38.77096927 37.40805407 44 44 C44.60126709 44.74193604 45.20253418 45.48387207 45.82202148 46.24829102 C54.78227477 57.30910705 62.7409638 68.75710961 70 81 C70.43795898 81.73686035 70.87591797 82.4737207 71.32714844 83.23291016 C85.12572571 106.68840241 94.99093104 131.5389193 101.3125 158 C101.54291992 158.94584961 101.77333984 159.89169922 102.01074219 160.86621094 C106.14008239 179.16021886 107.5070964 197.71827733 107.39111328 216.42724609 C107.37499934 219.50012547 107.39110669 222.57169043 107.41015625 225.64453125 C107.4299763 244.12048709 105.50997119 262.39986236 101.75 280.5 C101.54020508 281.52005127 101.33041016 282.54010254 101.11425781 283.59106445 C95.77290651 308.67730276 87.07297666 332.38352302 75 355 C74.66033203 355.64598145 74.32066406 356.29196289 73.97070312 356.95751953 C64.61064332 374.66232539 52.76698114 390.74926001 39.26171875 405.515625 C37.80758885 407.11290758 36.37099172 408.72642639 34.95703125 410.359375 C24.81136925 422.00880304 13.26803851 432.2676374 0.93554688 441.54003906 C-1.16406552 443.12375275 -3.24525655 444.73027858 -5.328125 446.3359375 C-43.57705621 475.50775024 -89.07960191 494.68301142 -137 500 C-137.75708252 500.0928125 -138.51416504 500.185625 -139.29418945 500.28125 C-148.85121263 501.32217832 -158.46050761 501.24375635 -168.0625 501.25 C-169.46252762 501.25101212 -169.46252762 501.25101212 -170.89083862 501.25204468 C-186.12232459 501.2346 -200.95337331 500.56060105 -216 498 C-217.04349609 497.82307617 -218.08699219 497.64615234 -219.16210938 497.46386719 C-271.23198977 488.34455057 -318.36568073 466.9931287 -357.5234375 431.25390625 C-359.20252205 429.7257804 -360.89580823 428.21314142 -362.6015625 426.71484375 C-367.11797118 422.73740227 -371.31496456 418.72478754 -375.1875 414.1171875 C-376.46092242 412.62969839 -377.77803971 411.17905368 -379.125 409.7578125 C-415.31521395 371.54380369 -440.48568019 320.83510847 -449 269 C-449.24121582 267.62303955 -449.24121582 267.62303955 -449.48730469 266.21826172 C-454.44595991 237.06443623 -453.95697597 205.12822627 -449 176 C-448.82307617 174.95650391 -448.64615234 173.91300781 -448.46386719 172.83789062 C-438.64519038 116.77477225 -414.41475667 68.01752549 -375 27 C-374.53352051 26.51160645 -374.06704102 26.02321289 -373.58642578 25.52001953 C-367.96431595 19.66176928 -362.1364495 14.27858907 -355.78125 9.2265625 C-352.98164911 6.98530898 -350.27816477 4.65437945 -347.5625 2.3125 C-266.89060863 -64.6721296 -149.56768694 -77.59422299 0 0 Z " fill="#775AAD" transform="translate(2053,59)"/>
<path d="M0 0 C0.71326447 -0.00067474 1.42652893 -0.00134949 2.16140747 -0.00204468 C80.89005834 0.11469704 150.61673956 30.06086209 205.83935547 85.34155273 C211.12704215 90.70499606 215.95060672 96.29368027 220.5625 102.25 C221.38492187 103.25546875 222.20734375 104.2609375 223.0546875 105.296875 C235.15301243 120.14815211 245.64133181 136.3080448 254.5625 153.25 C255.06789307 154.19721924 255.06789307 154.19721924 255.58349609 155.16357422 C289.88681522 219.82033197 292.96693668 297.59394409 272.3125 367.0625 C262.33968814 399.04369769 246.55113334 428.21473667 225.5625 454.25 C224.79421875 455.22324219 224.0259375 456.19648437 223.234375 457.19921875 C217.25597518 464.54061852 210.73351932 471.28495723 204.0625 478 C203.1964917 478.87527344 202.3304834 479.75054688 201.43823242 480.65234375 C195.45546624 486.60639806 189.18825752 492.02498151 182.5625 497.25 C181.8303125 497.83088379 181.098125 498.41176758 180.34375 499.01025391 C130.73234076 538.05320216 72.61381902 560.53399885 9.125 560.4375 C8.32681854 560.43656342 7.52863708 560.43562683 6.70626831 560.43466187 C-5.77849964 560.40297503 -18.06600828 560.06357573 -30.4375 558.25 C-31.5198291 558.09402344 -32.6021582 557.93804688 -33.71728516 557.77734375 C-88.81959687 549.59720675 -138.70116878 528.18830253 -179.98046875 490.484375 C-181.59214463 489.01874924 -183.21942582 487.57006451 -184.86328125 486.140625 C-195.89594007 476.498046 -205.25493762 465.57734022 -214.12597656 453.95556641 C-215.38781105 452.31461783 -216.66992545 450.69226703 -217.9609375 449.07421875 C-251.57421142 406.50093963 -274.38631782 351.19739991 -274.640625 296.53125 C-274.65121445 295.02011627 -274.65121445 295.02011627 -274.66201782 293.47845459 C-274.88629344 252.06275537 -274.88629344 252.06275537 -271.4375 233.25 C-271.25477539 232.16654297 -271.07205078 231.08308594 -270.88378906 229.96679688 C-263.14453051 184.64956209 -244.94163487 143.35589824 -216.4375 107.25 C-215.64859375 106.23550781 -214.8596875 105.22101563 -214.046875 104.17578125 C-200.86742873 87.91404513 -185.35676029 72.56263609 -168.4375 60.25 C-167.36463866 59.41639101 -166.29566839 58.57775222 -165.23046875 57.734375 C-118.10976488 20.46436626 -60.06123618 0.05179433 0 0 Z " fill="#9546A0" transform="translate(274.4375,772.75)"/>
</svg>
