<?xml version="1.0" encoding="UTF-8"?>
<svg version="1.1" xmlns="http://www.w3.org/2000/svg" width="2160" height="623">
<path d="M0 0 C2.36641946 0.00028245 4.73283901 0.00012301 7.09925842 -0.0004425 C13.49085449 -0.00072823 19.88243161 0.00513207 26.27402329 0.01213145 C32.28679271 0.01776622 38.29956146 0.01875638 44.31233295 0.01978333 C56.21245729 0.02196556 68.11257472 0.02860307 80.01269531 0.03808594 C91.56445278 0.04728156 103.11620836 0.05435185 114.66796875 0.05859375 C115.38143228 0.05885647 116.09489582 0.0591192 116.82997946 0.05938988 C120.4096383 0.06069503 123.98929715 0.06195871 127.56895602 0.06320179 C157.21028189 0.07354857 186.85160058 0.09121918 216.49291992 0.11352539 C214.00599705 1.77147397 212.134022 2.72287358 209.38745117 3.74243164 C193.36834903 9.8269848 179.40036577 16.67002308 166.49291992 28.11352539 C165.7272168 28.73614258 164.96151367 29.35875977 164.17260742 30.00024414 C140.12842873 49.98120796 128.529613 83.09399718 125.68920898 113.35522461 C122.9025643 152.51382112 131.48755555 191.52355004 157.61987305 221.82519531 C169.28291965 234.86281526 181.65009604 247.64588197 195.85668945 257.91723633 C197.53123153 259.14153596 199.16702314 260.40666794 200.80151367 261.68383789 C224.13235572 279.68484634 251.31037704 293.05174755 277.2746582 306.86010742 C291.2206839 314.27960139 304.941363 321.99575265 318.49291992 330.11352539 C319.40654297 330.6571875 320.32016602 331.20084961 321.26147461 331.76098633 C339.13728342 342.43263268 355.87761522 354.33531536 371.49291992 368.11352539 C372.45713867 368.94368164 373.42135742 369.77383789 374.41479492 370.62915039 C379.92313606 375.4679694 384.71101264 380.50777899 389.24291992 386.26977539 C391.60128633 389.25048849 394.07207011 392.11147377 396.55541992 394.98852539 C407.23145969 407.84942911 413.45812293 421.9717827 418.24291992 437.80102539 C418.44167725 438.45296875 418.64043457 439.10491211 418.84521484 439.77661133 C421.99232012 450.68154021 422.85536927 461.42101561 422.80541992 472.73852539 C422.8026857 473.72347992 422.8026857 473.72347992 422.79989624 474.72833252 C422.74990399 485.45728895 422.12000229 495.70086724 419.49291992 506.11352539 C419.24348633 507.11198486 419.24348633 507.11198486 418.98901367 508.13061523 C413.32219089 529.90065943 402.22907776 548.15728143 386.49291992 564.11352539 C385.66405273 564.9552832 384.83518555 565.79704102 383.98120117 566.66430664 C357.36190929 592.2237186 320.38939132 605.12601781 284.82495117 611.78540039 C283.03716248 612.12450439 283.03716248 612.12450439 281.21325684 612.47045898 C278.30704845 613.02124704 275.40028342 613.56887371 272.49291992 614.11352539 C299.44319453 614.22237817 326.39394066 614.21133676 353.34237671 613.85006714 C355.87456696 613.81771132 358.40682201 613.79004239 360.93911743 613.7673645 C387.62905064 613.51721354 410.92882181 610.15863083 434.49291992 597.11352539 C435.4803418 596.56954102 436.46776367 596.02555664 437.48510742 595.46508789 C463.8035997 579.82656349 481.46072509 551.05305087 489.49291992 522.11352539 C491.6991982 512.90587211 493.07411391 503.57592372 493.49291992 494.11352539 C493.53416992 493.2330957 493.57541992 492.35266602 493.61791992 491.44555664 C494.52711712 451.15675572 480.32420257 415.3365821 452.66479492 386.35571289 C429.4523386 362.46897632 401.49125214 345.10713276 372.49291992 329.11352539 C370.726085 328.13452991 368.95925547 327.15552462 367.19265747 326.17610168 C357.3498453 320.72066702 347.50167766 315.27437635 337.60229492 309.92211914 C324.06263481 302.60127039 310.72395546 294.97888039 297.49291992 287.11352539 C296.51645508 286.533125 295.53999023 285.95272461 294.53393555 285.35473633 C272.94390157 272.47407315 251.31697966 259.28727638 232.75854492 242.19555664 C230.68399956 240.28912099 228.57026061 238.44586929 226.43041992 236.61352539 C219.21475497 230.31436627 212.68204844 223.41153943 206.49291992 216.11352539 C205.70916992 215.21891602 204.92541992 214.32430664 204.11791992 213.40258789 C180.91078141 186.44551541 174.11853184 157.02495321 175.49291992 122.11352539 C175.97987494 115.67417171 177.04096448 109.40152141 178.49291992 103.11352539 C178.65920898 102.39165039 178.82549805 101.66977539 178.99682617 100.92602539 C181.65910563 89.88249578 185.96409483 80.0099576 191.49291992 70.11352539 C192.0369043 69.12739258 192.58088867 68.14125977 193.14135742 67.12524414 C212.42535577 34.62465179 248.99043958 18.12943375 284.11352539 9.05737305 C292.7907059 6.92315307 301.54475841 5.32526136 310.36791992 3.92602539 C311.33366943 3.77109619 312.29941895 3.61616699 313.29443359 3.45654297 C332.51569076 0.58608939 351.72721914 -0.17972504 371.13525391 -0.11352539 C373.50314835 -0.11295947 375.87104314 -0.11328136 378.23893738 -0.1144104 C384.58864426 -0.11497785 390.93827361 -0.10332346 397.28796268 -0.08926249 C403.27522326 -0.07793461 409.26248433 -0.07600741 415.2497536 -0.07395874 C427.08888004 -0.06960867 438.92797853 -0.05637358 450.76708984 -0.03735352 C462.25048688 -0.01892439 473.73387626 -0.00480257 485.21728516 0.00366211 C485.92812145 0.00418756 486.63895775 0.004713 487.37133455 0.00525437 C490.93828701 0.00786492 494.50523952 0.01039223 498.07219207 0.01287818 C527.54578602 0.03352673 557.01935247 0.06882908 586.49291992 0.11352539 C583.83064545 1.88837504 581.50132203 2.87805545 578.50585938 3.91333008 C547.87371828 14.56863398 522.65092724 34.52758802 508.26074219 63.8659668 C491.54983173 99.63769248 490.09737123 141.83705649 502.49291992 179.11352539 C513.6391259 209.27700573 535.31523338 234.52024334 560.49291992 254.11352539 C561.75988762 255.12128684 563.02681182 256.12910296 564.29370117 257.13696289 C585.57785964 273.90507731 609.31669682 286.81312167 633.17242432 299.51156616 C644.11636326 305.33799969 654.92813083 311.37614102 665.6940918 317.52514648 C668.53994182 319.14021106 671.39720255 320.73311939 674.25854492 322.32055664 C692.90103981 332.68656188 711.01973759 343.50902389 727.49291992 357.11352539 C729.20023991 358.44815606 730.90850268 359.78158198 732.61791992 361.11352539 C764.1262995 386.49527561 787.20932176 418.25319617 791.97729492 459.18823242 C795.24898996 491.39398043 787.61184808 525.94221841 767.36791992 551.67602539 C765.7723665 553.51450044 764.14384757 555.32460976 762.49291992 557.11352539 C761.96988281 557.68425781 761.4468457 558.25499023 760.90795898 558.84301758 C720.45199717 602.51523984 657.75557282 615.46213292 600.49291992 618.11352539 C583.65624269 618.66346036 566.79349294 618.50666685 549.95041073 618.4663587 C542.97276163 618.45031085 535.9951424 618.45238735 529.01747937 618.45476778 C516.1484469 618.45867599 503.27946123 618.44881434 490.41044235 618.43071556 C477.6944391 618.41287839 464.9784554 618.40140049 452.26243973 618.39815712 C451.46762748 618.3979509 450.67281523 618.39774468 449.85391776 618.39753221 C445.81639654 618.39651702 441.77887531 618.39561294 437.74135406 618.39475159 C409.2480477 618.38847388 380.75476671 618.36832805 352.26147461 618.33984375 C324.60490045 618.3122281 296.94833326 618.29100794 269.29174805 618.27832031 C268.43713779 618.27792573 267.58252753 618.27753116 266.70201999 618.27712462 C258.11857215 618.27316858 249.53512427 618.26934121 240.95167633 618.26560804 C223.47092717 618.25800228 205.99017845 618.24953853 188.50942993 618.24055481 C187.30419752 618.239937 187.30419752 618.239937 186.07461699 618.23930672 C132.54737399 618.2117703 79.02014542 618.1641796 25.49291992 618.11352539 C27.56848047 616.03796484 28.60571636 615.57930144 31.31713867 614.66821289 C32.47789917 614.26638794 32.47789917 614.26638794 33.66210938 613.85644531 C34.9086731 613.42682495 34.9086731 613.42682495 36.18041992 612.98852539 C70.06436309 600.84446396 96.60826588 576.28851476 112.24291992 543.86352539 C114.91232702 538.06476379 116.93393171 532.08640026 118.80541992 525.98852539 C119.04808594 525.201875 119.29075195 524.41522461 119.54077148 523.60473633 C122.90383531 512.04093413 123.85985045 500.55529061 123.80541992 488.55102539 C123.79978027 487.23763184 123.79414063 485.92423828 123.78833008 484.57104492 C123.42262024 455.02096566 115.51365598 426.80687576 97.49291992 403.11352539 C96.86514648 402.26274414 96.23737305 401.41196289 95.59057617 400.53540039 C84.79723286 386.60023239 71.57428847 373.81457438 57.32543945 363.44995117 C55.31222603 361.98174836 53.32312052 360.48364219 51.33276367 358.98461914 C28.56098752 342.00296208 3.18550673 328.94555048 -21.75708008 315.48852539 C-48.5536433 301.02316283 -75.4805047 286.18144663 -100.81225586 269.2409668 C-102.39689693 268.1868221 -103.99642278 267.15514936 -105.59692383 266.12524414 C-119.59611219 257.04926028 -132.57036922 246.75546082 -144.50708008 235.11352539 C-145.15596191 234.48510742 -145.80484375 233.85668945 -146.47338867 233.20922852 C-154.68198857 225.23416743 -162.57876567 217.24440253 -169.50708008 208.11352539 C-170.51448242 206.83155273 -170.51448242 206.83155273 -171.54223633 205.52368164 C-192.14740797 178.48683792 -196.93880255 146.90550568 -192.88256836 113.79956055 C-188.57504416 82.98591866 -173.4299297 57.44881834 -149.52270508 37.64086914 C-146.2818689 35.27883113 -142.96204247 33.14192805 -139.50708008 31.11352539 C-138.33072998 30.42178223 -138.33072998 30.42178223 -137.13061523 29.71606445 C-106.23597176 11.90805132 -71.71252243 4.55713485 -36.50708008 1.11352539 C-35.66411534 1.02515695 -34.82115061 0.9367885 -33.95264149 0.84574223 C-22.65187732 -0.19234967 -11.33774916 -0.01901195 0 0 Z " fill="#606AB8" transform="translate(198.507080078125,-0.113525390625)"/>
<path d="M0 0 C0.69029297 0.16097168 1.38058594 0.32194336 2.09179688 0.48779297 C24.51377895 5.8858696 43.42399278 17.12192993 60 33 C60.67289063 33.62132812 61.34578125 34.24265625 62.0390625 34.8828125 C83.41742355 55.23910051 98.69779356 85.63031959 100.16113281 115.26293945 C100.63631264 153.17510698 93.86976154 188.12586532 66.63671875 216.30078125 C65.33154297 217.63689453 65.33154297 217.63689453 64 219 C63.28457031 219.77730469 62.56914063 220.55460938 61.83203125 221.35546875 C40.27695868 244.2046545 8.2840191 258.25566241 -22.98828125 259.203125 C-35.58971554 259.38707033 -47.63910049 258.47649153 -60 256 C-60.6707959 255.86609863 -61.3415918 255.73219727 -62.03271484 255.59423828 C-85.21276336 250.72199878 -105.35019267 238.48815871 -122 222 C-122.71285156 221.34773437 -123.42570313 220.69546875 -124.16015625 220.0234375 C-144.00494959 201.52336321 -157.71176698 173.86102036 -161 147 C-161.10957031 146.13761719 -161.21914063 145.27523437 -161.33203125 144.38671875 C-164.8749392 111.74472686 -157.54707911 75.82047934 -137 49.625 C-135.68188572 48.07030111 -134.34847228 46.52844247 -133 45 C-132.30261719 44.18273438 -131.60523438 43.36546875 -130.88671875 42.5234375 C-98.24410064 5.06849736 -48.61279075 -11.73372011 0 0 Z " fill="#5274BE" transform="translate(909,3)"/>
<path d="M0 0 C27.56248861 21.97161734 47.28295269 52.68176216 52.00756836 87.97460938 C52.47755033 93.40496072 52.44622797 98.84125458 52.38256836 104.28710938 C52.37758331 105.00894409 52.37259827 105.73077881 52.36746216 106.4744873 C52.08795596 141.07592081 40.9506408 170.66565696 17.00756836 195.97460938 C15.88608398 197.19277344 15.88608398 197.19277344 14.74194336 198.43554688 C-7.59296305 221.87980294 -39.17363494 236.08247996 -71.50805664 237.17773438 C-108.41557468 237.79182324 -141.45194819 226.5532309 -168.77758789 201.41210938 C-190.19578717 180.68676323 -207.76648151 150.85077978 -209.15356445 120.44213867 C-209.199514 116.18192068 -209.23909599 111.92257973 -209.24243164 107.66210938 C-209.24310638 106.89417053 -209.24378113 106.12623169 -209.24447632 105.33502197 C-209.22897068 94.25877723 -208.89230744 83.72880465 -205.99243164 72.97460938 C-205.75097412 72.02424805 -205.75097412 72.02424805 -205.50463867 71.0546875 C-197.03179152 38.20510909 -175.5187394 10.64287784 -146.63696289 -6.90039062 C-101.68852568 -33.38201643 -42.05056921 -32.19359839 0 0 Z " fill="#705FB0" transform="translate(208.992431640625,386.025390625)"/>
<path d="M0 0 C13.2 0 26.4 0 40 0 C44.49948788 8.99897576 44.49948788 8.99897576 46.10864258 13.05249023 C46.47538086 13.97109329 46.84211914 14.88969635 47.2199707 15.83613586 C47.60757568 16.81704697 47.99518066 17.79795807 48.39453125 18.80859375 C48.81524902 19.86447189 49.2359668 20.92035004 49.66943359 22.00822449 C51.05357619 25.48341695 52.43304753 28.96044348 53.8125 32.4375 C55.5260578 36.74536022 57.24132508 41.05253788 58.95758629 45.35932159 C59.46716362 46.63815232 59.97660387 47.91703767 60.48591042 49.19597626 C64.20013008 58.52168006 67.94602594 67.83410109 71.71958351 77.13595009 C72.52477578 79.12075971 73.32943345 81.10578529 74.13395691 83.09086609 C77.23706613 90.74653416 77.23706613 90.74653416 80.34951782 98.39840698 C81.78497561 101.92293486 83.21520749 105.44954356 84.64453125 108.9765625 C85.28672607 110.54630074 85.28672607 110.54630074 85.94189453 112.14775085 C86.33207764 113.11300186 86.72226074 114.07825287 87.12426758 115.07275391 C87.46428299 115.90835846 87.8042984 116.74396301 88.15461731 117.60488892 C89.01960046 120.0555314 89.5534694 122.44278679 90 125 C90.66 125 91.32 125 92 125 C92.19758911 124.22934204 92.19758911 124.22934204 92.39916992 123.44311523 C94.67956561 115.21829786 97.98491963 107.44658025 101.26245117 99.58279419 C103.07754353 95.22626657 104.87567025 90.86273411 106.67578125 86.5 C107.04212677 85.61317032 107.40847229 84.72634064 107.78591919 83.81263733 C111.24932198 75.41919994 114.63748378 66.99677079 118 58.5625 C118.55988701 57.15974583 119.11978287 55.75699519 119.6796875 54.35424805 C122.17250124 48.10564689 124.6598765 41.85488251 127.14697266 35.60400391 C129.00402135 30.93706531 130.86357001 26.27112831 132.72436523 21.60568237 C133.79678516 18.9144365 134.86620119 16.22200959 135.93554688 13.52954102 C136.58838538 11.89202753 137.24137238 10.25457323 137.89453125 8.6171875 C138.19486771 7.8585994 138.49520416 7.10001129 138.80464172 6.31843567 C140.88614828 1.11385172 140.88614828 1.11385172 142 0 C155.2 0 168.4 0 182 0 C182 57.75 182 115.5 182 175 C171.44 175 160.88 175 150 175 C149.67 138.7 149.34 102.4 149 65 C143.72 78.53 138.44 92.06 133 106 C128.49761628 117.25950821 123.98895222 128.51531543 119.44348145 139.75732422 C118.23208442 142.75518356 117.02315508 145.75403566 115.8142252 148.75289059 C114.63713639 151.67239784 113.45912919 154.59153371 112.28077507 157.51053047 C111.72600897 158.88481611 111.17140629 160.25916773 110.61697578 161.63358879 C109.85822967 163.51380731 109.09821626 165.39351427 108.33813477 167.27319336 C107.90896255 168.33533554 107.47979034 169.39747772 107.03761292 170.49180603 C106.40721294 172.01565504 105.73749846 173.52500307 105 175 C95.76 175 86.52 175 77 175 C62.33333333 138.33333333 47.66666667 101.66666667 33 65 C32.67 101.3 32.34 137.6 32 175 C21.44 175 10.88 175 0 175 C0 117.25 0 59.5 0 0 Z " fill="#E40E7D" transform="translate(1939,344)"/>
<path d="M0 0 C89.99401198 0 89.99401198 0 109.21875 16.95703125 C118.997898 27.09349427 123.83985574 39.90585164 124.3125 53.8125 C123.99984637 68.15778421 119.09541158 80.47973343 109.25390625 90.9375 C101.90992631 97.6578144 93.18755588 101.45815187 84 105 C88.50865283 112.12217373 93.0725654 119.20386331 97.7109375 126.2421875 C98.32337311 127.1724173 98.93580872 128.10264709 99.56680298 129.06106567 C100.852031 131.01252186 102.13771085 132.96368055 103.42382812 134.91455078 C105.36502185 137.85986049 107.30367256 140.80683298 109.2421875 143.75390625 C110.50221109 145.66692563 111.76262129 147.57969042 113.0234375 149.4921875 C113.63096863 150.41384705 114.23849976 151.33550659 114.86444092 152.28509521 C118.9841865 158.5150196 123.20146425 164.66321632 127.54541016 170.73876953 C129 173 129 173 129 175 C97.94666775 178.58852375 97.94666775 178.58852375 89.11376953 173.25830078 C84.29434995 168.25689368 81.66252279 161.99292779 78.83984375 155.72460938 C75.7565543 149.19030673 71.46069909 143.31573454 67.41772461 137.3503418 C65.59496479 134.64994526 63.80344246 131.93001172 62.0213623 129.20263672 C61.18044739 127.9214425 60.33134034 126.64558423 59.47375488 125.37548828 C57.5473286 122.50288424 55.89704468 119.78125172 54.41796875 116.63867188 C52.85885993 113.12889445 52.85885993 113.12889445 49 109 C43.39 108.67 37.78 108.34 32 108 C32 130.11 32 152.22 32 175 C21.44 175 10.88 175 0 175 C0 117.25 0 59.5 0 0 Z M32 29 C32 46.16 32 63.32 32 81 C39.5178125 81.0928125 39.5178125 81.0928125 47.1875 81.1875 C48.73977295 81.21481201 50.2920459 81.24212402 51.89135742 81.27026367 C65.92399642 81.3532548 76.96682677 79.81606044 87.3125 69.75 C91.21383547 63.39226813 92.7224527 56.77845553 91.6328125 49.3828125 C89.78213971 42.41422977 85.01919366 36.84459475 79 33 C71.70391515 29.74031811 64.35921215 28.87056315 56.4140625 28.90234375 C55.12967285 28.90484131 53.8452832 28.90733887 52.52197266 28.90991211 C50.09797119 28.92356812 50.09797119 28.92356812 47.625 28.9375 C39.890625 28.9684375 39.890625 28.9684375 32 29 Z " fill="#CD1F87" transform="translate(1613,344)"/>
<path d="M0 0 C10.56 0 21.12 0 32 0 C32 22.44 32 44.88 32 68 C58.73 68 85.46 68 113 68 C113 45.56 113 23.12 113 0 C123.56 0 134.12 0 145 0 C145 57.75 145 115.5 145 175 C134.44 175 123.88 175 113 175 C113 149.59 113 124.18 113 98 C86.27 98 59.54 98 32 98 C32 123.41 32 148.82 32 175 C21.44 175 10.88 175 0 175 C0 117.25 0 59.5 0 0 Z " fill="#A83897" transform="translate(1830,107)"/>
<path d="M0 0 C10.56 0 21.12 0 32 0 C32 22.44 32 44.88 32 68 C58.73 68 85.46 68 113 68 C113 45.56 113 23.12 113 0 C123.56 0 134.12 0 145 0 C145 57.75 145 115.5 145 175 C134.44 175 123.88 175 113 175 C113 149.59 113 124.18 113 98 C86.27 98 59.54 98 32 98 C32 123.41 32 148.82 32 175 C21.44 175 10.88 175 0 175 C0 117.25 0 59.5 0 0 Z " fill="#8352A8" transform="translate(1296,107)"/>
<path d="M0 0 C11.88 0 23.76 0 36 0 C41.85861279 14.55634807 47.56719848 29.16272307 53.1875 43.8125 C54.05763987 46.07749651 54.92783988 48.34246992 55.7980957 50.60742188 C60.33658006 62.42478274 64.86148832 74.24729829 69.375 86.07421875 C70.0358812 87.80593323 70.0358812 87.80593323 70.71011353 89.57263184 C72.910526 95.33959181 75.1093167 101.10716484 77.30615234 106.87548828 C81.5330098 117.96730522 85.78554231 129.04800932 90.1015625 140.10546875 C90.70539513 141.6553801 90.70539513 141.6553801 91.32142639 143.23660278 C93.21431823 148.09518758 95.11310792 152.95126739 97.02416992 157.80273438 C97.68958969 159.50769571 98.35472757 161.2127671 99.01953125 162.91796875 C99.47720383 164.06847969 99.47720383 164.06847969 99.94412231 165.24223328 C101.30495769 168.75263321 102 171.18219184 102 175 C90.78 175 79.56 175 68 175 C62.36732187 161.48157248 62.36732187 161.48157248 60.32421875 155.5546875 C60.10933304 154.93272491 59.89444733 154.31076233 59.67304993 153.66995239 C59.23027675 152.38542919 58.78935595 151.1002659 58.3503418 149.81445312 C57.67573462 147.8405749 56.99350723 145.86943926 56.31054688 143.8984375 C53 134.26051457 53 134.26051457 53 132 C30.23 132.33 7.46 132.66 -16 133 C-20.95 146.86 -25.9 160.72 -31 175 C-42.55 175 -54.1 175 -66 175 C-65.29205516 171.4602758 -64.60070602 168.64882248 -63.35205078 165.34472656 C-63.01227203 164.44019241 -62.67249329 163.53565826 -62.32241821 162.60371399 C-61.95047333 161.62589462 -61.57852844 160.64807526 -61.1953125 159.640625 C-60.60947891 158.0875489 -60.60947891 158.0875489 -60.0118103 156.50309753 C-58.72038986 153.08379972 -57.4229338 149.66683024 -56.125 146.25 C-55.21540714 143.84777082 -54.30590316 141.44550798 -53.39648438 139.04321289 C-45.592844 118.45678204 -37.63797747 97.92994562 -29.65507507 77.41252136 C-24.80250391 64.93243083 -19.99441378 52.43523076 -15.1875 39.9375 C-14.76662109 38.84412323 -14.34574219 37.75074646 -13.91210938 36.62423706 C-12.70496442 33.48806615 -11.49879937 30.35152021 -10.29296875 27.21484375 C-9.94683029 26.31568237 -9.60069183 25.416521 -9.24406433 24.4901123 C-6.11526297 16.34370749 -3.06446951 8.17191868 0 0 Z M18 35 C14.9262952 42.4853513 12.14358293 50.05302615 9.453125 57.68359375 C9.03705994 58.86091568 8.62099487 60.03823761 8.19232178 61.25123596 C7.32060283 63.72072026 6.45003438 66.19061094 5.58056641 68.66088867 C4.46663444 71.82545646 3.34638047 74.98774765 2.22462845 78.14955044 C1.15078298 81.18025921 0.08362293 84.21332038 -0.984375 87.24609375 C-1.38742859 88.38042343 -1.79048218 89.51475311 -2.20574951 90.68345642 C-2.75697479 92.25638206 -2.75697479 92.25638206 -3.31933594 93.86108398 C-3.80753815 95.24480446 -3.80753815 95.24480446 -4.30560303 96.65647888 C-5.14204799 99.07202564 -5.14204799 99.07202564 -5 102 C10.51 102 26.02 102 42 102 C39.5368783 93.76307539 39.5368783 93.76307539 36.82348633 85.63232422 C36.42329788 84.49189667 36.02310944 83.35146912 35.61079407 82.17648315 C35.18880234 80.98129059 34.76681061 79.78609802 34.33203125 78.5546875 C33.8877144 77.29109597 33.44360083 76.02743295 32.99967957 74.76370239 C31.84272509 71.4718624 30.68305109 68.18098713 29.52276611 64.89031982 C28.33446467 61.51861533 27.14879568 58.14598544 25.96289062 54.7734375 C23.6444714 48.18139466 21.32317165 41.59036943 19 35 C18.67 35 18.34 35 18 35 Z " fill="#B62E91" transform="translate(2058,107)"/>
<path d="M0 0 C11.55 0 23.1 0 35 0 C40.88445447 14.61709239 46.60960035 29.28727374 52.25 44 C53.12413134 46.27723329 53.99840207 48.55441308 54.87280273 50.83154297 C56.22828551 54.36162394 57.58364556 57.89175159 58.9384613 61.42208862 C61.98059198 69.34870817 65.02910528 77.272845 68.08203125 85.1953125 C76.24652572 106.38584428 84.38741066 127.5851714 92.46432495 148.80926514 C93.31742795 151.05087534 94.17104049 153.2922917 95.025177 155.5335083 C96.20083207 158.6193309 97.37423948 161.70599765 98.546875 164.79296875 C98.89892502 165.7162648 99.25097504 166.63956085 99.61369324 167.59083557 C99.93034439 168.42606247 100.24699554 169.26128937 100.57324219 170.12182617 C100.85045105 170.85100754 101.12765991 171.5801889 101.41326904 172.33146667 C102 174 102 174 102 175 C90.45 175 78.9 175 67 175 C61.40285129 161.56684311 56.74400766 147.75762222 52 134 C29.23 134 6.46 134 -17 134 C-21.56374383 146.74438421 -21.56374383 146.74438421 -26.12475586 159.48974609 C-26.69635258 161.08434547 -27.26804215 162.67891158 -27.83984375 164.2734375 C-28.13701294 165.10528564 -28.43418213 165.93713379 -28.74035645 166.79418945 C-29.02447388 167.58575439 -29.30859131 168.37731934 -29.60131836 169.19287109 C-29.84780624 169.88126068 -30.09429413 170.56965027 -30.34825134 171.27890015 C-31 173 -31 173 -32 175 C-43.55 175 -55.1 175 -67 175 C-64.97372466 168.24574887 -62.86431105 161.76880226 -60.2890625 155.23828125 C-59.74917442 153.85421333 -59.74917442 153.85421333 -59.19837952 152.44218445 C-58.41936913 150.44577439 -57.63870126 148.45001045 -56.85653687 146.45483398 C-54.70670958 140.96943152 -52.57059605 135.47869003 -50.43359375 129.98828125 C-49.98637466 128.83997833 -49.53915558 127.69167542 -49.0783844 126.50857544 C-44.22293077 114.02799615 -39.45346972 101.51495726 -34.6875 89 C-27.58836583 70.37161483 -20.46255872 51.75373742 -13.29238892 33.15258789 C-12.31116339 30.60703462 -11.33086509 28.06112754 -10.35140991 25.51489258 C-8.99281312 21.98440245 -7.63158084 18.45494049 -6.26953125 14.92578125 C-5.66324387 13.34861076 -5.66324387 13.34861076 -5.04470825 11.73957825 C-4.67135345 10.77404526 -4.29799866 9.80851227 -3.91333008 8.8137207 C-3.59028397 7.97589554 -3.26723785 7.13807037 -2.93440247 6.27485657 C-2.05708934 4.13898729 -1.03262925 2.0652585 0 0 Z M17 35 C14.68866516 41.52460971 12.37748583 48.04927448 10.06640625 54.57397461 C9.28291201 56.78590086 8.49938433 58.99781526 7.71582031 61.2097168 C7.33780273 62.27681885 6.95978516 63.3439209 6.5703125 64.44335938 C6.19465149 65.50366364 5.81899048 66.5639679 5.4319458 67.65640259 C4.68256655 69.77269196 3.93382423 71.88920698 3.18572998 74.00595093 C1.5051916 78.76005758 -0.18106137 83.51169461 -1.89355469 88.25439453 C-2.17689667 89.04350723 -2.46023865 89.83261993 -2.75216675 90.64564514 C-3.27035722 92.0876697 -3.79217517 93.52839825 -4.31838989 94.96751404 C-5.3322175 97.79838654 -6 99.96528944 -6 103 C9.51 103 25.02 103 41 103 C40.32474321 98.94845929 39.74201196 95.87763349 38.40527344 92.13476562 C38.08113464 91.2194104 37.75699585 90.30405518 37.42303467 89.36096191 C37.07202698 88.38590698 36.72101929 87.41085205 36.359375 86.40625 C35.99531555 85.38253296 35.6312561 84.35881592 35.25616455 83.30407715 C34.09213677 80.03435574 32.92118383 76.76716412 31.75 73.5 C30.97740581 71.33349688 30.20526586 69.16683172 29.43359375 67 C27.61430244 61.89475631 25.78978374 56.79140516 23.96264648 51.68896484 C22.62398065 47.94966342 21.28839019 44.20926679 19.953125 40.46875 C19.56801758 39.39044922 19.18291016 38.31214844 18.78613281 37.20117188 C18.52670898 36.47478516 18.26728516 35.74839844 18 35 C17.67 35 17.34 35 17 35 Z " fill="#DC1581" transform="translate(1821,344)"/>
<path d="M0 0 C10.56 0 21.12 0 32 0 C32.33 24.09 32.66 48.18 33 73 C38.34226153 67.06415386 43.48107085 61.23493516 48.484375 55.05078125 C51.42925052 51.47943376 54.45720087 47.9878836 57.5 44.5 C61.99640886 39.3429813 66.38809641 34.12165388 70.6953125 28.8046875 C73.84166253 24.9757395 77.07093281 21.22066653 80.31274414 17.47241211 C80.77543701 16.93624268 81.23812988 16.40007324 81.71484375 15.84765625 C82.48828125 14.99373291 82.48828125 14.99373291 83.27734375 14.12255859 C85.14332661 11.9234116 85.14332661 11.9234116 86.86328125 8.91259766 C92.26554765 0.77435248 92.26554765 0.77435248 97.20004272 -0.62301636 C103.49893258 -1.49790366 109.79840334 -1.09426039 116.125 -0.75 C118.05452098 -0.68972272 119.9842234 -0.63498458 121.9140625 -0.5859375 C126.61389953 -0.45451461 131.3049308 -0.2480126 136 0 C132.32758731 5.06402975 128.50504574 9.78928883 124.1875 14.3125 C119.63904785 19.15376491 115.37155817 24.13831202 111.2109375 29.3203125 C108.8906505 32.13253315 106.46928866 34.81797263 104 37.5 C100.70668301 41.07792463 97.55348679 44.71539666 94.5 48.5 C91.44651321 52.28460334 88.29331699 55.92207537 85 59.5 C80.10338869 64.82306579 75.53850869 70.3715345 71 76 C69.34160134 78.00712736 67.67210227 80.00426503 66 82 C67.47252857 86.67898131 70.22153243 89.85370456 73.4375 93.4375 C77.66377666 98.25173591 81.7581153 103.12763895 85.6875 108.1875 C89.58073868 113.19289595 93.53449946 118.13681987 97.5625 123.03515625 C105.0555943 132.14935268 112.49730499 141.29947064 119.7409668 150.61352539 C122.37376095 153.98179061 125.06145792 157.29639443 127.796875 160.58203125 C128.76475952 161.74520874 128.76475952 161.74520874 129.75219727 162.93188477 C131.02429784 164.45561316 132.30071124 165.97575317 133.58178711 167.49194336 C134.15678955 168.1803833 134.73179199 168.86882324 135.32421875 169.578125 C135.84072998 170.19075195 136.35724121 170.80337891 136.8894043 171.43457031 C138 173 138 173 138 175 C99.17508666 177.77111453 99.17508666 177.77111453 91.734375 171.89453125 C88.83318782 168.66678434 86.84036163 165.04450664 85.03173828 161.11572266 C83.45565926 157.8837537 81.2672686 155.26827387 79 152.5 C78.2059375 151.4584375 77.411875 150.416875 76.59375 149.34375 C73.63788937 145.50113119 70.56892193 141.7524869 67.5 138 C62.75787101 132.20161954 58.15286088 126.32585012 53.61328125 120.3671875 C50.03069008 115.70911789 46.29109343 111.1759526 42.55273438 106.64257812 C42.03388672 106.01029297 41.51503906 105.37800781 40.98046875 104.7265625 C40.52567139 104.17564941 40.07087402 103.62473633 39.60229492 103.05712891 C37.30653098 100.10968003 35.17152852 97.04013993 33 94 C32.67 120.73 32.34 147.46 32 175 C21.44 175 10.88 175 0 175 C0 117.25 0 59.5 0 0 Z " fill="#9347A1" transform="translate(1538,107)"/>
<path d="M0 0 C10.56 0 21.12 0 32 0 C32.0093457 3.21814453 32.01869141 6.43628906 32.02832031 9.75195312 C32.06223036 20.43692008 32.11785672 31.12169676 32.18390274 41.80651093 C32.22325317 48.27873178 32.25550249 54.75081911 32.27099609 61.22314453 C32.28624471 67.48031545 32.32083499 73.73711894 32.36830902 79.99412537 C32.38303857 82.37003875 32.39103612 84.74600461 32.39188385 87.1219635 C32.40188667 114.0745241 32.40188667 114.0745241 45 137.2421875 C52.56215673 144.61529031 60.5118527 147.33998836 71 147.5 C81.25803293 147.36745171 90.67857334 144.41449564 98 137 C110.45683908 121.93947734 109.60292498 103.7167641 109.609375 85.25390625 C109.62438029 82.78668648 109.6411123 80.31947666 109.65948486 77.85227966 C109.70290652 71.40639751 109.72310145 64.96065081 109.73822021 58.51464844 C109.75788254 51.91788812 109.79984198 45.32127216 109.83984375 38.72460938 C109.91487296 25.8164266 109.96326468 12.9083486 110 0 C120.56 0 131.12 0 142 0 C142.06804913 14.17899495 142.12297311 28.35787964 142.15543652 42.53700161 C142.17102519 49.12246759 142.19213809 55.70781508 142.22631836 62.29321289 C142.25915568 68.66044831 142.276904 75.02757048 142.28463173 81.39488411 C142.29013179 83.81188805 142.30087067 86.2288865 142.31719017 88.6458416 C142.48185806 114.06788742 140.26229307 139.48173832 122.00390625 159.12890625 C115.25293227 165.43244725 107.53353603 170.48398296 99 174 C98.07960938 174.39316406 97.15921875 174.78632812 96.2109375 175.19140625 C78.60129656 181.46183671 56.49688425 179.92695941 39.56640625 172.4921875 C31.99670739 168.72921581 25.91289347 164.01000303 20 158 C19.43796875 157.43667969 18.8759375 156.87335938 18.296875 156.29296875 C-0.1977759 136.2895437 -0.31169645 109.33505174 -0.1953125 83.7890625 C-0.1915758 81.36526609 -0.18873194 78.94146815 -0.18673706 76.51766968 C-0.17915235 70.18188198 -0.15954892 63.84618803 -0.1373291 57.51043701 C-0.11675869 51.02780424 -0.10771154 44.5451561 -0.09765625 38.0625 C-0.07629755 25.37495248 -0.04115823 12.68749875 0 0 Z " fill="#BA2C90" transform="translate(1293,344)"/>
<path d="M0 0 C4.0203473 3.43532214 7.8084024 7.09209857 11.4375 10.9375 C10.10643869 13.89344626 8.652422 15.97038866 6.35546875 18.25 C5.75283203 18.85070312 5.15019531 19.45140625 4.52929688 20.0703125 C3.58666992 20.99457031 3.58666992 20.99457031 2.625 21.9375 C2.00818359 22.55367188 1.39136719 23.16984375 0.75585938 23.8046875 C-6.1690203 30.66333559 -6.1690203 30.66333559 -9.5625 32.9375 C-12.5625 31.9375 -12.5625 31.9375 -14.125 29.8125 C-20.97846535 21.72892548 -31.15137551 16.59951686 -41.5625 14.9375 C-51.76226775 14.24236511 -60.93080155 14.61151331 -69.0625 21.3125 C-72.71925442 24.59458696 -74.22446925 27.73379952 -74.96875 32.5859375 C-75.12996082 37.27448565 -75.17024425 40.9749456 -72.25 44.8125 C-64.62637392 51.95126758 -53.6835421 54.21488036 -43.875 56.8125 C-24.94574407 62.03893006 -5.57047654 68.32405454 6.4375 84.9375 C13.40901292 97.36280412 14.33005738 111.70687551 11.75390625 125.6328125 C7.16378773 140.22215186 -2.02408367 151.07226961 -15.36328125 158.43359375 C-33.19824834 166.81755264 -57.43401658 168.5163063 -76.1953125 162.3203125 C-90.89117416 156.28512105 -104.75436285 148.82819454 -114.5625 135.9375 C-110.59926499 131.0683827 -106.33203936 126.5404761 -101.9375 122.0625 C-101.37522705 121.47895752 -100.8129541 120.89541504 -100.23364258 120.29418945 C-99.6898999 119.74593506 -99.14615723 119.19768066 -98.5859375 118.6328125 C-97.85769775 117.8905542 -97.85769775 117.8905542 -97.11474609 117.13330078 C-95.26721639 115.71002294 -93.86926609 115.23013411 -91.5625 114.9375 C-89.80859375 116.34375 -89.80859375 116.34375 -88 118.4375 C-78.45060331 128.51546108 -66.64854949 133.86356779 -52.79052734 134.40795898 C-42.34529718 134.53909333 -32.7576813 133.09733305 -24.93359375 125.5546875 C-20.6096996 120.45470979 -19.99730312 115.02774697 -20.2265625 108.58203125 C-20.86030122 103.59318113 -22.60966168 100.71081731 -26.3046875 97.35546875 C-34.26679674 91.42144394 -44.15170383 89.11098558 -53.6015625 86.57421875 C-71.81633095 81.65834888 -92.16046756 75.54001607 -102.34765625 58.20703125 C-102.74855469 57.45808594 -103.14945313 56.70914063 -103.5625 55.9375 C-103.97371094 55.26074219 -104.38492187 54.58398438 -104.80859375 53.88671875 C-109.93953088 43.8911561 -109.15753536 28.86878133 -106.0625 18.3125 C-100.39191057 4.34494287 -89.57923694 -5.48076452 -76.06640625 -11.5859375 C-51.10490646 -22.10483039 -21.09832036 -16.46308331 0 0 Z " fill="#AE3495" transform="translate(1258.5625,357.0625)"/>
<path d="M0 0 C10.18392358 8.01622445 10.18392358 8.01622445 13.44970703 12.82080078 C12.08825396 15.95688423 10.65458914 17.73533528 8.01220703 19.88330078 C2.49793913 24.53437757 -2.49586611 29.68275289 -7.55029297 34.82080078 C-8.51966797 33.97517578 -9.48904297 33.12955078 -10.48779297 32.25830078 C-11.84185711 31.1123463 -13.196031 29.96652148 -14.55029297 28.82080078 C-15.21416016 28.23298828 -15.87802734 27.64517578 -16.56201172 27.03955078 C-26.43814465 18.71512081 -38.3387462 14.96483289 -51.20654297 16.04345703 C-58.80380169 17.251046 -65.96561636 20.07551374 -70.61279297 26.44580078 C-73.31770976 31.40481489 -73.40349902 36.32142318 -72.55029297 41.82080078 C-70.26672344 47.87226003 -65.57013681 49.6017124 -60.06298828 52.29370117 C-54.06802198 54.89993652 -47.83686319 56.63254011 -41.55029297 58.38330078 C-2.38399663 69.39943885 -2.38399663 69.39943885 7.49414062 85.52587891 C14.7272828 98.46253717 16.81096267 112.08885799 13.76611328 126.77783203 C11.80700923 133.63063167 8.81313494 139.21700757 4.44970703 144.82080078 C4.04494141 145.41119141 3.64017578 146.00158203 3.22314453 146.60986328 C-5.57128321 158.42568952 -20.97911722 163.91432284 -34.92919922 166.43017578 C-57.13814572 168.82596289 -79.27877913 165.4093933 -97.55029297 151.82080078 C-102.81543273 147.43695051 -107.78667229 142.74320882 -112.55029297 137.82080078 C-111.18883989 134.68471733 -109.75517508 132.90626628 -107.11279297 130.75830078 C-101.59852507 126.10722399 -96.60471983 120.95884868 -91.55029297 115.82080078 C-87.73975565 117.58626985 -85.53149267 119.83960108 -82.55029297 122.82080078 C-72.09106026 132.40294899 -59.73002021 136.19199662 -45.71044922 136.03564453 C-37.60554991 135.4846316 -29.83257005 133.11035955 -23.55029297 127.82080078 C-18.47670268 121.31619785 -17.93940343 115.84304832 -18.55029297 107.82080078 C-20.32413518 102.29058684 -23.68534664 98.82608214 -28.55029297 95.82080078 C-36.56452044 92.11964893 -44.94717691 89.67673048 -53.43530273 87.31445312 C-72.29974146 82.05387839 -90.78607692 74.98711269 -101.87060547 57.77001953 C-107.38367985 46.92763991 -107.70595592 33.37000986 -104.55029297 21.82080078 C-98.67416528 6.83035675 -89.62165996 -3.28374163 -74.86279297 -9.92919922 C-49.91405649 -19.60841452 -21.4314086 -16.30137064 0 0 Z " fill="#9D409C" transform="translate(1790.55029296875,118.17919921875)"/>
<path d="M0 0 C2.44749304 2.24809664 4.44441103 4.59838925 6.4453125 7.24609375 C4.87350411 11.31374335 1.95391349 13.75248737 -1.2421875 16.55859375 C-2.3253315 17.52870695 -3.4073659 18.50006047 -4.48828125 19.47265625 C-5.27501221 20.17890137 -5.27501221 20.17890137 -6.07763672 20.89941406 C-9.01230233 23.57505299 -11.77908911 26.40741358 -14.5546875 29.24609375 C-15.5240625 28.40046875 -16.4934375 27.55484375 -17.4921875 26.68359375 C-18.84625164 25.53763926 -20.20042553 24.39181445 -21.5546875 23.24609375 C-22.21855469 22.65828125 -22.88242188 22.07046875 -23.56640625 21.46484375 C-33.48534897 13.10433011 -45.27790228 9.51094369 -58.17578125 10.43359375 C-65.33803859 11.50625632 -71.98643219 14.56748002 -77.0703125 19.80859375 C-80.44427433 24.75073503 -80.3570277 30.49017492 -79.5546875 36.24609375 C-77.26266612 42.3199504 -72.51494662 44.05698981 -66.98730469 46.7590332 C-61.41690292 49.17221365 -55.66921617 50.66130841 -49.8046875 52.18359375 C-30.53856383 57.45178309 -8.4831061 64.3571006 2.2578125 82.68359375 C6.42547655 90.37195596 7.98360349 97.80887038 7.8828125 106.49609375 C7.87523926 107.41487305 7.86766602 108.33365234 7.85986328 109.28027344 C7.58140759 120.84533101 4.56528862 130.10216502 -2.5546875 139.24609375 C-2.95945312 139.83648437 -3.36421875 140.426875 -3.78125 141.03515625 C-11.80597231 151.81683838 -26.24742371 157.87584161 -38.9921875 160.49609375 C-62.3504612 163.86332541 -84.95649142 159.81601588 -104.5546875 146.24609375 C-108.76917542 142.81095459 -112.67932615 139.05474309 -116.5546875 135.24609375 C-117.16183594 134.6840625 -117.76898437 134.12203125 -118.39453125 133.54296875 C-119.5546875 132.24609375 -119.5546875 132.24609375 -119.5546875 130.24609375 C-118.26171875 128.9765625 -118.26171875 128.9765625 -116.3671875 127.43359375 C-110.05945871 122.09191351 -104.35458787 116.12556592 -98.5546875 110.24609375 C-95.27241727 111.66310909 -93.32574979 113.36552324 -90.9296875 115.99609375 C-81.12461766 126.01945828 -69.09639845 130.04678872 -55.3046875 130.49609375 C-46.32028064 130.38517515 -37.53244246 128.12123177 -30.5546875 122.24609375 C-25.48109722 115.74149082 -24.94379796 110.26834128 -25.5546875 102.24609375 C-27.32852971 96.7158798 -30.68974117 93.25137511 -35.5546875 90.24609375 C-43.56891497 86.5449419 -51.95157144 84.10202345 -60.43969727 81.73974609 C-78.72426699 76.64087478 -95.86076184 70.01085385 -107.5546875 54.24609375 C-113.75609482 43.09428347 -114.18157808 29.97552378 -111.87109375 17.578125 C-109.84836813 11.09029553 -106.67962745 5.61882803 -102.5546875 0.24609375 C-101.95527344 -0.56988281 -101.35585937 -1.38585937 -100.73828125 -2.2265625 C-74.3041292 -32.82208375 -27.27292928 -22.3033722 0 0 Z " fill="#785AAD" transform="translate(1263.5546875,123.75390625)"/>
<path d="M0 0 C45.87 0 91.74 0 139 0 C139 9.9 139 19.8 139 30 C121.51 30 104.02 30 86 30 C86 77.85 86 125.7 86 175 C75.44 175 64.88 175 54 175 C54 127.15 54 79.3 54 30 C36.18 30 18.36 30 0 30 C0 20.1 0 10.2 0 0 Z " fill="#BE298E" transform="translate(1454,344)"/>
<path d="M0 0 C10.23 0 20.46 0 31 0 C31 57.75 31 115.5 31 175 C20.77 175 10.54 175 0 175 C0 117.25 0 59.5 0 0 Z " fill="#8B4CA4" transform="translate(1474,107)"/>
</svg>
