<svg xmlns="http://www.w3.org/2000/svg" xmlns:xlink="http://www.w3.org/1999/xlink" width="1024" zoomAndPan="magnify" viewBox="0 0 768 767.999994" height="1024" preserveAspectRatio="xMidYMid meet" version="1.0"><rect x="-76.8" width="921.6" fill="#ffffff" y="-76.799999" height="921.599993" fill-opacity="1"/><rect x="-76.8" width="921.6" fill="#f4f5f7" y="-76.799999" height="921.599993" fill-opacity="1"/><path fill="#dce5f0" d="M 768 768 L 718.453125 768 L 718.453125 148.644531 L 768 148.644531 Z M 768 768 " fill-opacity="1" fill-rule="nonzero"/><path fill="#c7d1e1" d="M 61.933594 148.644531 L 718.453125 148.644531 L 718.453125 768 L 61.933594 768 Z M 61.933594 148.644531 " fill-opacity="1" fill-rule="nonzero"/><path fill="#7399f4" d="M 718.453125 49.546875 L 768 49.546875 L 768 148.644531 L 718.453125 148.644531 Z M 718.453125 49.546875 " fill-opacity="1" fill-rule="nonzero"/><path fill="#7ea8f8" d="M 61.933594 49.546875 L 718.453125 49.546875 L 718.453125 148.644531 L 61.933594 148.644531 Z M 61.933594 49.546875 " fill-opacity="1" fill-rule="nonzero"/><path fill="#effbff" d="M 61.933594 148.644531 L 718.453125 148.644531 L 718.453125 668.902344 C 718.453125 696.238281 696.238281 718.453125 668.902344 718.453125 L 61.933594 718.453125 Z M 61.933594 148.644531 " fill-opacity="1" fill-rule="nonzero"/><path fill="#ffcd42" d="M 142.453125 99.097656 C 132.210938 99.097656 123.871094 90.796875 123.871094 80.515625 L 123.871094 18.582031 C 123.871094 8.300781 132.210938 0 142.453125 0 C 152.691406 0 161.03125 8.300781 161.03125 18.582031 L 161.03125 80.515625 C 161.03125 90.796875 152.691406 99.097656 142.453125 99.097656 Z M 142.453125 99.097656 " fill-opacity="1" fill-rule="nonzero"/><path fill="#ffcd42" d="M 241.546875 99.097656 C 231.308594 99.097656 222.96875 90.796875 222.96875 80.515625 L 222.96875 18.582031 C 222.96875 8.300781 231.308594 0 241.546875 0 C 251.789062 0 260.128906 8.300781 260.128906 18.582031 L 260.128906 80.515625 C 260.128906 90.796875 251.789062 99.097656 241.546875 99.097656 Z M 241.546875 99.097656 " fill-opacity="1" fill-rule="nonzero"/><path fill="#ffcd42" d="M 340.644531 99.097656 C 330.40625 99.097656 322.066406 90.796875 322.066406 80.515625 L 322.066406 18.582031 C 322.066406 8.300781 330.40625 0 340.644531 0 C 350.886719 0 359.226562 8.300781 359.226562 18.582031 L 359.226562 80.515625 C 359.226562 90.796875 350.886719 99.097656 340.644531 99.097656 Z M 340.644531 99.097656 " fill-opacity="1" fill-rule="nonzero"/><path fill="#ffcd42" d="M 439.742188 99.097656 C 429.5 99.097656 421.160156 90.796875 421.160156 80.515625 L 421.160156 18.582031 C 421.160156 8.300781 429.5 0 439.742188 0 C 449.980469 0 458.324219 8.300781 458.324219 18.582031 L 458.324219 80.515625 C 458.324219 90.796875 449.980469 99.097656 439.742188 99.097656 Z M 439.742188 99.097656 " fill-opacity="1" fill-rule="nonzero"/><path fill="#ffcd42" d="M 538.839844 99.097656 C 528.597656 99.097656 520.257812 90.796875 520.257812 80.515625 L 520.257812 18.582031 C 520.257812 8.300781 528.597656 0 538.839844 0 C 549.078125 0 557.417969 8.300781 557.417969 18.582031 L 557.417969 80.515625 C 557.417969 90.796875 549.078125 99.097656 538.839844 99.097656 Z M 538.839844 99.097656 " fill-opacity="1" fill-rule="nonzero"/><path fill="#ffcd42" d="M 637.933594 99.097656 C 627.695312 99.097656 619.355469 90.796875 619.355469 80.515625 L 619.355469 18.582031 C 619.355469 8.300781 627.695312 0 637.933594 0 C 648.175781 0 656.515625 8.300781 656.515625 18.582031 L 656.515625 80.515625 C 656.515625 90.796875 648.175781 99.097656 637.933594 99.097656 Z M 637.933594 99.097656 " fill-opacity="1" fill-rule="nonzero"/><path fill="#ffcd42" d="M 569.804688 198.195312 L 668.902344 198.195312 L 668.902344 260.128906 L 569.804688 260.128906 Z M 569.804688 198.195312 " fill-opacity="1" fill-rule="nonzero"/><path fill="#7ea8f8" d="M 470.710938 198.195312 L 569.804688 198.195312 L 569.804688 260.128906 L 470.710938 260.128906 Z M 470.710938 198.195312 " fill-opacity="1" fill-rule="nonzero"/><path fill="#86e885" d="M 371.613281 198.195312 L 470.710938 198.195312 L 470.710938 260.128906 L 371.613281 260.128906 Z M 371.613281 198.195312 " fill-opacity="1" fill-rule="nonzero"/><path fill="#7ea8f8" d="M 594.582031 309.675781 L 668.902344 309.675781 L 668.902344 371.613281 L 594.582031 371.613281 Z M 594.582031 309.675781 " fill-opacity="1" fill-rule="nonzero"/><path fill="#ffcd42" d="M 445.933594 309.675781 L 594.582031 309.675781 L 594.582031 371.613281 L 445.933594 371.613281 Z M 445.933594 309.675781 " fill-opacity="1" fill-rule="nonzero"/><path fill="#fa646e" d="M 371.613281 309.675781 L 445.933594 309.675781 L 445.933594 371.613281 L 371.613281 371.613281 Z M 371.613281 309.675781 " fill-opacity="1" fill-rule="nonzero"/><path fill="#fa646e" d="M 532.644531 421.160156 L 668.902344 421.160156 L 668.902344 483.097656 L 532.644531 483.097656 Z M 532.644531 421.160156 " fill-opacity="1" fill-rule="nonzero"/><path fill="#86e885" d="M 483.097656 421.160156 L 532.644531 421.160156 L 532.644531 483.097656 L 483.097656 483.097656 Z M 483.097656 421.160156 " fill-opacity="1" fill-rule="nonzero"/><path fill="#7ea8f8" d="M 371.613281 421.160156 L 483.097656 421.160156 L 483.097656 483.097656 L 371.613281 483.097656 Z M 371.613281 421.160156 " fill-opacity="1" fill-rule="nonzero"/><path fill="#86e885" d="M 545.03125 532.644531 L 668.902344 532.644531 L 668.902344 594.582031 L 545.03125 594.582031 Z M 545.03125 532.644531 " fill-opacity="1" fill-rule="nonzero"/><path fill="#ffcd42" d="M 421.160156 532.644531 L 545.03125 532.644531 L 545.03125 594.582031 L 421.160156 594.582031 Z M 421.160156 532.644531 " fill-opacity="1" fill-rule="nonzero"/><path fill="#fa646e" d="M 371.613281 532.644531 L 421.160156 532.644531 L 421.160156 594.582031 L 371.613281 594.582031 Z M 371.613281 532.644531 " fill-opacity="1" fill-rule="nonzero"/><path fill="#b4d1ff" d="M 123.871094 198.195312 L 322.066406 198.195312 L 322.066406 309.675781 L 123.871094 309.675781 Z M 123.871094 198.195312 " fill-opacity="1" fill-rule="nonzero"/><path fill="#effbff" d="M 297.289062 520.257812 C 297.289062 522.488281 297.234375 524.714844 297.125 526.945312 C 297.015625 529.171875 296.851562 531.394531 296.632812 533.613281 C 296.414062 535.832031 296.144531 538.046875 295.816406 540.25 C 295.488281 542.457031 295.105469 544.652344 294.671875 546.839844 C 294.238281 549.027344 293.75 551.203125 293.207031 553.367188 C 292.664062 555.527344 292.070312 557.675781 291.421875 559.8125 C 290.777344 561.945312 290.078125 564.0625 289.324219 566.160156 C 288.574219 568.261719 287.773438 570.339844 286.917969 572.402344 C 286.066406 574.460938 285.160156 576.5 284.207031 578.515625 C 283.253906 580.53125 282.253906 582.523438 281.199219 584.488281 C 280.148438 586.457031 279.050781 588.394531 277.90625 590.308594 C 276.757812 592.222656 275.566406 594.105469 274.328125 595.957031 C 273.085938 597.8125 271.804688 599.636719 270.476562 601.425781 C 269.148438 603.21875 267.777344 604.976562 266.359375 606.699219 C 264.945312 608.421875 263.492188 610.109375 261.992188 611.761719 C 260.496094 613.414062 258.957031 615.03125 257.382812 616.605469 C 255.804688 618.183594 254.191406 619.722656 252.539062 621.21875 C 250.886719 622.714844 249.195312 624.171875 247.472656 625.585938 C 245.75 627 243.992188 628.375 242.199219 629.703125 C 240.410156 631.03125 238.585938 632.3125 236.734375 633.550781 C 234.878906 634.792969 232.996094 635.984375 231.082031 637.128906 C 229.171875 638.277344 227.230469 639.375 225.265625 640.425781 C 223.296875 641.476562 221.304688 642.480469 219.289062 643.433594 C 217.273438 644.386719 215.234375 645.289062 213.175781 646.144531 C 211.117188 646.996094 209.035156 647.800781 206.9375 648.550781 C 204.835938 649.300781 202.71875 650 200.585938 650.648438 C 198.453125 651.296875 196.304688 651.890625 194.140625 652.433594 C 191.976562 652.972656 189.800781 653.460938 187.613281 653.898438 C 185.429688 654.332031 183.230469 654.714844 181.027344 655.042969 C 178.820312 655.367188 176.605469 655.640625 174.386719 655.859375 C 172.167969 656.078125 169.945312 656.242188 167.71875 656.351562 C 165.492188 656.460938 163.261719 656.515625 161.03125 656.515625 C 158.800781 656.515625 156.574219 656.460938 154.347656 656.351562 C 152.117188 656.242188 149.894531 656.078125 147.675781 655.859375 C 145.457031 655.640625 143.246094 655.367188 141.039062 655.042969 C 138.832031 654.714844 136.636719 654.332031 134.449219 653.898438 C 132.261719 653.460938 130.085938 652.972656 127.925781 652.433594 C 125.761719 651.890625 123.613281 651.296875 121.480469 650.648438 C 119.34375 650 117.226562 649.300781 115.128906 648.550781 C 113.027344 647.800781 110.949219 646.996094 108.886719 646.144531 C 106.828125 645.289062 104.789062 644.386719 102.773438 643.433594 C 100.757812 642.480469 98.765625 641.476562 96.800781 640.425781 C 94.835938 639.375 92.894531 638.277344 90.980469 637.128906 C 89.070312 635.984375 87.183594 634.792969 85.332031 633.550781 C 83.476562 632.3125 81.65625 631.03125 79.863281 629.703125 C 78.074219 628.375 76.316406 627 74.589844 625.585938 C 72.867188 624.171875 71.179688 622.714844 69.527344 621.21875 C 67.875 619.722656 66.261719 618.183594 64.683594 616.605469 C 63.105469 615.03125 61.570312 613.414062 60.070312 611.761719 C 58.574219 610.109375 57.117188 608.421875 55.703125 606.699219 C 54.289062 604.976562 52.917969 603.21875 51.589844 601.425781 C 50.261719 599.636719 48.976562 597.8125 47.738281 595.957031 C 46.5 594.105469 45.304688 592.222656 44.160156 590.308594 C 43.011719 588.394531 41.914062 586.457031 40.863281 584.488281 C 39.8125 582.523438 38.808594 580.53125 37.855469 578.515625 C 36.902344 576.5 36 574.460938 35.144531 572.402344 C 34.292969 570.339844 33.492188 568.261719 32.738281 566.160156 C 31.988281 564.0625 31.289062 561.945312 30.640625 559.8125 C 29.992188 557.675781 29.398438 555.527344 28.859375 553.367188 C 28.316406 551.203125 27.828125 549.027344 27.390625 546.839844 C 26.957031 544.652344 26.578125 542.457031 26.25 540.25 C 25.921875 538.046875 25.648438 535.832031 25.429688 533.613281 C 25.210938 531.394531 25.046875 529.171875 24.9375 526.945312 C 24.828125 524.714844 24.773438 522.488281 24.773438 520.257812 C 24.773438 518.027344 24.828125 515.800781 24.9375 513.570312 C 25.046875 511.34375 25.210938 509.121094 25.429688 506.902344 C 25.648438 504.683594 25.921875 502.46875 26.25 500.265625 C 26.578125 498.058594 26.957031 495.863281 27.390625 493.675781 C 27.828125 491.488281 28.316406 489.3125 28.859375 487.148438 C 29.398438 484.988281 29.992188 482.839844 30.640625 480.703125 C 31.289062 478.570312 31.988281 476.453125 32.738281 474.355469 C 33.492188 472.253906 34.292969 470.175781 35.144531 468.113281 C 36 466.054688 36.902344 464.015625 37.855469 462 C 38.808594 459.984375 39.8125 457.992188 40.863281 456.027344 C 41.914062 454.058594 43.011719 452.121094 44.160156 450.207031 C 45.304688 448.292969 46.5 446.410156 47.738281 444.558594 C 48.976562 442.703125 50.261719 440.878906 51.589844 439.089844 C 52.917969 437.296875 54.289062 435.539062 55.703125 433.816406 C 57.117188 432.09375 58.574219 430.40625 60.070312 428.753906 C 61.570312 427.101562 63.105469 425.484375 64.683594 423.910156 C 66.261719 422.332031 67.875 420.796875 69.527344 419.296875 C 71.179688 417.800781 72.867188 416.34375 74.589844 414.929688 C 76.316406 413.515625 78.074219 412.144531 79.863281 410.816406 C 81.65625 409.484375 83.476562 408.203125 85.332031 406.964844 C 87.183594 405.726562 89.070312 404.53125 90.980469 403.386719 C 92.894531 402.238281 94.835938 401.140625 96.800781 400.089844 C 98.765625 399.039062 100.757812 398.035156 102.773438 397.082031 C 104.789062 396.128906 106.828125 395.226562 108.886719 394.371094 C 110.949219 393.519531 113.027344 392.714844 115.128906 391.964844 C 117.226562 391.214844 119.34375 390.515625 121.480469 389.867188 C 123.613281 389.21875 125.761719 388.625 127.925781 388.082031 C 130.085938 387.542969 132.261719 387.054688 134.449219 386.617188 C 136.636719 386.183594 138.832031 385.800781 141.039062 385.476562 C 143.246094 385.148438 145.457031 384.875 147.675781 384.65625 C 149.894531 384.4375 152.117188 384.273438 154.347656 384.164062 C 156.574219 384.054688 158.800781 384 161.03125 384 C 163.261719 384 165.492188 384.054688 167.71875 384.164062 C 169.945312 384.273438 172.167969 384.4375 174.386719 384.65625 C 176.605469 384.875 178.820312 385.148438 181.027344 385.476562 C 183.230469 385.800781 185.429688 386.183594 187.613281 386.617188 C 189.800781 387.054688 191.976562 387.542969 194.140625 388.082031 C 196.304688 388.625 198.453125 389.21875 200.585938 389.867188 C 202.71875 390.515625 204.835938 391.214844 206.9375 391.964844 C 209.035156 392.714844 211.117188 393.519531 213.175781 394.371094 C 215.234375 395.226562 217.273438 396.128906 219.289062 397.082031 C 221.304688 398.035156 223.296875 399.039062 225.265625 400.089844 C 227.230469 401.140625 229.171875 402.238281 231.082031 403.386719 C 232.996094 404.53125 234.878906 405.726562 236.734375 406.964844 C 238.585938 408.203125 240.410156 409.484375 242.199219 410.816406 C 243.992188 412.144531 245.75 413.515625 247.472656 414.929688 C 249.195312 416.34375 250.886719 417.800781 252.539062 419.296875 C 254.191406 420.796875 255.804688 422.332031 257.382812 423.910156 C 258.957031 425.484375 260.496094 427.101562 261.992188 428.753906 C 263.492188 430.40625 264.945312 432.09375 266.359375 433.816406 C 267.777344 435.539062 269.148438 437.296875 270.476562 439.089844 C 271.804688 440.878906 273.085938 442.703125 274.328125 444.558594 C 275.566406 446.410156 276.757812 448.292969 277.90625 450.207031 C 279.050781 452.121094 280.148438 454.058594 281.199219 456.027344 C 282.253906 457.992188 283.253906 459.984375 284.207031 462 C 285.160156 464.015625 286.066406 466.054688 286.917969 468.113281 C 287.773438 470.175781 288.574219 472.253906 289.324219 474.355469 C 290.078125 476.453125 290.777344 478.570312 291.421875 480.703125 C 292.070312 482.839844 292.664062 484.988281 293.207031 487.148438 C 293.75 489.3125 294.238281 491.488281 294.671875 493.675781 C 295.105469 495.863281 295.488281 498.058594 295.816406 500.265625 C 296.144531 502.46875 296.414062 504.683594 296.632812 506.902344 C 296.851562 509.121094 297.015625 511.34375 297.125 513.570312 C 297.234375 515.800781 297.289062 518.027344 297.289062 520.257812 Z M 297.289062 520.257812 " fill-opacity="1" fill-rule="nonzero"/><path fill="#636d84" d="M 294.195312 529.546875 L 266.324219 529.546875 C 261.203125 529.546875 257.03125 525.378906 257.03125 520.257812 C 257.03125 515.136719 261.203125 510.96875 266.324219 510.96875 L 294.195312 510.96875 Z M 294.195312 529.546875 " fill-opacity="1" fill-rule="nonzero"/><path fill="#636d84" d="M 55.742188 529.546875 L 27.871094 529.546875 L 27.871094 510.96875 L 55.742188 510.96875 C 60.863281 510.96875 65.03125 515.136719 65.03125 520.257812 C 65.03125 525.378906 60.863281 529.546875 55.742188 529.546875 Z M 55.742188 529.546875 " fill-opacity="1" fill-rule="nonzero"/><path fill="#636d84" d="M 228.914062 452.375 C 225.28125 448.742188 225.28125 442.878906 228.914062 439.246094 L 248.609375 419.550781 L 261.738281 432.679688 L 242.042969 452.375 C 238.410156 456.011719 232.546875 456.011719 228.914062 452.375 Z M 228.914062 452.375 " fill-opacity="1" fill-rule="nonzero"/><path fill="#636d84" d="M 73.457031 621.007812 L 60.324219 607.875 L 80.019531 588.179688 C 83.652344 584.546875 89.515625 584.546875 93.152344 588.179688 C 96.785156 591.8125 96.785156 597.675781 93.152344 601.3125 Z M 73.457031 621.007812 " fill-opacity="1" fill-rule="nonzero"/><path fill="#636d84" d="M 161.03125 424.257812 C 155.914062 424.257812 151.742188 420.085938 151.742188 414.96875 L 151.742188 387.097656 L 170.324219 387.097656 L 170.324219 414.96875 C 170.324219 420.085938 166.152344 424.257812 161.03125 424.257812 Z M 161.03125 424.257812 " fill-opacity="1" fill-rule="nonzero"/><path fill="#636d84" d="M 170.324219 653.417969 L 151.742188 653.417969 L 151.742188 625.546875 C 151.742188 620.429688 155.914062 616.257812 161.03125 616.257812 C 166.152344 616.257812 170.324219 620.429688 170.324219 625.546875 Z M 170.324219 653.417969 " fill-opacity="1" fill-rule="nonzero"/><path fill="#636d84" d="M 80.019531 452.375 L 60.324219 432.679688 L 73.457031 419.550781 L 93.152344 439.246094 C 96.785156 442.878906 96.785156 448.742188 93.152344 452.375 C 89.515625 456.011719 83.652344 456.011719 80.019531 452.375 Z M 80.019531 452.375 " fill-opacity="1" fill-rule="nonzero"/><path fill="#636d84" d="M 248.609375 621.007812 L 228.914062 601.3125 C 225.28125 597.675781 225.28125 591.8125 228.914062 588.179688 C 232.546875 584.546875 238.410156 584.546875 242.042969 588.179688 L 261.738281 607.875 Z M 248.609375 621.007812 " fill-opacity="1" fill-rule="nonzero"/><path fill="#bbc6db" d="M 161.03125 359.226562 C 72.09375 359.226562 0 431.320312 0 520.257812 C 0 609.199219 72.09375 681.289062 161.03125 681.289062 C 249.972656 681.289062 322.066406 609.199219 322.066406 520.257812 C 322.066406 431.320312 249.972656 359.226562 161.03125 359.226562 Z M 161.03125 644.128906 C 92.613281 644.128906 37.160156 588.675781 37.160156 520.257812 C 37.160156 451.839844 92.613281 396.386719 161.03125 396.386719 C 229.449219 396.386719 284.902344 451.839844 284.902344 520.257812 C 284.902344 588.675781 229.449219 644.128906 161.03125 644.128906 Z M 161.03125 644.128906 " fill-opacity="1" fill-rule="nonzero"/><path fill="#fa646e" d="M 161.03125 529.546875 L 117.675781 529.546875 C 112.558594 529.546875 108.386719 525.378906 108.386719 520.257812 C 108.386719 515.136719 112.558594 510.96875 117.675781 510.96875 L 151.742188 510.96875 L 151.742188 458.324219 C 151.742188 453.203125 155.914062 449.03125 161.03125 449.03125 C 166.152344 449.03125 170.324219 453.203125 170.324219 458.324219 L 170.324219 520.257812 C 170.324219 525.378906 166.152344 529.546875 161.03125 529.546875 Z M 161.03125 529.546875 " fill-opacity="1" fill-rule="nonzero"/><path fill="#dce5f0" d="M 0 644.128906 L 619.355469 644.128906 L 619.355469 668.902344 C 619.355469 696.277344 641.527344 718.453125 668.902344 718.453125 L 49.546875 718.453125 C 22.171875 718.453125 0 696.277344 0 668.902344 Z M 0 644.128906 " fill-opacity="1" fill-rule="nonzero"/></svg>