<svg xmlns="http://www.w3.org/2000/svg" xmlns:xlink="http://www.w3.org/1999/xlink" width="1024" zoomAndPan="magnify" viewBox="0 0 768 767.999994" height="1024" preserveAspectRatio="xMidYMid meet" version="1.0"><rect x="-76.8" width="921.6" fill="#ffffff" y="-76.799999" height="921.599993" fill-opacity="1"/><rect x="-76.8" width="921.6" fill="#ffffff" y="-76.799999" height="921.599993" fill-opacity="1"/><path fill="#ff914d" d="M 626.160156 144.976562 C 600.980469 121.894531 513.746094 106.667969 384 106.667969 C 254.253906 106.667969 168.8125 118.960938 138.945312 144.976562 C 109.078125 170.988281 106.667969 218.140625 106.667969 285.5625 C 106.667969 352.984375 105.625 580.566406 139.433594 626.136719 C 173.246094 671.710938 364.621094 661.332031 471.683594 661.332031 C 578.746094 661.332031 610.601562 643.839844 639.65625 611.554688 C 668.714844 579.269531 661.332031 343.0625 661.332031 285.5625 C 661.332031 228.0625 651.339844 168.054688 626.160156 144.976562 Z M 626.160156 144.976562 " fill-opacity="1" fill-rule="nonzero"/><path fill="#004aad" d="M 249.601562 554.308594 C 249.601562 554.308594 249.53125 572.65625 249.53125 572.65625 C 249.53125 572.65625 262.191406 572.015625 262.191406 572.015625 C 262.191406 572.015625 262.261719 554.308594 262.261719 554.308594 C 262.261719 554.308594 271.222656 553.878906 271.222656 553.878906 C 271.222656 553.878906 270.296875 604.445312 270.296875 604.445312 C 270.296875 604.445312 260.910156 604.445312 260.910156 604.445312 C 260.910156 604.445312 261.125 585.671875 261.125 585.671875 C 261.125 585.671875 249.175781 585.457031 249.175781 585.457031 C 249.175781 585.457031 248.75 604.445312 248.75 604.445312 C 248.75 604.445312 239.148438 604.445312 239.148438 604.445312 C 239.148438 604.445312 239.363281 554.308594 239.363281 554.308594 C 239.363281 554.308594 249.601562 554.308594 249.601562 554.308594 Z M 249.601562 554.308594 " fill-opacity="1" fill-rule="nonzero"/><path fill="#004aad" d="M 289.777344 573.652344 C 297.316406 573.652344 303.433594 580.335938 303.433594 588.585938 C 303.433594 596.835938 297.316406 603.519531 289.777344 603.519531 C 282.242188 603.519531 276.125 596.835938 276.125 588.585938 C 276.125 580.335938 282.242188 573.652344 289.777344 573.652344 Z M 290.207031 595.410156 C 293.976562 595.410156 297.035156 592.355469 297.035156 588.585938 C 297.035156 584.816406 293.976562 581.757812 290.207031 581.757812 C 286.4375 581.757812 283.378906 584.816406 283.378906 588.585938 C 283.378906 592.355469 286.4375 595.410156 290.207031 595.410156 Z M 290.207031 595.410156 " fill-opacity="1" fill-rule="nonzero"/><path fill="#004aad" d="M 340.839844 575.003906 C 343.683594 574.292969 346.03125 574.21875 348.304688 576.070312 C 350.652344 577.988281 350.722656 580.265625 351.078125 583.324219 C 351.078125 583.324219 351.078125 604.445312 351.078125 604.445312 C 351.078125 604.445312 345.390625 604.445312 345.390625 604.445312 C 345.390625 604.445312 345.390625 583.394531 345.390625 583.394531 C 344.394531 581.902344 343.609375 580.628906 341.90625 580.335938 C 339.84375 579.980469 338.578125 580.15625 336.570312 580.976562 C 336.421875 581.035156 336.144531 581.046875 336.144531 581.179688 C 336.144531 581.179688 336.144531 594.582031 336.144531 594.582031 C 336.144531 594.582031 336.144531 602.285156 336.144531 602.285156 C 336.144531 602.285156 336.144531 604.445312 336.144531 604.445312 C 336.144531 604.445312 326.332031 604.445312 326.332031 604.445312 C 326.332031 604.445312 326.332031 583.289062 326.332031 583.289062 C 325.367188 581.839844 324.582031 580.621094 322.917969 580.335938 C 320.855469 579.980469 319.589844 580.15625 317.585938 580.976562 C 317.4375 581.035156 317.15625 581.046875 317.15625 581.179688 C 317.15625 581.179688 317.15625 594.582031 317.15625 594.582031 C 317.15625 594.582031 317.15625 602.285156 317.15625 602.285156 C 317.15625 602.285156 317.15625 604.445312 317.15625 604.445312 C 317.15625 604.445312 307.34375 604.445312 307.34375 604.445312 C 307.34375 604.445312 307.34375 573.9375 307.34375 573.9375 C 307.34375 573.9375 317.15625 573.9375 317.15625 573.9375 C 317.15625 573.9375 317.15625 576.621094 317.15625 576.621094 C 318.53125 575.925781 320.027344 575.425781 321.851562 575.003906 C 323.480469 574.59375 324.664062 574.894531 326.046875 575.148438 C 326.046875 575.148438 328.675781 576.28125 328.675781 576.28125 C 328.675781 576.28125 331.664062 578.628906 331.664062 578.628906 C 331.664062 578.628906 336.144531 576.621094 336.144531 576.621094 C 337.519531 575.925781 339.015625 575.425781 340.839844 575.003906 Z M 340.839844 575.003906 " fill-opacity="1" fill-rule="nonzero"/><path fill="#004aad" d="M 360.59375 587.609375 C 360.402344 591.078125 359.703125 589.921875 361.316406 593.277344 C 362.472656 595.6875 365.652344 596.519531 368.285156 596.765625 C 373.199219 597.21875 371.34375 596.707031 376.179688 595.054688 C 376.179688 595.054688 378.953125 592.070312 378.953125 592.070312 C 378.953125 592.070312 384.289062 595.484375 384.289062 595.484375 C 381.230469 597.902344 381.300781 600.605469 377.671875 602.097656 C 373.605469 603.773438 372.765625 604.230469 368.285156 603.804688 C 364.09375 603.40625 360.675781 603.304688 358.046875 599.964844 C 354.816406 595.863281 355.699219 595.765625 355.34375 590.578125 C 354.917969 584.816406 354.632812 581.402344 356.195312 575.855469 C 357.191406 572.371094 358.332031 569.953125 361.53125 568.175781 C 364.945312 566.324219 367.859375 566.46875 371.769531 567.324219 C 376.179688 568.246094 379.167969 569.171875 382.011719 572.65625 C 384.429688 575.714844 383.148438 578.628906 383.933594 582.46875 C 383.933594 582.46875 383.933594 588.015625 383.933594 588.015625 C 383.933594 588.015625 360.59375 587.609375 360.59375 587.609375 Z M 361.046875 582.210938 C 361.046875 582.210938 376.675781 581.828125 376.675781 581.828125 C 376.320312 580.265625 376.960938 578.914062 375.824219 577.777344 C 374.046875 575.996094 372.554688 575.214844 370.0625 575.003906 C 366.867188 574.726562 365.726562 574.433594 363.449219 576.710938 C 361.867188 578.292969 361.316406 580.15625 361.046875 582.210938 Z M 361.046875 582.210938 " fill-opacity="1" fill-rule="nonzero"/><path fill="#004aad" d="M 422.332031 594.632812 C 422.332031 594.632812 426.8125 573.792969 426.8125 573.792969 C 426.8125 573.792969 434.703125 574.007812 434.703125 574.007812 C 434.703125 574.007812 426.738281 604.445312 426.738281 604.445312 C 426.738281 604.445312 417.140625 604.445312 417.140625 604.445312 C 417.140625 604.445312 411.988281 590.527344 411.988281 590.527344 C 411.988281 590.527344 407.46875 604.445312 407.46875 604.445312 C 407.46875 604.445312 397.867188 604.445312 397.867188 604.445312 C 397.867188 604.445312 388.339844 574.007812 388.339844 574.007812 C 388.339844 574.007812 397.722656 574.007812 397.722656 574.007812 C 397.722656 574.007812 403.058594 594.632812 403.058594 594.632812 C 403.058594 594.632812 407.539062 573.792969 407.539062 573.792969 C 407.539062 573.792969 416.996094 574.007812 416.996094 574.007812 C 416.996094 574.007812 422.332031 594.632812 422.332031 594.632812 Z M 422.332031 594.632812 " fill-opacity="1" fill-rule="nonzero"/><path fill="#004aad" d="M 451.414062 573.652344 C 458.953125 573.652344 465.070312 580.335938 465.070312 588.585938 C 465.070312 596.835938 458.953125 603.519531 451.414062 603.519531 C 443.875 603.519531 437.757812 596.835938 437.757812 588.585938 C 437.757812 580.335938 443.875 573.652344 451.414062 573.652344 Z M 451.839844 595.410156 C 455.609375 595.410156 458.667969 592.355469 458.667969 588.585938 C 458.667969 584.816406 455.609375 581.757812 451.839844 581.757812 C 448.070312 581.757812 445.011719 584.816406 445.011719 588.585938 C 445.011719 592.355469 448.070312 595.410156 451.839844 595.410156 Z M 451.839844 595.410156 " fill-opacity="1" fill-rule="nonzero"/><path fill="#004aad" d="M 493.726562 583.324219 C 493.726562 583.324219 488.035156 583.394531 488.035156 583.394531 C 487.042969 581.902344 486.257812 580.628906 484.550781 580.335938 C 482.488281 579.980469 481.222656 580.15625 479.21875 580.976562 C 479.070312 581.035156 478.789062 581.046875 478.789062 581.179688 C 478.789062 581.179688 478.789062 594.582031 478.789062 594.582031 C 478.789062 594.582031 478.789062 602.285156 478.789062 602.285156 C 478.789062 602.285156 478.789062 604.445312 478.789062 604.445312 C 478.789062 604.445312 468.976562 604.445312 468.976562 604.445312 C 468.976562 604.445312 468.976562 573.9375 468.976562 573.9375 C 468.976562 573.9375 478.789062 573.9375 478.789062 573.9375 C 478.789062 573.9375 478.789062 576.621094 478.789062 576.621094 C 480.164062 575.925781 481.660156 575.425781 483.484375 575.003906 C 486.328125 574.292969 488.675781 574.21875 490.953125 576.070312 C 493.296875 577.988281 493.371094 580.265625 493.726562 583.324219 Z M 493.726562 583.324219 " fill-opacity="1" fill-rule="nonzero"/><path fill="#004aad" d="M 499.554688 604.445312 C 499.554688 604.445312 499.554688 555.589844 499.554688 555.589844 C 499.554688 555.589844 509.582031 555.589844 509.582031 555.589844 C 509.582031 555.589844 508.726562 581.617188 508.726562 581.617188 C 508.726562 581.617188 513.847656 581.617188 513.847656 581.617188 C 513.847656 581.617188 520.675781 569.457031 520.675781 569.457031 C 520.675781 569.457031 529.421875 569.667969 529.421875 569.667969 C 529.421875 569.667969 520.25 586.308594 520.25 586.308594 C 520.25 586.308594 529.210938 604.445312 529.210938 604.445312 C 529.210938 604.445312 521.101562 604.445312 521.101562 604.445312 C 521.101562 604.445312 513.421875 590.789062 513.421875 590.789062 C 513.421875 590.789062 508.726562 590.578125 508.726562 590.578125 C 508.726562 590.578125 508.871094 604.445312 508.871094 604.445312 C 508.871094 604.445312 499.554688 604.445312 499.554688 604.445312 Z M 499.554688 604.445312 " fill-opacity="1" fill-rule="nonzero"/><path fill="#ffffff" d="M 177.664062 209.308594 C 177.664062 209.308594 319.640625 243.480469 319.640625 243.480469 C 319.640625 243.480469 461.617188 177.695312 461.617188 177.695312 C 461.617188 177.695312 475.5 235.503906 478.894531 316.382812 C 482.289062 397.257812 473.578125 452.796875 473.578125 452.796875 C 473.578125 452.796875 333.136719 494.15625 333.136719 494.15625 C 333.136719 494.15625 187.0625 471.59375 187.0625 471.59375 C 187.0625 471.59375 171.972656 415.371094 169.992188 337.035156 C 168.011719 258.695312 177.664062 209.308594 177.664062 209.308594 Z M 177.664062 209.308594 " fill-opacity="1" fill-rule="nonzero"/><path fill="#004aad" d="M 192.402344 261.136719 C 200.976562 263.082031 209.199219 266.1875 217.777344 268.105469 C 226.355469 270.023438 235.105469 270.804688 243.679688 272.722656 C 252.265625 274.648438 260.441406 277.90625 269.035156 279.792969 C 277.730469 281.703125 286.578125 281.097656 295.257812 282.972656 C 299.722656 283.933594 301.628906 277.082031 297.148438 276.113281 C 288.449219 274.238281 279.597656 274.839844 270.925781 272.9375 C 262.332031 271.046875 254.15625 267.789062 245.570312 265.867188 C 236.996094 263.949219 228.242188 263.167969 219.667969 261.25 C 211.089844 259.328125 202.871094 256.226562 194.292969 254.277344 C 189.839844 253.265625 187.9375 260.121094 192.402344 261.136719 Z M 192.402344 261.136719 " fill-opacity="1" fill-rule="nonzero"/><path fill="#004aad" d="M 316.46875 243.464844 C 316.757812 250.003906 316.078125 256.402344 315.984375 262.921875 C 315.882812 270.214844 316.613281 277.414062 317.960938 284.570312 C 319.308594 291.734375 319.347656 299.015625 319.878906 306.265625 C 320.386719 313.179688 321.042969 320.113281 321.066406 327.050781 C 321.089844 333.046875 320.125 338.976562 320.21875 344.976562 C 320.328125 351.957031 321.335938 358.714844 322.320312 365.597656 C 323.34375 372.765625 323.472656 380.109375 323.300781 387.339844 C 323.136719 394.4375 323.527344 401.480469 323.734375 408.570312 C 323.957031 416.160156 323.898438 423.757812 324.5 431.332031 C 325.097656 438.859375 326.800781 446.183594 327.203125 453.738281 C 327.445312 458.292969 334.558594 458.320312 334.3125 453.738281 C 333.964844 447.195312 332.652344 440.898438 331.902344 434.417969 C 331.082031 427.308594 331.054688 420.101562 330.941406 412.953125 C 330.824219 405.617188 330.234375 398.289062 330.332031 390.953125 C 330.429688 383.945312 330.527344 376.976562 329.921875 369.980469 C 329.375 363.714844 328.023438 357.570312 327.601562 351.292969 C 327.15625 344.609375 327.683594 338.183594 328.066406 331.535156 C 328.476562 324.328125 327.820312 317.046875 327.265625 309.859375 C 326.722656 302.8125 326.632812 295.695312 325.765625 288.683594 C 324.824219 281.054688 323.253906 273.765625 323.109375 266.023438 C 322.964844 258.476562 323.914062 251.019531 323.582031 243.464844 C 323.378906 238.90625 316.265625 238.878906 316.46875 243.464844 Z M 316.46875 243.464844 " fill-opacity="1" fill-rule="nonzero"/><path fill="#004aad" d="M 193.324219 298.308594 C 201.675781 299.902344 210.054688 301.335938 218.410156 302.914062 C 226.777344 304.492188 235.234375 305.421875 243.597656 306.992188 C 251.957031 308.5625 260.371094 309.820312 268.722656 311.429688 C 277.085938 313.042969 285.253906 315.429688 293.617188 317.050781 C 298.089844 317.917969 300.003906 311.0625 295.507812 310.191406 C 287.148438 308.574219 278.976562 306.183594 270.613281 304.574219 C 262.261719 302.964844 253.847656 301.707031 245.488281 300.136719 C 237.125 298.5625 228.667969 297.632812 220.300781 296.054688 C 211.945312 294.480469 203.566406 293.042969 195.214844 291.449219 C 190.742188 290.597656 188.828125 297.453125 193.324219 298.308594 Z M 193.324219 298.308594 " fill-opacity="1" fill-rule="nonzero"/><path fill="#004aad" d="M 192.375 334.496094 C 200.726562 335.902344 209.027344 337.578125 217.382812 338.976562 C 225.734375 340.375 234.148438 341.355469 242.507812 342.722656 C 250.878906 344.09375 259.339844 344.6875 267.699219 346.105469 C 276.089844 347.527344 284.136719 350.253906 292.523438 351.695312 C 297 352.464844 298.921875 345.613281 294.414062 344.839844 C 286.027344 343.398438 277.980469 340.671875 269.589844 339.25 C 261.226562 337.832031 252.769531 337.238281 244.398438 335.867188 C 236.039062 334.5 227.625 333.515625 219.269531 332.121094 C 210.917969 330.722656 202.617188 329.046875 194.265625 327.640625 C 189.789062 326.886719 187.867188 333.738281 192.375 334.496094 Z M 192.375 334.496094 " fill-opacity="1" fill-rule="nonzero"/><path fill="#004aad" d="M 197.457031 404.785156 C 205.839844 406.351562 214.34375 406.707031 222.722656 408.261719 C 231.074219 409.808594 239.5 410.894531 247.84375 412.476562 C 264.53125 415.640625 281.089844 419.441406 297.769531 422.640625 C 302.238281 423.5 304.15625 416.648438 299.660156 415.785156 C 282.984375 412.585938 266.421875 408.785156 249.734375 405.621094 C 241.390625 404.035156 232.964844 402.949219 224.613281 401.402344 C 216.230469 399.851562 207.722656 399.492188 199.347656 397.929688 C 194.875 397.09375 192.957031 403.945312 197.457031 404.785156 Z M 197.457031 404.785156 " fill-opacity="1" fill-rule="nonzero"/><path fill="#004aad" d="M 202.886719 441.726562 C 207.09375 442.324219 211.324219 442.5 215.535156 443.058594 C 219.765625 443.621094 224.023438 443.421875 228.238281 444.007812 C 232.46875 444.597656 236.453125 446.144531 240.664062 446.832031 C 244.84375 447.511719 249.003906 448.34375 253.195312 448.949219 C 257.367188 449.546875 261.488281 448.992188 265.644531 449.488281 C 269.953125 450 274.183594 451.105469 278.472656 451.753906 C 282.664062 452.390625 286.871094 452.902344 291.054688 453.570312 C 295.273438 454.238281 299.269531 455.703125 303.488281 456.375 C 307.964844 457.089844 309.894531 450.238281 305.378906 449.519531 C 301.160156 448.84375 297.164062 447.378906 292.945312 446.710938 C 288.761719 446.050781 284.550781 445.535156 280.363281 444.898438 C 276.171875 444.261719 272.042969 443.277344 267.847656 442.671875 C 263.671875 442.066406 259.554688 442.625 255.398438 442.132812 C 251.097656 441.621094 246.832031 440.664062 242.554688 439.972656 C 238.339844 439.292969 234.351562 437.789062 230.128906 437.148438 C 221.761719 435.882812 213.179688 436.0625 204.777344 434.867188 C 200.300781 434.234375 198.367188 441.082031 202.886719 441.726562 Z M 202.886719 441.726562 " fill-opacity="1" fill-rule="nonzero"/><path fill="#004aad" d="M 195.109375 369.179688 C 203.574219 370.601562 211.585938 373.648438 220.054688 375.066406 C 228.457031 376.472656 236.875 377.800781 245.292969 379.136719 C 253.742188 380.476562 262.292969 380.628906 270.734375 381.992188 C 279.160156 383.347656 287.421875 385.476562 295.84375 386.867188 C 300.320312 387.601562 302.246094 380.753906 297.734375 380.007812 C 289.3125 378.621094 281.050781 376.492188 272.625 375.132812 C 264.175781 373.769531 255.628906 373.617188 247.183594 372.28125 C 238.769531 370.945312 230.347656 369.621094 221.945312 368.210938 C 213.476562 366.789062 205.464844 363.746094 196.996094 362.324219 C 192.519531 361.570312 190.597656 368.421875 195.109375 369.179688 Z M 195.109375 369.179688 " fill-opacity="1" fill-rule="nonzero"/><path fill="#004aad" d="M 352.875 288.6875 C 360.652344 284.390625 368.695312 280.613281 376.453125 276.28125 C 384.25 271.925781 391.136719 266.25 398.953125 261.929688 C 406.800781 257.589844 415.449219 255.242188 423.308594 250.914062 C 431.09375 246.628906 438.542969 241.78125 446.308594 237.457031 C 450.308594 235.230469 446.726562 229.085938 442.71875 231.316406 C 434.953125 235.640625 427.507812 240.496094 419.71875 244.777344 C 411.859375 249.09375 403.21875 251.445312 395.363281 255.789062 C 387.550781 260.109375 380.664062 265.789062 372.867188 270.140625 C 365.105469 274.46875 357.066406 278.25 349.289062 282.546875 C 345.28125 284.761719 348.863281 290.90625 352.875 288.6875 Z M 352.875 288.6875 " fill-opacity="1" fill-rule="nonzero"/><path fill="#004aad" d="M 351.210938 323.304688 C 359.226562 318.941406 367.667969 315.480469 375.675781 311.105469 C 383.675781 306.734375 391.328125 301.785156 399.316406 297.398438 C 415.285156 288.632812 431.257812 279.882812 447.226562 271.121094 C 451.242188 268.917969 447.65625 262.773438 443.640625 264.980469 C 427.671875 273.742188 411.695312 282.492188 395.726562 291.257812 C 387.738281 295.644531 380.085938 300.59375 372.089844 304.964844 C 364.078125 309.339844 355.636719 312.800781 347.621094 317.164062 C 343.597656 319.351562 347.183594 325.492188 351.210938 323.304688 Z M 351.210938 323.304688 " fill-opacity="1" fill-rule="nonzero"/><path fill="#004aad" d="M 355.273438 356.695312 C 370.660156 348.796875 385.652344 340.121094 401.078125 332.289062 C 408.828125 328.355469 417.085938 325.679688 424.832031 321.738281 C 432.546875 317.816406 440.03125 313.464844 447.730469 309.515625 C 451.804688 307.425781 448.210938 301.285156 444.140625 303.375 C 436.441406 307.324219 428.960938 311.679688 421.246094 315.597656 C 413.5 319.535156 405.238281 322.214844 397.492188 326.148438 C 382.0625 333.980469 367.070312 342.65625 351.683594 350.554688 C 347.613281 352.648438 351.203125 358.785156 355.273438 356.695312 Z M 355.273438 356.695312 " fill-opacity="1" fill-rule="nonzero"/><path fill="#004aad" d="M 355.03125 388.476562 C 362.757812 384.914062 369.761719 380.097656 377.507812 376.574219 C 385.257812 373.050781 393.578125 371.199219 401.367188 367.71875 C 409.097656 364.261719 417.015625 361.253906 424.71875 357.738281 C 432.429688 354.21875 439.773438 349.988281 447.480469 346.457031 C 451.632812 344.550781 448.023438 338.417969 443.890625 340.316406 C 436.1875 343.847656 428.84375 348.078125 421.128906 351.597656 C 413.429688 355.113281 405.511719 358.128906 397.777344 361.578125 C 389.996094 365.050781 381.6875 366.902344 373.917969 370.433594 C 366.171875 373.953125 359.167969 378.773438 351.441406 382.335938 C 347.292969 384.25 350.898438 390.382812 355.03125 388.476562 Z M 355.03125 388.476562 " fill-opacity="1" fill-rule="nonzero"/><path fill="#004aad" d="M 354.320312 380.441406 C 354.320312 380.441406 464.644531 221.722656 464.644531 221.722656 C 464.644531 221.722656 494.351562 239.078125 494.351562 239.078125 C 494.351562 239.078125 388.421875 389.746094 388.421875 389.746094 C 388.421875 389.746094 348.75 418.933594 348.75 418.933594 C 348.75 418.933594 354.320312 380.441406 354.320312 380.441406 Z M 354.320312 380.441406 " fill-opacity="1" fill-rule="nonzero"/><path fill="#ff914d" d="M 354.320312 380.441406 C 354.320312 380.441406 355.53125 384.34375 358.808594 384.203125 C 362.082031 384.0625 363.84375 382.855469 363.84375 382.855469 C 363.84375 382.855469 362.949219 387.019531 366.378906 388.1875 C 369.808594 389.355469 374.085938 386.734375 374.085938 386.734375 C 374.085938 386.734375 373.167969 390.234375 376.644531 391.695312 C 380.117188 393.152344 388.421875 389.742188 388.421875 389.742188 C 388.421875 389.742188 348.75 418.933594 348.75 418.933594 C 348.75 418.933594 354.320312 380.441406 354.320312 380.441406 Z M 354.320312 380.441406 " fill-opacity="1" fill-rule="nonzero"/><path fill="#ffffff" d="M 464.644531 221.722656 C 464.644531 221.722656 486.878906 190.058594 486.878906 190.058594 C 486.878906 190.058594 521.964844 206.367188 521.964844 206.367188 C 521.964844 206.367188 494.351562 239.078125 494.351562 239.078125 C 494.351562 239.078125 464.644531 221.722656 464.644531 221.722656 Z M 464.644531 221.722656 " fill-opacity="1" fill-rule="nonzero"/><path fill="#004aad" d="M 464.644531 221.722656 C 464.644531 221.722656 475.003906 206.972656 475.003906 206.972656 C 475.003906 206.972656 505.742188 225.585938 505.742188 225.585938 C 505.742188 225.585938 494.351562 239.078125 494.351562 239.078125 C 494.351562 239.078125 464.644531 221.722656 464.644531 221.722656 Z M 464.644531 221.722656 " fill-opacity="1" fill-rule="nonzero"/></svg>