<svg xmlns="http://www.w3.org/2000/svg" xmlns:xlink="http://www.w3.org/1999/xlink" width="1024" zoomAndPan="magnify" viewBox="0 0 768 767.999994" height="1024" preserveAspectRatio="xMidYMid meet" version="1.0"><defs><clipPath id="ef704a1b6f"><path d="M 60 76.800781 L 765 76.800781 L 765 618 L 60 618 Z M 60 76.800781 " clip-rule="nonzero"/></clipPath></defs><rect x="-76.8" width="921.6" fill="#ffffff" y="-76.799999" height="921.599993" fill-opacity="1"/><rect x="-76.8" width="921.6" fill="#f4f5f7" y="-76.799999" height="921.599993" fill-opacity="1"/><g clip-path="url(#ef704a1b6f)"><path fill="#f5f5f5" d="M 98.703125 76.800781 L 727.113281 76.800781 C 728.347656 76.800781 729.578125 76.859375 730.808594 76.980469 C 732.035156 77.101562 733.257812 77.285156 734.46875 77.523438 C 735.679688 77.765625 736.875 78.066406 738.054688 78.421875 C 739.238281 78.78125 740.398438 79.195312 741.539062 79.667969 C 742.679688 80.140625 743.796875 80.667969 744.886719 81.25 C 745.972656 81.832031 747.03125 82.464844 748.058594 83.152344 C 749.085938 83.835938 750.078125 84.574219 751.03125 85.355469 C 751.984375 86.136719 752.898438 86.964844 753.773438 87.839844 C 754.644531 88.710938 755.472656 89.625 756.257812 90.578125 C 757.039062 91.535156 757.777344 92.523438 758.460938 93.550781 C 759.148438 94.578125 759.78125 95.636719 760.363281 96.722656 C 760.945312 97.8125 761.472656 98.925781 761.945312 100.066406 C 762.417969 101.207031 762.835938 102.367188 763.191406 103.550781 C 763.550781 104.730469 763.851562 105.925781 764.089844 107.136719 C 764.332031 108.347656 764.511719 109.566406 764.632812 110.796875 C 764.753906 112.023438 764.816406 113.257812 764.816406 114.492188 L 764.816406 579.34375 C 764.816406 580.578125 764.753906 581.808594 764.632812 583.039062 C 764.511719 584.265625 764.332031 585.488281 764.089844 586.695312 C 763.851562 587.90625 763.550781 589.105469 763.191406 590.285156 C 762.835938 591.464844 762.417969 592.628906 761.945312 593.769531 C 761.472656 594.90625 760.945312 596.023438 760.363281 597.113281 C 759.78125 598.199219 759.148438 599.257812 758.460938 600.285156 C 757.777344 601.308594 757.039062 602.300781 756.257812 603.253906 C 755.472656 604.210938 754.644531 605.121094 753.773438 605.996094 C 752.898438 606.867188 751.984375 607.695312 751.03125 608.480469 C 750.078125 609.261719 749.085938 609.996094 748.058594 610.683594 C 747.03125 611.367188 745.972656 612.003906 744.886719 612.585938 C 743.796875 613.167969 742.679688 613.691406 741.539062 614.164062 C 740.398438 614.636719 739.238281 615.054688 738.054688 615.410156 C 736.875 615.769531 735.679688 616.070312 734.46875 616.308594 C 733.257812 616.550781 732.035156 616.730469 730.808594 616.851562 C 729.578125 616.972656 728.347656 617.035156 727.113281 617.035156 L 98.703125 617.035156 C 97.46875 617.035156 96.234375 616.972656 95.007812 616.851562 C 93.777344 616.730469 92.558594 616.550781 91.347656 616.3125 C 90.136719 616.070312 88.9375 615.769531 87.757812 615.410156 C 86.574219 615.054688 85.414062 614.636719 84.273438 614.164062 C 83.132812 613.691406 82.015625 613.167969 80.929688 612.585938 C 79.839844 612.003906 78.78125 611.367188 77.753906 610.683594 C 76.726562 609.996094 75.738281 609.261719 74.78125 608.480469 C 73.828125 607.695312 72.914062 606.867188 72.039062 605.996094 C 71.167969 605.121094 70.339844 604.210938 69.554688 603.253906 C 68.773438 602.300781 68.039062 601.308594 67.351562 600.285156 C 66.664062 599.257812 66.03125 598.199219 65.449219 597.113281 C 64.867188 596.023438 64.339844 594.90625 63.867188 593.769531 C 63.394531 592.628906 62.980469 591.464844 62.621094 590.285156 C 62.261719 589.105469 61.964844 587.90625 61.722656 586.695312 C 61.480469 585.488281 61.300781 584.265625 61.179688 583.039062 C 61.058594 581.808594 60.996094 580.578125 60.996094 579.34375 L 60.996094 114.492188 C 60.996094 113.257812 61.058594 112.023438 61.179688 110.796875 C 61.300781 109.566406 61.480469 108.347656 61.722656 107.136719 C 61.964844 105.925781 62.261719 104.730469 62.621094 103.550781 C 62.980469 102.367188 63.394531 101.207031 63.867188 100.066406 C 64.339844 98.925781 64.867188 97.8125 65.449219 96.722656 C 66.03125 95.636719 66.664062 94.578125 67.351562 93.550781 C 68.039062 92.523438 68.773438 91.535156 69.554688 90.578125 C 70.339844 89.625 71.167969 88.710938 72.039062 87.839844 C 72.914062 86.964844 73.828125 86.136719 74.78125 85.355469 C 75.738281 84.574219 76.726562 83.835938 77.753906 83.152344 C 78.78125 82.464844 79.839844 81.832031 80.929688 81.25 C 82.015625 80.667969 83.132812 80.140625 84.273438 79.667969 C 85.414062 79.195312 86.574219 78.78125 87.757812 78.421875 C 88.9375 78.066406 90.136719 77.765625 91.347656 77.523438 C 92.558594 77.285156 93.777344 77.101562 95.007812 76.980469 C 96.234375 76.859375 97.46875 76.800781 98.703125 76.800781 Z M 98.703125 76.800781 " fill-opacity="1" fill-rule="nonzero"/></g><path fill="#f44336" d="M 475.746094 378.328125 L 450.613281 378.328125 C 449.789062 378.328125 448.96875 378.367188 448.148438 378.449219 C 447.328125 378.527344 446.515625 378.648438 445.707031 378.808594 C 444.898438 378.96875 444.101562 379.167969 443.316406 379.410156 C 442.527344 379.648438 441.753906 379.925781 440.992188 380.238281 C 440.230469 380.554688 439.488281 380.90625 438.761719 381.292969 C 438.035156 381.679688 437.332031 382.105469 436.644531 382.5625 C 435.960938 383.019531 435.300781 383.507812 434.664062 384.03125 C 434.027344 384.550781 433.417969 385.105469 432.835938 385.6875 C 432.253906 386.269531 431.703125 386.878906 431.179688 387.511719 C 430.660156 388.148438 430.167969 388.808594 429.710938 389.492188 C 429.253906 390.179688 428.832031 390.882812 428.441406 391.609375 C 428.054688 392.335938 427.703125 393.078125 427.386719 393.835938 C 427.074219 394.597656 426.796875 395.371094 426.558594 396.160156 C 426.320312 396.945312 426.117188 397.746094 425.957031 398.550781 C 425.796875 399.359375 425.675781 400.171875 425.597656 400.992188 C 425.515625 401.808594 425.476562 402.628906 425.476562 403.453125 L 425.476562 566.78125 L 500.882812 566.78125 L 500.882812 403.453125 C 500.882812 402.628906 500.84375 401.808594 500.761719 400.992188 C 500.683594 400.171875 500.5625 399.359375 500.402344 398.550781 C 500.242188 397.746094 500.039062 396.945312 499.800781 396.160156 C 499.5625 395.371094 499.285156 394.597656 498.96875 393.835938 C 498.65625 393.078125 498.304688 392.335938 497.917969 391.609375 C 497.527344 390.882812 497.105469 390.179688 496.648438 389.492188 C 496.191406 388.808594 495.699219 388.148438 495.179688 387.511719 C 494.65625 386.875 494.105469 386.269531 493.523438 385.6875 C 492.941406 385.105469 492.332031 384.550781 491.695312 384.03125 C 491.058594 383.507812 490.398438 383.019531 489.710938 382.5625 C 489.027344 382.105469 488.324219 381.679688 487.597656 381.292969 C 486.871094 380.90625 486.128906 380.554688 485.367188 380.238281 C 484.605469 379.925781 483.832031 379.648438 483.042969 379.410156 C 482.257812 379.167969 481.460938 378.96875 480.652344 378.808594 C 479.84375 378.648438 479.03125 378.527344 478.210938 378.449219 C 477.390625 378.367188 476.570312 378.328125 475.746094 378.328125 Z M 475.746094 378.328125 " fill-opacity="1" fill-rule="nonzero"/><path fill="#fbc02d" d="M 563.726562 340.636719 L 538.589844 340.636719 C 537.765625 340.636719 536.945312 340.675781 536.125 340.757812 C 535.304688 340.835938 534.492188 340.957031 533.683594 341.117188 C 532.878906 341.277344 532.078125 341.480469 531.292969 341.71875 C 530.503906 341.957031 529.730469 342.234375 528.96875 342.546875 C 528.207031 342.863281 527.464844 343.214844 526.738281 343.601562 C 526.011719 343.992188 525.308594 344.414062 524.625 344.871094 C 523.9375 345.328125 523.277344 345.816406 522.640625 346.339844 C 522.007812 346.863281 521.398438 347.414062 520.816406 347.996094 C 520.234375 348.578125 519.679688 349.1875 519.15625 349.824219 C 518.636719 350.457031 518.144531 351.117188 517.6875 351.804688 C 517.230469 352.488281 516.808594 353.191406 516.421875 353.917969 C 516.03125 354.644531 515.679688 355.386719 515.367188 356.148438 C 515.050781 356.90625 514.773438 357.679688 514.535156 358.46875 C 514.296875 359.257812 514.097656 360.054688 513.933594 360.859375 C 513.773438 361.667969 513.652344 362.480469 513.574219 363.300781 C 513.492188 364.117188 513.453125 364.941406 513.453125 365.761719 L 513.453125 566.78125 L 588.863281 566.78125 L 588.863281 365.761719 C 588.863281 364.941406 588.820312 364.117188 588.742188 363.300781 C 588.660156 362.480469 588.539062 361.667969 588.378906 360.859375 C 588.21875 360.054688 588.019531 359.257812 587.777344 358.46875 C 587.539062 357.679688 587.261719 356.90625 586.949219 356.148438 C 586.632812 355.386719 586.28125 354.644531 585.894531 353.917969 C 585.503906 353.191406 585.082031 352.488281 584.625 351.804688 C 584.167969 351.117188 583.679688 350.457031 583.15625 349.824219 C 582.632812 349.1875 582.082031 348.578125 581.5 347.996094 C 580.917969 347.414062 580.308594 346.859375 579.671875 346.339844 C 579.035156 345.816406 578.375 345.328125 577.691406 344.871094 C 577.003906 344.414062 576.300781 343.992188 575.574219 343.601562 C 574.847656 343.214844 574.105469 342.863281 573.34375 342.546875 C 572.582031 342.234375 571.808594 341.957031 571.023438 341.71875 C 570.234375 341.480469 569.4375 341.277344 568.628906 341.117188 C 567.820312 340.957031 567.007812 340.835938 566.1875 340.757812 C 565.371094 340.675781 564.546875 340.636719 563.726562 340.636719 Z M 563.726562 340.636719 " fill-opacity="1" fill-rule="nonzero"/><path fill="#7cb342" d="M 651.703125 416.015625 L 626.566406 416.015625 C 625.742188 416.015625 624.921875 416.058594 624.101562 416.136719 C 623.28125 416.21875 622.46875 416.339844 621.660156 416.5 C 620.855469 416.660156 620.058594 416.859375 619.269531 417.097656 C 618.480469 417.339844 617.707031 417.613281 616.945312 417.929688 C 616.1875 418.246094 615.441406 418.597656 614.714844 418.984375 C 613.992188 419.371094 613.285156 419.792969 612.601562 420.25 C 611.917969 420.710938 611.257812 421.199219 610.621094 421.722656 C 609.984375 422.242188 609.375 422.792969 608.792969 423.375 C 608.210938 423.957031 607.65625 424.566406 607.136719 425.203125 C 606.613281 425.839844 606.125 426.5 605.664062 427.183594 C 605.207031 427.867188 604.785156 428.574219 604.398438 429.300781 C 604.007812 430.023438 603.65625 430.769531 603.34375 431.527344 C 603.027344 432.289062 602.75 433.0625 602.511719 433.851562 C 602.273438 434.636719 602.074219 435.433594 601.914062 436.242188 C 601.753906 437.050781 601.632812 437.863281 601.550781 438.679688 C 601.46875 439.5 601.429688 440.320312 601.429688 441.144531 L 601.429688 566.78125 L 676.839844 566.78125 L 676.839844 441.144531 C 676.839844 440.320312 676.796875 439.5 676.71875 438.679688 C 676.636719 437.863281 676.515625 437.050781 676.355469 436.242188 C 676.195312 435.433594 675.996094 434.636719 675.757812 433.851562 C 675.515625 433.0625 675.242188 432.289062 674.925781 431.527344 C 674.609375 430.769531 674.257812 430.023438 673.871094 429.300781 C 673.484375 428.574219 673.058594 427.867188 672.601562 427.183594 C 672.144531 426.5 671.65625 425.839844 671.132812 425.203125 C 670.609375 424.566406 670.058594 423.957031 669.476562 423.375 C 668.894531 422.792969 668.285156 422.242188 667.648438 421.722656 C 667.011719 421.199219 666.351562 420.710938 665.667969 420.25 C 664.984375 419.792969 664.277344 419.371094 663.550781 418.984375 C 662.824219 418.597656 662.082031 418.246094 661.320312 417.929688 C 660.5625 417.613281 659.785156 417.339844 659 417.097656 C 658.210938 416.859375 657.414062 416.660156 656.605469 416.5 C 655.796875 416.339844 654.984375 416.21875 654.167969 416.136719 C 653.347656 416.058594 652.527344 416.015625 651.703125 416.015625 Z M 651.703125 416.015625 " fill-opacity="1" fill-rule="nonzero"/><path fill="#212121" d="M 460.300781 181.871094 C 459.777344 181.238281 459.191406 180.660156 458.554688 180.136719 C 457.914062 179.617188 457.230469 179.164062 456.5 178.777344 C 455.769531 178.390625 455.011719 178.078125 454.222656 177.84375 C 453.429688 177.605469 452.625 177.449219 451.804688 177.371094 C 450.980469 177.292969 450.160156 177.292969 449.339844 177.378906 C 448.519531 177.460938 447.714844 177.625 446.925781 177.867188 C 446.136719 178.109375 445.378906 178.425781 444.652344 178.816406 C 443.925781 179.207031 443.246094 179.667969 442.609375 180.191406 L 305.898438 293.082031 L 194.46875 205.136719 C 193.890625 204.683594 193.28125 204.285156 192.636719 203.9375 C 191.992188 203.59375 191.320312 203.304688 190.625 203.074219 C 189.929688 202.847656 189.21875 202.679688 188.496094 202.574219 C 187.769531 202.46875 187.042969 202.425781 186.308594 202.449219 C 185.578125 202.46875 184.855469 202.554688 184.136719 202.703125 C 183.421875 202.851562 182.722656 203.058594 182.039062 203.328125 C 181.359375 203.601562 180.707031 203.925781 180.085938 204.308594 C 179.460938 204.695312 178.875 205.128906 178.328125 205.613281 L 65.214844 306.121094 C 64.621094 306.675781 64.089844 307.285156 63.617188 307.941406 C 63.144531 308.601562 62.738281 309.296875 62.398438 310.035156 C 62.058594 310.773438 61.792969 311.535156 61.601562 312.320312 C 61.414062 313.109375 61.296875 313.910156 61.261719 314.71875 C 61.226562 315.527344 61.269531 316.335938 61.386719 317.136719 C 61.507812 317.9375 61.703125 318.722656 61.972656 319.484375 C 62.246094 320.25 62.585938 320.980469 63 321.679688 C 63.414062 322.375 63.890625 323.027344 64.429688 323.632812 C 64.96875 324.238281 65.558594 324.789062 66.203125 325.277344 C 66.851562 325.769531 67.535156 326.195312 68.265625 326.554688 C 68.992188 326.910156 69.746094 327.199219 70.53125 327.410156 C 71.3125 327.621094 72.109375 327.757812 72.917969 327.816406 C 73.726562 327.875 74.53125 327.855469 75.339844 327.757812 C 76.144531 327.660156 76.929688 327.484375 77.703125 327.234375 C 78.472656 326.984375 79.214844 326.660156 79.921875 326.269531 C 80.632812 325.875 81.296875 325.417969 81.917969 324.894531 L 187.15625 231.378906 L 298.289062 319.089844 C 298.847656 319.53125 299.441406 319.925781 300.070312 320.265625 C 300.695312 320.605469 301.347656 320.890625 302.019531 321.121094 C 302.695312 321.351562 303.386719 321.523438 304.089844 321.636719 C 304.796875 321.746094 305.503906 321.800781 306.21875 321.792969 C 306.929688 321.785156 307.636719 321.714844 308.339844 321.585938 C 309.039062 321.457031 309.726562 321.269531 310.394531 321.023438 C 311.066406 320.777344 311.710938 320.476562 312.328125 320.121094 C 312.945312 319.765625 313.53125 319.363281 314.078125 318.90625 L 458.613281 199.554688 C 459.25 199.027344 459.828125 198.445312 460.351562 197.808594 C 460.871094 197.167969 461.324219 196.484375 461.710938 195.753906 C 462.097656 195.027344 462.410156 194.269531 462.648438 193.476562 C 462.886719 192.6875 463.042969 191.882812 463.121094 191.0625 C 463.199219 190.242188 463.195312 189.421875 463.113281 188.601562 C 463.03125 187.78125 462.867188 186.976562 462.625 186.1875 C 462.382812 185.398438 462.066406 184.640625 461.675781 183.914062 C 461.285156 183.191406 460.828125 182.507812 460.300781 181.871094 Z M 460.300781 181.871094 " fill-opacity="1" fill-rule="nonzero"/><path fill="#212121" d="M 689.40625 177.308594 L 576.292969 177.308594 C 575.46875 177.308594 574.652344 177.226562 573.839844 177.066406 C 573.03125 176.90625 572.246094 176.667969 571.484375 176.351562 C 570.722656 176.035156 569.996094 175.648438 569.3125 175.191406 C 568.625 174.734375 567.988281 174.210938 567.40625 173.628906 C 566.824219 173.046875 566.300781 172.410156 565.84375 171.726562 C 565.382812 171.039062 564.996094 170.316406 564.683594 169.554688 C 564.367188 168.789062 564.128906 168.003906 563.964844 167.195312 C 563.804688 166.386719 563.726562 165.570312 563.726562 164.746094 C 563.726562 163.921875 563.804688 163.101562 563.964844 162.292969 C 564.128906 161.484375 564.367188 160.699219 564.683594 159.9375 C 564.996094 159.175781 565.382812 158.449219 565.84375 157.765625 C 566.300781 157.078125 566.824219 156.445312 567.40625 155.863281 C 567.988281 155.277344 568.625 154.757812 569.3125 154.300781 C 569.996094 153.839844 570.722656 153.453125 571.484375 153.136719 C 572.246094 152.824219 573.03125 152.582031 573.839844 152.421875 C 574.652344 152.261719 575.46875 152.179688 576.292969 152.179688 L 689.40625 152.179688 C 690.230469 152.179688 691.050781 152.261719 691.859375 152.421875 C 692.667969 152.582031 693.453125 152.824219 694.214844 153.136719 C 694.980469 153.453125 695.703125 153.839844 696.390625 154.300781 C 697.074219 154.757812 697.710938 155.277344 698.292969 155.863281 C 698.878906 156.445312 699.398438 157.078125 699.855469 157.765625 C 700.316406 158.449219 700.703125 159.175781 701.019531 159.9375 C 701.335938 160.699219 701.574219 161.484375 701.734375 162.292969 C 701.894531 163.101562 701.976562 163.921875 701.976562 164.746094 C 701.976562 165.570312 701.894531 166.386719 701.734375 167.195312 C 701.574219 168.003906 701.335938 168.789062 701.019531 169.554688 C 700.703125 170.316406 700.316406 171.039062 699.855469 171.726562 C 699.398438 172.410156 698.878906 173.046875 698.292969 173.628906 C 697.710938 174.210938 697.074219 174.734375 696.390625 175.191406 C 695.703125 175.648438 694.980469 176.035156 694.214844 176.351562 C 693.453125 176.667969 692.667969 176.90625 691.859375 177.066406 C 691.050781 177.226562 690.230469 177.308594 689.40625 177.308594 Z M 689.40625 177.308594 " fill-opacity="1" fill-rule="nonzero"/><path fill="#212121" d="M 551.15625 164.746094 C 551.15625 165.570312 551.078125 166.386719 550.914062 167.195312 C 550.753906 168.003906 550.515625 168.789062 550.199219 169.554688 C 549.882812 170.316406 549.496094 171.039062 549.039062 171.726562 C 548.582031 172.410156 548.058594 173.046875 547.476562 173.628906 C 546.890625 174.210938 546.257812 174.734375 545.570312 175.191406 C 544.886719 175.648438 544.160156 176.035156 543.398438 176.351562 C 542.636719 176.667969 541.851562 176.90625 541.039062 177.066406 C 540.230469 177.226562 539.414062 177.308594 538.589844 177.308594 C 537.761719 177.308594 536.945312 177.226562 536.136719 177.066406 C 535.328125 176.90625 534.542969 176.667969 533.777344 176.351562 C 533.015625 176.035156 532.292969 175.648438 531.605469 175.191406 C 530.921875 174.734375 530.285156 174.210938 529.703125 173.628906 C 529.117188 173.046875 528.597656 172.410156 528.136719 171.726562 C 527.679688 171.039062 527.292969 170.316406 526.976562 169.554688 C 526.660156 168.789062 526.421875 168.003906 526.261719 167.195312 C 526.101562 166.386719 526.019531 165.570312 526.019531 164.746094 C 526.019531 163.921875 526.101562 163.101562 526.261719 162.292969 C 526.421875 161.484375 526.660156 160.699219 526.976562 159.9375 C 527.292969 159.175781 527.679688 158.449219 528.136719 157.765625 C 528.597656 157.078125 529.117188 156.445312 529.703125 155.863281 C 530.285156 155.277344 530.921875 154.757812 531.605469 154.300781 C 532.292969 153.839844 533.015625 153.453125 533.777344 153.136719 C 534.542969 152.824219 535.328125 152.582031 536.136719 152.421875 C 536.945312 152.261719 537.761719 152.179688 538.589844 152.179688 C 539.414062 152.179688 540.230469 152.261719 541.039062 152.421875 C 541.851562 152.582031 542.636719 152.824219 543.398438 153.136719 C 544.160156 153.453125 544.886719 153.839844 545.570312 154.300781 C 546.257812 154.757812 546.890625 155.277344 547.476562 155.863281 C 548.058594 156.445312 548.582031 157.078125 549.039062 157.765625 C 549.496094 158.449219 549.882812 159.175781 550.199219 159.9375 C 550.515625 160.699219 550.753906 161.484375 550.914062 162.292969 C 551.078125 163.101562 551.15625 163.921875 551.15625 164.746094 Z M 551.15625 164.746094 " fill-opacity="1" fill-rule="nonzero"/><path fill="#212121" d="M 689.40625 227.5625 L 576.292969 227.5625 C 575.46875 227.5625 574.652344 227.484375 573.839844 227.320312 C 573.03125 227.160156 572.246094 226.921875 571.484375 226.605469 C 570.722656 226.292969 569.996094 225.902344 569.3125 225.445312 C 568.625 224.988281 567.988281 224.464844 567.40625 223.882812 C 566.824219 223.300781 566.300781 222.664062 565.84375 221.980469 C 565.382812 221.292969 564.996094 220.570312 564.683594 219.808594 C 564.367188 219.046875 564.128906 218.257812 563.964844 217.449219 C 563.804688 216.640625 563.726562 215.824219 563.726562 215 C 563.726562 214.175781 563.804688 213.359375 563.964844 212.546875 C 564.128906 211.738281 564.367188 210.953125 564.683594 210.191406 C 564.996094 209.429688 565.382812 208.707031 565.84375 208.019531 C 566.300781 207.332031 566.824219 206.699219 567.40625 206.117188 C 567.988281 205.53125 568.625 205.011719 569.3125 204.554688 C 569.996094 204.09375 570.722656 203.707031 571.484375 203.390625 C 572.246094 203.078125 573.03125 202.839844 573.839844 202.675781 C 574.652344 202.515625 575.46875 202.4375 576.292969 202.4375 L 689.40625 202.4375 C 690.230469 202.4375 691.050781 202.515625 691.859375 202.675781 C 692.667969 202.839844 693.453125 203.078125 694.214844 203.390625 C 694.980469 203.707031 695.703125 204.09375 696.390625 204.554688 C 697.074219 205.011719 697.710938 205.53125 698.292969 206.117188 C 698.878906 206.699219 699.398438 207.332031 699.855469 208.019531 C 700.316406 208.707031 700.703125 209.429688 701.019531 210.191406 C 701.335938 210.953125 701.574219 211.738281 701.734375 212.546875 C 701.894531 213.359375 701.976562 214.175781 701.976562 215 C 701.976562 215.824219 701.894531 216.640625 701.734375 217.449219 C 701.574219 218.257812 701.335938 219.046875 701.019531 219.808594 C 700.703125 220.570312 700.316406 221.292969 699.855469 221.980469 C 699.398438 222.664062 698.878906 223.300781 698.292969 223.882812 C 697.710938 224.464844 697.074219 224.988281 696.390625 225.445312 C 695.703125 225.902344 694.980469 226.292969 694.214844 226.605469 C 693.453125 226.921875 692.667969 227.160156 691.859375 227.320312 C 691.050781 227.484375 690.230469 227.5625 689.40625 227.5625 Z M 689.40625 227.5625 " fill-opacity="1" fill-rule="nonzero"/><path fill="#212121" d="M 689.40625 277.816406 L 576.292969 277.816406 C 575.46875 277.816406 574.652344 277.738281 573.839844 277.578125 C 573.03125 277.414062 572.246094 277.175781 571.484375 276.859375 C 570.722656 276.546875 569.996094 276.160156 569.3125 275.699219 C 568.625 275.242188 567.988281 274.722656 567.40625 274.136719 C 566.824219 273.554688 566.300781 272.917969 565.84375 272.234375 C 565.382812 271.546875 564.996094 270.824219 564.683594 270.0625 C 564.367188 269.300781 564.128906 268.515625 563.964844 267.703125 C 563.804688 266.894531 563.726562 266.078125 563.726562 265.253906 C 563.726562 264.429688 563.804688 263.613281 563.964844 262.804688 C 564.128906 261.992188 564.367188 261.207031 564.683594 260.445312 C 564.996094 259.683594 565.382812 258.960938 565.84375 258.273438 C 566.300781 257.589844 566.824219 256.953125 567.40625 256.371094 C 567.988281 255.785156 568.625 255.265625 569.3125 254.808594 C 569.996094 254.347656 570.722656 253.960938 571.484375 253.648438 C 572.246094 253.332031 573.03125 253.09375 573.839844 252.933594 C 574.652344 252.769531 575.46875 252.691406 576.292969 252.691406 L 689.40625 252.691406 C 690.230469 252.691406 691.050781 252.769531 691.859375 252.933594 C 692.667969 253.09375 693.453125 253.332031 694.214844 253.648438 C 694.980469 253.960938 695.703125 254.347656 696.390625 254.808594 C 697.074219 255.265625 697.710938 255.785156 698.292969 256.371094 C 698.878906 256.953125 699.398438 257.589844 699.855469 258.273438 C 700.316406 258.960938 700.703125 259.683594 701.019531 260.445312 C 701.335938 261.207031 701.574219 261.992188 701.734375 262.804688 C 701.894531 263.613281 701.976562 264.429688 701.976562 265.253906 C 701.976562 266.078125 701.894531 266.894531 701.734375 267.703125 C 701.574219 268.515625 701.335938 269.300781 701.019531 270.0625 C 700.703125 270.824219 700.316406 271.546875 699.855469 272.234375 C 699.398438 272.917969 698.878906 273.554688 698.292969 274.136719 C 697.710938 274.722656 697.074219 275.242188 696.390625 275.699219 C 695.703125 276.160156 694.980469 276.546875 694.214844 276.859375 C 693.453125 277.175781 692.667969 277.414062 691.859375 277.578125 C 691.050781 277.738281 690.230469 277.816406 689.40625 277.816406 Z M 689.40625 277.816406 " fill-opacity="1" fill-rule="nonzero"/><path fill="#212121" d="M 551.15625 215 C 551.15625 215.824219 551.078125 216.640625 550.914062 217.449219 C 550.753906 218.257812 550.515625 219.046875 550.199219 219.808594 C 549.882812 220.570312 549.496094 221.292969 549.039062 221.980469 C 548.582031 222.664062 548.058594 223.300781 547.476562 223.882812 C 546.890625 224.464844 546.257812 224.988281 545.570312 225.445312 C 544.886719 225.902344 544.160156 226.292969 543.398438 226.605469 C 542.636719 226.921875 541.851562 227.160156 541.039062 227.320312 C 540.230469 227.484375 539.414062 227.5625 538.589844 227.5625 C 537.761719 227.5625 536.945312 227.484375 536.136719 227.320312 C 535.328125 227.160156 534.542969 226.921875 533.777344 226.605469 C 533.015625 226.292969 532.292969 225.902344 531.605469 225.445312 C 530.921875 224.988281 530.285156 224.464844 529.703125 223.882812 C 529.117188 223.300781 528.597656 222.664062 528.136719 221.980469 C 527.679688 221.292969 527.292969 220.570312 526.976562 219.808594 C 526.660156 219.046875 526.421875 218.257812 526.261719 217.449219 C 526.101562 216.640625 526.019531 215.824219 526.019531 215 C 526.019531 214.175781 526.101562 213.359375 526.261719 212.546875 C 526.421875 211.738281 526.660156 210.953125 526.976562 210.191406 C 527.292969 209.429688 527.679688 208.707031 528.136719 208.019531 C 528.597656 207.332031 529.117188 206.699219 529.703125 206.117188 C 530.285156 205.53125 530.921875 205.011719 531.605469 204.554688 C 532.292969 204.09375 533.015625 203.707031 533.777344 203.390625 C 534.542969 203.078125 535.328125 202.839844 536.136719 202.675781 C 536.945312 202.515625 537.761719 202.4375 538.589844 202.4375 C 539.414062 202.4375 540.230469 202.515625 541.039062 202.675781 C 541.851562 202.839844 542.636719 203.078125 543.398438 203.390625 C 544.160156 203.707031 544.886719 204.09375 545.570312 204.554688 C 546.257812 205.011719 546.890625 205.53125 547.476562 206.117188 C 548.058594 206.699219 548.582031 207.332031 549.039062 208.019531 C 549.496094 208.707031 549.882812 209.429688 550.199219 210.191406 C 550.515625 210.953125 550.753906 211.738281 550.914062 212.546875 C 551.078125 213.359375 551.15625 214.175781 551.15625 215 Z M 551.15625 215 " fill-opacity="1" fill-rule="nonzero"/><path fill="#212121" d="M 551.15625 265.253906 C 551.15625 266.078125 551.078125 266.894531 550.914062 267.703125 C 550.753906 268.515625 550.515625 269.300781 550.199219 270.0625 C 549.882812 270.824219 549.496094 271.546875 549.039062 272.234375 C 548.582031 272.917969 548.058594 273.554688 547.476562 274.136719 C 546.890625 274.722656 546.257812 275.242188 545.570312 275.699219 C 544.886719 276.160156 544.160156 276.546875 543.398438 276.859375 C 542.636719 277.175781 541.851562 277.414062 541.039062 277.578125 C 540.230469 277.738281 539.414062 277.816406 538.589844 277.816406 C 537.761719 277.816406 536.945312 277.738281 536.136719 277.578125 C 535.328125 277.414062 534.542969 277.175781 533.777344 276.859375 C 533.015625 276.546875 532.292969 276.160156 531.605469 275.699219 C 530.921875 275.242188 530.285156 274.722656 529.703125 274.136719 C 529.117188 273.554688 528.597656 272.917969 528.136719 272.234375 C 527.679688 271.546875 527.292969 270.824219 526.976562 270.0625 C 526.660156 269.300781 526.421875 268.515625 526.261719 267.703125 C 526.101562 266.894531 526.019531 266.078125 526.019531 265.253906 C 526.019531 264.429688 526.101562 263.613281 526.261719 262.804688 C 526.421875 261.992188 526.660156 261.207031 526.976562 260.445312 C 527.292969 259.683594 527.679688 258.960938 528.136719 258.273438 C 528.597656 257.589844 529.117188 256.953125 529.703125 256.371094 C 530.285156 255.785156 530.921875 255.265625 531.605469 254.808594 C 532.292969 254.347656 533.015625 253.960938 533.777344 253.648438 C 534.542969 253.332031 535.328125 253.09375 536.136719 252.933594 C 536.945312 252.769531 537.761719 252.691406 538.589844 252.691406 C 539.414062 252.691406 540.230469 252.769531 541.039062 252.933594 C 541.851562 253.09375 542.636719 253.332031 543.398438 253.648438 C 544.160156 253.960938 544.886719 254.347656 545.570312 254.808594 C 546.257812 255.265625 546.890625 255.785156 547.476562 256.371094 C 548.058594 256.953125 548.582031 257.589844 549.039062 258.273438 C 549.496094 258.960938 549.882812 259.683594 550.199219 260.445312 C 550.515625 261.207031 550.753906 261.992188 550.914062 262.804688 C 551.078125 263.613281 551.15625 264.429688 551.15625 265.253906 Z M 551.15625 265.253906 " fill-opacity="1" fill-rule="nonzero"/><path fill="#f44336" d="M 174.109375 541.652344 L 29.941406 618.464844 C 31 620.453125 32.105469 622.421875 33.246094 624.367188 C 34.390625 626.3125 35.570312 628.234375 36.792969 630.132812 C 38.015625 632.027344 39.277344 633.898438 40.578125 635.742188 C 41.878906 637.585938 43.21875 639.402344 44.59375 641.191406 C 45.96875 642.980469 47.378906 644.742188 48.828125 646.472656 C 50.277344 648.203125 51.761719 649.902344 53.277344 651.570312 C 54.796875 653.238281 56.351562 654.875 57.9375 656.480469 C 59.523438 658.085938 61.144531 659.65625 62.796875 661.191406 C 64.445312 662.730469 66.128906 664.234375 67.84375 665.699219 C 69.558594 667.167969 71.300781 668.601562 73.074219 669.996094 C 74.847656 671.390625 76.652344 672.75 78.480469 674.070312 C 80.3125 675.390625 82.167969 676.671875 84.050781 677.917969 C 85.933594 679.160156 87.839844 680.367188 89.773438 681.53125 C 91.707031 682.695312 93.664062 683.820312 95.644531 684.902344 C 97.621094 685.988281 99.625 687.03125 101.644531 688.03125 C 103.667969 689.03125 105.710938 689.988281 107.773438 690.90625 C 109.835938 691.824219 111.917969 692.695312 114.015625 693.527344 C 116.113281 694.355469 118.230469 695.140625 120.359375 695.882812 C 122.492188 696.628906 124.636719 697.324219 126.796875 697.980469 C 128.957031 698.632812 131.132812 699.242188 133.316406 699.804688 C 135.503906 700.367188 137.699219 700.886719 139.90625 701.359375 C 142.113281 701.832031 144.328125 702.257812 146.554688 702.636719 C 148.777344 703.019531 151.007812 703.355469 153.246094 703.640625 C 155.484375 703.929688 157.730469 704.171875 159.976562 704.367188 C 162.226562 704.5625 164.476562 704.710938 166.734375 704.8125 C 168.988281 704.914062 171.242188 704.972656 173.5 704.980469 C 175.757812 704.988281 178.015625 704.949219 180.269531 704.863281 C 182.523438 704.78125 184.777344 704.648438 187.027344 704.46875 C 189.277344 704.292969 191.523438 704.066406 193.761719 703.796875 C 196.003906 703.523438 198.238281 703.207031 200.464844 702.84375 C 202.691406 702.480469 204.914062 702.070312 207.121094 701.613281 C 209.332031 701.160156 211.535156 700.65625 213.722656 700.109375 C 215.914062 699.5625 218.089844 698.972656 220.253906 698.335938 C 222.421875 697.699219 224.570312 697.015625 226.707031 696.289062 C 228.84375 695.5625 230.964844 694.792969 233.070312 693.980469 C 235.175781 693.164062 237.261719 692.308594 239.332031 691.40625 C 241.402344 690.507812 243.453125 689.5625 245.484375 688.578125 C 247.511719 687.59375 249.523438 686.566406 251.507812 685.496094 C 253.496094 684.429688 255.460938 683.320312 257.402344 682.167969 C 259.347656 681.019531 261.261719 679.828125 263.15625 678.601562 C 265.046875 677.371094 266.914062 676.101562 268.753906 674.796875 C 270.59375 673.488281 272.40625 672.144531 274.191406 670.761719 C 275.972656 669.378906 277.730469 667.960938 279.453125 666.507812 C 281.179688 665.054688 282.875 663.5625 284.535156 662.039062 C 286.199219 660.511719 287.832031 658.953125 289.429688 657.363281 C 291.03125 655.769531 292.59375 654.144531 294.125 652.488281 C 295.65625 650.832031 297.15625 649.144531 298.617188 647.421875 C 300.078125 645.703125 301.503906 643.957031 302.890625 642.175781 C 304.28125 640.398438 305.632812 638.59375 306.945312 636.757812 C 308.261719 634.925781 309.535156 633.0625 310.773438 631.175781 C 312.011719 629.289062 313.207031 627.378906 314.367188 625.441406 C 315.523438 623.503906 316.640625 621.542969 317.71875 619.558594 C 318.792969 617.578125 319.828125 615.574219 320.824219 613.546875 C 321.816406 611.519531 322.765625 609.476562 323.675781 607.410156 C 324.582031 605.34375 325.449219 603.261719 326.269531 601.160156 C 327.09375 599.058594 327.871094 596.941406 328.605469 594.808594 C 329.339844 592.675781 330.03125 590.527344 330.675781 588.367188 C 331.320312 586.203125 331.921875 584.027344 332.476562 581.84375 C 333.03125 579.65625 333.542969 577.457031 334.007812 575.25 C 334.46875 573.042969 334.886719 570.824219 335.261719 568.601562 C 335.632812 566.375 335.957031 564.144531 336.238281 561.902344 C 336.519531 559.664062 336.75 557.421875 336.9375 555.171875 C 337.125 552.925781 337.265625 550.671875 337.359375 548.417969 C 337.453125 546.164062 337.496094 543.910156 337.496094 541.652344 Z M 174.109375 541.652344 " fill-opacity="1" fill-rule="nonzero"/><path fill="#fbc02d" d="M 174.109375 378.328125 C 170.601562 378.324219 167.097656 378.4375 163.597656 378.664062 C 160.097656 378.886719 156.605469 379.226562 153.128906 379.675781 C 149.648438 380.125 146.1875 380.6875 142.746094 381.359375 C 139.300781 382.03125 135.882812 382.8125 132.492188 383.707031 C 129.097656 384.597656 125.738281 385.601562 122.410156 386.710938 C 119.082031 387.820312 115.792969 389.035156 112.542969 390.355469 C 109.296875 391.675781 106.089844 393.097656 102.933594 394.625 C 99.777344 396.152344 96.671875 397.78125 93.617188 399.507812 C 90.5625 401.234375 87.570312 403.058594 84.632812 404.980469 C 81.699219 406.898438 78.828125 408.914062 76.023438 411.015625 C 73.21875 413.121094 70.480469 415.316406 67.816406 417.597656 C 65.152344 419.878906 62.566406 422.242188 60.054688 424.691406 C 57.539062 427.136719 55.109375 429.664062 52.761719 432.269531 C 50.410156 434.871094 48.148438 437.550781 45.972656 440.300781 C 43.796875 443.050781 41.710938 445.867188 39.714844 448.75 C 37.71875 451.636719 35.820312 454.582031 34.015625 457.589844 C 32.207031 460.59375 30.503906 463.65625 28.894531 466.773438 C 27.285156 469.890625 25.78125 473.054688 24.375 476.269531 C 22.972656 479.484375 21.671875 482.738281 20.480469 486.035156 C 19.285156 489.332031 18.199219 492.667969 17.21875 496.035156 C 16.238281 499.402344 15.371094 502.796875 14.609375 506.21875 C 13.847656 509.644531 13.199219 513.085938 12.660156 516.550781 C 12.121094 520.019531 11.695312 523.496094 11.382812 526.988281 C 11.066406 530.480469 10.867188 533.980469 10.777344 537.488281 C 10.6875 540.992188 10.710938 544.496094 10.851562 548 C 10.988281 551.503906 11.238281 555 11.597656 558.488281 C 11.960938 561.976562 12.4375 565.449219 13.023438 568.90625 C 13.609375 572.363281 14.304688 575.800781 15.113281 579.210938 C 15.921875 582.625 16.835938 586.007812 17.863281 589.363281 C 18.886719 592.714844 20.019531 596.03125 21.261719 599.3125 C 22.5 602.59375 23.84375 605.832031 25.292969 609.023438 C 26.738281 612.21875 28.289062 615.363281 29.941406 618.457031 L 174.109375 541.652344 Z M 174.109375 378.328125 " fill-opacity="1" fill-rule="nonzero"/><path fill="#7cb342" d="M 174.109375 378.328125 L 174.109375 541.652344 L 337.496094 541.652344 C 337.496094 538.980469 337.425781 536.3125 337.292969 533.640625 C 337.160156 530.972656 336.957031 528.308594 336.695312 525.648438 C 336.429688 522.992188 336.101562 520.339844 335.707031 517.699219 C 335.3125 515.054688 334.851562 512.421875 334.328125 509.800781 C 333.804688 507.183594 333.214844 504.578125 332.566406 501.984375 C 331.914062 499.394531 331.199219 496.820312 330.421875 494.261719 C 329.644531 491.707031 328.804688 489.171875 327.902344 486.65625 C 327 484.140625 326.035156 481.648438 325.011719 479.179688 C 323.988281 476.710938 322.902344 474.269531 321.757812 471.855469 C 320.613281 469.4375 319.414062 467.054688 318.152344 464.699219 C 316.890625 462.339844 315.570312 460.019531 314.195312 457.726562 C 312.820312 455.433594 311.390625 453.179688 309.90625 450.957031 C 308.421875 448.734375 306.878906 446.550781 305.289062 444.40625 C 303.695312 442.261719 302.050781 440.15625 300.355469 438.089844 C 298.660156 436.023438 296.914062 434 295.117188 432.019531 C 293.320312 430.042969 291.480469 428.105469 289.589844 426.21875 C 287.699219 424.328125 285.765625 422.484375 283.78125 420.691406 C 281.800781 418.898438 279.78125 417.152344 277.714844 415.457031 C 275.648438 413.761719 273.539062 412.117188 271.394531 410.523438 C 269.246094 408.933594 267.0625 407.394531 264.839844 405.910156 C 262.617188 404.421875 260.359375 402.992188 258.070312 401.617188 C 255.777344 400.242188 253.453125 398.925781 251.09375 397.664062 C 248.738281 396.40625 246.351562 395.203125 243.933594 394.058594 C 241.519531 392.914062 239.078125 391.832031 236.609375 390.808594 C 234.140625 389.785156 231.644531 388.820312 229.128906 387.917969 C 226.613281 387.015625 224.078125 386.179688 221.519531 385.398438 C 218.960938 384.621094 216.386719 383.910156 213.792969 383.257812 C 211.203125 382.605469 208.59375 382.019531 205.972656 381.496094 C 203.351562 380.972656 200.71875 380.511719 198.074219 380.117188 C 195.433594 379.722656 192.78125 379.394531 190.121094 379.128906 C 187.460938 378.863281 184.796875 378.664062 182.125 378.53125 C 179.457031 378.398438 176.785156 378.328125 174.109375 378.328125 Z M 174.109375 378.328125 " fill-opacity="1" fill-rule="nonzero"/><path fill="#212121" d="M 701.976562 566.78125 L 425.476562 566.78125 C 424.242188 566.777344 423.007812 566.71875 421.78125 566.59375 C 420.550781 566.472656 419.332031 566.292969 418.121094 566.050781 C 416.910156 565.808594 415.714844 565.507812 414.535156 565.148438 C 413.351562 564.789062 412.191406 564.375 411.050781 563.902344 C 409.914062 563.425781 408.796875 562.898438 407.710938 562.316406 C 406.621094 561.734375 405.5625 561.101562 404.539062 560.414062 C 403.511719 559.730469 402.519531 558.996094 401.566406 558.210938 C 400.613281 557.429688 399.699219 556.601562 398.824219 555.730469 C 397.953125 554.855469 397.125 553.941406 396.339844 552.988281 C 395.558594 552.035156 394.824219 551.046875 394.136719 550.019531 C 393.453125 548.992188 392.816406 547.9375 392.234375 546.847656 C 391.652344 545.761719 391.125 544.648438 390.652344 543.507812 C 390.179688 542.367188 389.761719 541.207031 389.402344 540.027344 C 389.042969 538.84375 388.742188 537.648438 388.5 536.441406 C 388.261719 535.230469 388.078125 534.011719 387.957031 532.78125 C 387.832031 531.554688 387.773438 530.324219 387.769531 529.089844 L 387.769531 328.070312 C 387.769531 327.246094 387.851562 326.429688 388.011719 325.621094 C 388.171875 324.8125 388.410156 324.027344 388.726562 323.265625 C 389.042969 322.503906 389.429688 321.777344 389.886719 321.09375 C 390.347656 320.40625 390.867188 319.773438 391.453125 319.1875 C 392.035156 318.605469 392.667969 318.085938 393.355469 317.625 C 394.042969 317.167969 394.765625 316.78125 395.527344 316.464844 C 396.292969 316.148438 397.078125 315.910156 397.886719 315.75 C 398.695312 315.589844 399.511719 315.507812 400.339844 315.507812 C 401.164062 315.507812 401.980469 315.589844 402.789062 315.75 C 403.601562 315.910156 404.386719 316.148438 405.148438 316.464844 C 405.910156 316.78125 406.636719 317.167969 407.320312 317.625 C 408.007812 318.085938 408.640625 318.605469 409.226562 319.1875 C 409.808594 319.773438 410.332031 320.40625 410.789062 321.09375 C 411.246094 321.777344 411.632812 322.503906 411.949219 323.265625 C 412.265625 324.027344 412.503906 324.8125 412.664062 325.621094 C 412.828125 326.429688 412.90625 327.246094 412.90625 328.070312 L 412.90625 529.089844 C 412.90625 529.914062 412.988281 530.730469 413.152344 531.539062 C 413.3125 532.347656 413.550781 533.132812 413.867188 533.894531 C 414.183594 534.65625 414.570312 535.382812 415.027344 536.066406 C 415.488281 536.753906 416.007812 537.386719 416.589844 537.96875 C 417.175781 538.554688 417.808594 539.074219 418.496094 539.53125 C 419.179688 539.992188 419.90625 540.378906 420.667969 540.695312 C 421.429688 541.007812 422.214844 541.25 423.023438 541.410156 C 423.832031 541.570312 424.648438 541.652344 425.476562 541.652344 L 701.976562 541.652344 C 702.800781 541.652344 703.617188 541.734375 704.425781 541.894531 C 705.234375 542.054688 706.023438 542.292969 706.785156 542.609375 C 707.546875 542.925781 708.269531 543.3125 708.957031 543.769531 C 709.644531 544.230469 710.277344 544.75 710.863281 545.332031 C 711.445312 545.917969 711.964844 546.550781 712.425781 547.238281 C 712.882812 547.921875 713.269531 548.648438 713.585938 549.410156 C 713.902344 550.171875 714.140625 550.957031 714.300781 551.765625 C 714.460938 552.574219 714.542969 553.390625 714.542969 554.21875 C 714.542969 555.042969 714.460938 555.859375 714.300781 556.667969 C 714.140625 557.476562 713.902344 558.261719 713.585938 559.023438 C 713.269531 559.785156 712.882812 560.511719 712.425781 561.195312 C 711.964844 561.882812 711.445312 562.515625 710.863281 563.101562 C 710.277344 563.683594 709.644531 564.203125 708.957031 564.664062 C 708.269531 565.121094 707.546875 565.507812 706.785156 565.824219 C 706.023438 566.140625 705.234375 566.378906 704.425781 566.539062 C 703.617188 566.699219 702.800781 566.78125 701.976562 566.78125 Z M 701.976562 566.78125 " fill-opacity="1" fill-rule="nonzero"/><path fill="#f44336" d="M 111.269531 321.789062 C 111.269531 323.230469 111.199219 324.667969 111.058594 326.101562 C 110.917969 327.535156 110.707031 328.957031 110.425781 330.367188 C 110.144531 331.78125 109.792969 333.175781 109.375 334.554688 C 108.957031 335.933594 108.472656 337.289062 107.921875 338.617188 C 107.371094 339.949219 106.753906 341.25 106.078125 342.519531 C 105.398438 343.789062 104.65625 345.023438 103.855469 346.21875 C 103.054688 347.417969 102.199219 348.574219 101.285156 349.6875 C 100.371094 350.800781 99.40625 351.863281 98.386719 352.882812 C 97.367188 353.902344 96.300781 354.867188 95.1875 355.78125 C 94.074219 356.695312 92.917969 357.550781 91.71875 358.351562 C 90.523438 359.152344 89.289062 359.890625 88.019531 360.570312 C 86.746094 361.25 85.445312 361.863281 84.117188 362.414062 C 82.785156 362.964844 81.429688 363.453125 80.050781 363.871094 C 78.671875 364.289062 77.277344 364.636719 75.863281 364.917969 C 74.449219 365.199219 73.027344 365.410156 71.59375 365.550781 C 70.160156 365.691406 68.722656 365.761719 67.28125 365.761719 C 65.839844 365.761719 64.402344 365.691406 62.96875 365.550781 C 61.535156 365.410156 60.113281 365.199219 58.699219 364.917969 C 57.285156 364.636719 55.890625 364.289062 54.511719 363.871094 C 53.132812 363.453125 51.777344 362.964844 50.449219 362.414062 C 49.117188 361.863281 47.816406 361.25 46.546875 360.570312 C 45.273438 359.890625 44.039062 359.152344 42.84375 358.351562 C 41.644531 357.550781 40.488281 356.695312 39.375 355.78125 C 38.261719 354.867188 37.195312 353.902344 36.175781 352.882812 C 35.160156 351.863281 34.191406 350.800781 33.277344 349.6875 C 32.363281 348.574219 31.507812 347.417969 30.707031 346.21875 C 29.90625 345.023438 29.167969 343.789062 28.488281 342.519531 C 27.808594 341.25 27.191406 339.949219 26.640625 338.617188 C 26.089844 337.289062 25.605469 335.933594 25.1875 334.554688 C 24.769531 333.175781 24.417969 331.78125 24.136719 330.367188 C 23.855469 328.957031 23.644531 327.535156 23.503906 326.101562 C 23.363281 324.667969 23.292969 323.230469 23.292969 321.789062 C 23.292969 320.351562 23.363281 318.914062 23.503906 317.480469 C 23.644531 316.046875 23.855469 314.625 24.136719 313.210938 C 24.417969 311.800781 24.769531 310.402344 25.1875 309.027344 C 25.605469 307.648438 26.089844 306.292969 26.640625 304.960938 C 27.191406 303.632812 27.808594 302.332031 28.488281 301.0625 C 29.167969 299.792969 29.90625 298.558594 30.707031 297.359375 C 31.507812 296.164062 32.363281 295.007812 33.277344 293.894531 C 34.191406 292.78125 35.160156 291.714844 36.175781 290.695312 C 37.195312 289.679688 38.261719 288.710938 39.375 287.800781 C 40.488281 286.886719 41.644531 286.027344 42.84375 285.226562 C 44.039062 284.429688 45.273438 283.6875 46.546875 283.011719 C 47.816406 282.332031 49.117188 281.714844 50.449219 281.164062 C 51.777344 280.613281 53.132812 280.128906 54.511719 279.710938 C 55.890625 279.292969 57.285156 278.945312 58.699219 278.664062 C 60.113281 278.382812 61.535156 278.171875 62.96875 278.03125 C 64.402344 277.886719 65.839844 277.816406 67.28125 277.816406 C 68.722656 277.816406 70.160156 277.886719 71.59375 278.03125 C 73.027344 278.171875 74.449219 278.382812 75.863281 278.664062 C 77.277344 278.945312 78.671875 279.292969 80.050781 279.710938 C 81.429688 280.128906 82.785156 280.613281 84.117188 281.164062 C 85.445312 281.714844 86.746094 282.332031 88.019531 283.011719 C 89.289062 283.6875 90.523438 284.429688 91.71875 285.226562 C 92.917969 286.027344 94.074219 286.886719 95.1875 287.800781 C 96.300781 288.710938 97.367188 289.679688 98.386719 290.695312 C 99.40625 291.714844 100.371094 292.78125 101.285156 293.894531 C 102.199219 295.007812 103.054688 296.164062 103.855469 297.359375 C 104.65625 298.558594 105.398438 299.792969 106.078125 301.0625 C 106.753906 302.332031 107.371094 303.632812 107.921875 304.960938 C 108.472656 306.292969 108.957031 307.648438 109.375 309.027344 C 109.792969 310.402344 110.144531 311.800781 110.425781 313.210938 C 110.707031 314.625 110.917969 316.046875 111.058594 317.480469 C 111.199219 318.914062 111.269531 320.351562 111.269531 321.789062 Z M 111.269531 321.789062 " fill-opacity="1" fill-rule="nonzero"/><path fill="#fbc02d" d="M 236.953125 208.71875 C 236.953125 210.15625 236.882812 211.59375 236.742188 213.027344 C 236.597656 214.460938 236.386719 215.882812 236.105469 217.296875 C 235.824219 218.707031 235.476562 220.105469 235.058594 221.480469 C 234.640625 222.859375 234.15625 224.214844 233.605469 225.546875 C 233.050781 226.875 232.4375 228.175781 231.757812 229.445312 C 231.078125 230.714844 230.339844 231.949219 229.539062 233.148438 C 228.738281 234.34375 227.882812 235.5 226.96875 236.613281 C 226.054688 237.726562 225.085938 238.792969 224.066406 239.8125 C 223.050781 240.828125 221.984375 241.796875 220.871094 242.710938 C 219.757812 243.621094 218.601562 244.480469 217.402344 245.28125 C 216.203125 246.078125 214.96875 246.820312 213.699219 247.5 C 212.429688 248.175781 211.128906 248.792969 209.796875 249.34375 C 208.464844 249.894531 207.113281 250.378906 205.734375 250.796875 C 204.355469 251.214844 202.957031 251.566406 201.546875 251.84375 C 200.132812 252.125 198.707031 252.335938 197.273438 252.480469 C 195.839844 252.621094 194.402344 252.691406 192.964844 252.691406 C 191.523438 252.691406 190.085938 252.621094 188.652344 252.480469 C 187.21875 252.335938 185.792969 252.125 184.382812 251.84375 C 182.96875 251.566406 181.574219 251.214844 180.195312 250.796875 C 178.816406 250.378906 177.460938 249.894531 176.128906 249.34375 C 174.796875 248.792969 173.496094 248.175781 172.226562 247.5 C 170.957031 246.820312 169.722656 246.078125 168.523438 245.28125 C 167.328125 244.480469 166.171875 243.621094 165.058594 242.710938 C 163.945312 241.796875 162.878906 240.828125 161.859375 239.8125 C 160.839844 238.792969 159.875 237.726562 158.960938 236.613281 C 158.046875 235.5 157.1875 234.34375 156.386719 233.148438 C 155.589844 231.949219 154.847656 230.714844 154.167969 229.445312 C 153.488281 228.175781 152.875 226.875 152.324219 225.546875 C 151.773438 224.214844 151.289062 222.859375 150.867188 221.480469 C 150.449219 220.105469 150.101562 218.707031 149.820312 217.296875 C 149.539062 215.882812 149.328125 214.460938 149.1875 213.027344 C 149.046875 211.59375 148.976562 210.15625 148.976562 208.71875 C 148.976562 207.277344 149.046875 205.839844 149.1875 204.40625 C 149.328125 202.972656 149.539062 201.550781 149.820312 200.140625 C 150.101562 198.726562 150.449219 197.332031 150.867188 195.953125 C 151.289062 194.574219 151.773438 193.222656 152.324219 191.890625 C 152.875 190.558594 153.488281 189.257812 154.167969 187.988281 C 154.847656 186.71875 155.589844 185.484375 156.386719 184.289062 C 157.1875 183.089844 158.046875 181.933594 158.960938 180.820312 C 159.875 179.707031 160.839844 178.644531 161.859375 177.625 C 162.878906 176.605469 163.945312 175.640625 165.058594 174.726562 C 166.171875 173.8125 167.328125 172.957031 168.523438 172.15625 C 169.722656 171.355469 170.957031 170.617188 172.226562 169.9375 C 173.496094 169.257812 174.796875 168.644531 176.128906 168.09375 C 177.460938 167.542969 178.816406 167.058594 180.195312 166.640625 C 181.574219 166.21875 182.96875 165.871094 184.382812 165.589844 C 185.792969 165.308594 187.21875 165.097656 188.652344 164.957031 C 190.085938 164.816406 191.523438 164.746094 192.964844 164.746094 C 194.402344 164.746094 195.839844 164.816406 197.273438 164.957031 C 198.707031 165.097656 200.132812 165.308594 201.546875 165.589844 C 202.957031 165.871094 204.355469 166.21875 205.734375 166.640625 C 207.113281 167.058594 208.464844 167.542969 209.796875 168.09375 C 211.128906 168.644531 212.429688 169.257812 213.699219 169.9375 C 214.96875 170.617188 216.203125 171.355469 217.402344 172.15625 C 218.601562 172.957031 219.757812 173.8125 220.871094 174.726562 C 221.984375 175.640625 223.050781 176.605469 224.066406 177.625 C 225.085938 178.644531 226.054688 179.707031 226.96875 180.820312 C 227.882812 181.933594 228.738281 183.089844 229.539062 184.289062 C 230.339844 185.484375 231.078125 186.71875 231.757812 187.988281 C 232.4375 189.257812 233.050781 190.558594 233.605469 191.890625 C 234.15625 193.222656 234.640625 194.574219 235.058594 195.953125 C 235.476562 197.332031 235.824219 198.726562 236.105469 200.140625 C 236.386719 201.550781 236.597656 202.972656 236.742188 204.40625 C 236.882812 205.839844 236.953125 207.277344 236.953125 208.71875 Z M 236.953125 208.71875 " fill-opacity="1" fill-rule="nonzero"/><path fill="#1976d2" d="M 488.316406 196.152344 C 488.316406 197.59375 488.246094 199.03125 488.105469 200.464844 C 487.960938 201.898438 487.75 203.320312 487.46875 204.734375 C 487.191406 206.144531 486.839844 207.539062 486.421875 208.917969 C 486.003906 210.296875 485.519531 211.652344 484.96875 212.980469 C 484.417969 214.3125 483.800781 215.613281 483.121094 216.882812 C 482.441406 218.152344 481.703125 219.386719 480.902344 220.585938 C 480.101562 221.78125 479.246094 222.9375 478.332031 224.050781 C 477.417969 225.164062 476.449219 226.230469 475.433594 227.246094 C 474.414062 228.265625 473.347656 229.230469 472.234375 230.144531 C 471.121094 231.058594 469.964844 231.914062 468.765625 232.714844 C 467.566406 233.515625 466.332031 234.253906 465.0625 234.933594 C 463.792969 235.613281 462.492188 236.226562 461.160156 236.78125 C 459.828125 237.332031 458.476562 237.816406 457.097656 238.234375 C 455.71875 238.652344 454.320312 239 452.910156 239.28125 C 451.496094 239.5625 450.074219 239.773438 448.640625 239.914062 C 447.207031 240.054688 445.769531 240.125 444.328125 240.125 C 442.886719 240.125 441.449219 240.054688 440.015625 239.914062 C 438.582031 239.773438 437.160156 239.5625 435.746094 239.28125 C 434.332031 239 432.9375 238.652344 431.558594 238.234375 C 430.179688 237.816406 428.824219 237.332031 427.492188 236.78125 C 426.164062 236.226562 424.863281 235.613281 423.589844 234.933594 C 422.320312 234.253906 421.085938 233.515625 419.886719 232.714844 C 418.691406 231.914062 417.535156 231.058594 416.421875 230.144531 C 415.308594 229.230469 414.242188 228.265625 413.222656 227.246094 C 412.203125 226.230469 411.238281 225.164062 410.324219 224.050781 C 409.410156 222.9375 408.550781 221.78125 407.753906 220.585938 C 406.953125 219.386719 406.210938 218.152344 405.53125 216.882812 C 404.855469 215.613281 404.238281 214.3125 403.6875 212.980469 C 403.136719 211.652344 402.652344 210.296875 402.234375 208.917969 C 401.816406 207.539062 401.464844 206.144531 401.183594 204.734375 C 400.902344 203.320312 400.691406 201.898438 400.550781 200.464844 C 400.410156 199.03125 400.339844 197.59375 400.339844 196.152344 C 400.339844 194.714844 400.410156 193.277344 400.550781 191.84375 C 400.691406 190.410156 400.902344 188.988281 401.183594 187.574219 C 401.464844 186.164062 401.816406 184.769531 402.234375 183.390625 C 402.652344 182.011719 403.136719 180.65625 403.6875 179.328125 C 404.238281 177.996094 404.855469 176.695312 405.53125 175.425781 C 406.210938 174.15625 406.953125 172.921875 407.753906 171.722656 C 408.550781 170.527344 409.410156 169.371094 410.324219 168.257812 C 411.238281 167.144531 412.203125 166.078125 413.222656 165.0625 C 414.242188 164.042969 415.308594 163.078125 416.421875 162.164062 C 417.535156 161.25 418.691406 160.390625 419.886719 159.59375 C 421.085938 158.792969 422.320312 158.050781 423.589844 157.375 C 424.863281 156.695312 426.164062 156.078125 427.492188 155.527344 C 428.824219 154.976562 430.179688 154.492188 431.558594 154.074219 C 432.9375 153.65625 434.332031 153.308594 435.746094 153.027344 C 437.160156 152.746094 438.582031 152.535156 440.015625 152.394531 C 441.449219 152.253906 442.886719 152.179688 444.328125 152.179688 C 445.769531 152.179688 447.207031 152.253906 448.640625 152.394531 C 450.074219 152.535156 451.496094 152.746094 452.910156 153.027344 C 454.320312 153.308594 455.71875 153.65625 457.097656 154.074219 C 458.476562 154.492188 459.828125 154.976562 461.160156 155.527344 C 462.492188 156.078125 463.792969 156.695312 465.0625 157.375 C 466.332031 158.050781 467.566406 158.792969 468.765625 159.59375 C 469.964844 160.390625 471.121094 161.25 472.234375 162.164062 C 473.347656 163.078125 474.414062 164.042969 475.433594 165.0625 C 476.449219 166.078125 477.417969 167.144531 478.332031 168.257812 C 479.246094 169.371094 480.101562 170.527344 480.902344 171.722656 C 481.703125 172.921875 482.441406 174.15625 483.121094 175.425781 C 483.800781 176.695312 484.417969 177.996094 484.96875 179.328125 C 485.519531 180.65625 486.003906 182.011719 486.421875 183.390625 C 486.839844 184.769531 487.191406 186.164062 487.46875 187.574219 C 487.75 188.988281 487.960938 190.410156 488.105469 191.84375 C 488.246094 193.277344 488.316406 194.714844 488.316406 196.152344 Z M 488.316406 196.152344 " fill-opacity="1" fill-rule="nonzero"/><path fill="#7cb342" d="M 350.066406 309.226562 C 350.066406 310.667969 349.996094 312.101562 349.855469 313.535156 C 349.710938 314.96875 349.5 316.394531 349.21875 317.804688 C 348.941406 319.21875 348.589844 320.613281 348.171875 321.992188 C 347.753906 323.371094 347.269531 324.722656 346.71875 326.054688 C 346.167969 327.382812 345.550781 328.683594 344.871094 329.957031 C 344.191406 331.226562 343.453125 332.460938 342.652344 333.65625 C 341.851562 334.855469 340.996094 336.007812 340.082031 337.121094 C 339.167969 338.234375 338.199219 339.300781 337.183594 340.320312 C 336.164062 341.339844 335.097656 342.304688 333.984375 343.21875 C 332.871094 344.132812 331.714844 344.988281 330.515625 345.789062 C 329.316406 346.589844 328.082031 347.328125 326.8125 348.007812 C 325.542969 348.6875 324.242188 349.300781 322.910156 349.851562 C 321.578125 350.402344 320.226562 350.886719 318.847656 351.304688 C 317.46875 351.722656 316.070312 352.074219 314.660156 352.355469 C 313.246094 352.636719 311.824219 352.847656 310.390625 352.988281 C 308.957031 353.128906 307.519531 353.199219 306.078125 353.199219 C 304.636719 353.199219 303.199219 353.128906 301.765625 352.988281 C 300.332031 352.847656 298.910156 352.636719 297.496094 352.355469 C 296.082031 352.074219 294.6875 351.722656 293.308594 351.304688 C 291.929688 350.886719 290.574219 350.402344 289.242188 349.851562 C 287.914062 349.300781 286.613281 348.6875 285.339844 348.007812 C 284.070312 347.328125 282.835938 346.589844 281.636719 345.789062 C 280.441406 344.988281 279.285156 344.132812 278.171875 343.21875 C 277.058594 342.304688 275.992188 341.339844 274.972656 340.320312 C 273.953125 339.300781 272.988281 338.234375 272.074219 337.121094 C 271.160156 336.007812 270.300781 334.855469 269.5 333.65625 C 268.703125 332.460938 267.960938 331.226562 267.28125 329.957031 C 266.605469 328.683594 265.988281 327.382812 265.4375 326.054688 C 264.886719 324.722656 264.402344 323.371094 263.984375 321.992188 C 263.566406 320.613281 263.214844 319.21875 262.933594 317.804688 C 262.652344 316.394531 262.441406 314.96875 262.300781 313.535156 C 262.160156 312.101562 262.089844 310.667969 262.089844 309.226562 C 262.089844 307.785156 262.160156 306.351562 262.300781 304.917969 C 262.441406 303.484375 262.652344 302.058594 262.933594 300.648438 C 263.214844 299.234375 263.566406 297.839844 263.984375 296.460938 C 264.402344 295.082031 264.886719 293.730469 265.4375 292.398438 C 265.988281 291.070312 266.605469 289.769531 267.28125 288.5 C 267.960938 287.226562 268.703125 285.996094 269.5 284.796875 C 270.300781 283.597656 271.160156 282.445312 272.074219 281.332031 C 272.988281 280.21875 273.953125 279.152344 274.972656 278.132812 C 275.992188 277.113281 277.058594 276.148438 278.171875 275.234375 C 279.285156 274.320312 280.441406 273.464844 281.636719 272.664062 C 282.835938 271.863281 284.070312 271.125 285.339844 270.445312 C 286.613281 269.765625 287.914062 269.152344 289.242188 268.601562 C 290.574219 268.050781 291.929688 267.566406 293.308594 267.148438 C 294.6875 266.730469 296.082031 266.378906 297.496094 266.097656 C 298.910156 265.816406 300.332031 265.605469 301.765625 265.464844 C 303.199219 265.324219 304.636719 265.253906 306.078125 265.253906 C 307.519531 265.253906 308.957031 265.324219 310.390625 265.464844 C 311.824219 265.605469 313.246094 265.816406 314.660156 266.097656 C 316.070312 266.378906 317.46875 266.730469 318.847656 267.148438 C 320.226562 267.566406 321.578125 268.050781 322.910156 268.601562 C 324.242188 269.152344 325.542969 269.765625 326.8125 270.445312 C 328.082031 271.125 329.316406 271.863281 330.515625 272.664062 C 331.714844 273.464844 332.871094 274.320312 333.984375 275.234375 C 335.097656 276.148438 336.164062 277.113281 337.183594 278.132812 C 338.199219 279.152344 339.167969 280.21875 340.082031 281.332031 C 340.996094 282.445312 341.851562 283.597656 342.652344 284.796875 C 343.453125 285.996094 344.191406 287.226562 344.871094 288.5 C 345.550781 289.769531 346.167969 291.070312 346.71875 292.398438 C 347.269531 293.730469 347.753906 295.082031 348.171875 296.460938 C 348.589844 297.839844 348.941406 299.234375 349.21875 300.648438 C 349.5 302.058594 349.710938 303.484375 349.855469 304.917969 C 349.996094 306.351562 350.066406 307.785156 350.066406 309.226562 Z M 350.066406 309.226562 " fill-opacity="1" fill-rule="nonzero"/></svg>